<svg version="1.1" id="Layer_1" xmlns="http://www.w3.org/2000/svg" xmlns:xlink="http://www.w3.org/1999/xlink" x="0px" y="0px"
	 width="100%" viewBox="0 0 238 275" enable-background="new 0 0 238 275" xml:space="preserve">
<path fill="#FDFEFE" opacity="1.000000" stroke="none" 
	d="
M1.000000,102.000000 
	C1.000000,68.000008 1.000000,34.500008 1.000000,1.000009 
	C80.333321,1.000006 159.666641,1.000006 238.999969,1.000003 
	C238.999969,92.666649 238.999969,184.333298 238.999985,275.999939 
	C159.666702,275.999969 80.333405,275.999969 1.000051,276.000000 
	C1.000000,218.166672 1.000000,160.333328 1.000000,102.000000 
M17.015182,146.581589 
	C21.937031,163.796738 29.045519,180.103333 38.603268,195.196671 
	C57.096786,224.401108 81.218468,248.192535 109.826736,267.492096 
	C118.928574,273.632355 124.577293,273.423462 133.399841,266.711121 
	C141.202881,260.774414 149.274887,255.147461 156.705002,248.773895 
	C170.486664,236.951965 183.089432,223.961731 193.783340,209.184387 
	C203.047974,196.382050 211.906662,183.261627 217.125702,168.302567 
	C222.031662,154.240875 227.264374,139.970734 229.426376,125.359222 
	C231.894852,108.676369 231.329758,91.519348 231.702942,74.560013 
	C231.986496,61.673428 227.466324,57.189182 214.518112,55.393631 
	C207.132172,54.369419 199.717392,53.055798 192.551086,51.036663 
	C169.310852,44.488659 149.555771,32.070038 132.931961,14.582386 
	C129.796631,11.284125 126.203682,8.692744 121.288582,8.658166 
	C116.225578,8.622548 112.391159,10.966031 109.097336,14.510118 
	C96.457901,28.109913 81.513626,38.352005 64.488251,45.751213 
	C51.390743,51.443367 37.682865,54.394814 23.609230,56.101746 
	C16.060333,57.017323 11.158717,61.887276 10.788557,69.554863 
	C10.379309,78.032143 10.648069,86.540802 10.557389,95.035103 
	C10.373737,112.238342 11.941500,129.221680 17.015182,146.581589 
z"/>
<path fill="#5079C3" opacity="1.000000" stroke="none" 
	d="
M16.894054,146.194977 
	C11.941500,129.221680 10.373737,112.238342 10.557389,95.035103 
	C10.648069,86.540802 10.379309,78.032143 10.788557,69.554863 
	C11.158717,61.887276 16.060333,57.017323 23.609230,56.101746 
	C37.682865,54.394814 51.390743,51.443367 64.488251,45.751213 
	C81.513626,38.352005 96.457901,28.109913 109.097336,14.510118 
	C112.391159,10.966031 116.225578,8.622548 121.288582,8.658166 
	C126.203682,8.692744 129.796631,11.284125 132.931961,14.582386 
	C149.555771,32.070038 169.310852,44.488659 192.551086,51.036663 
	C199.717392,53.055798 207.132172,54.369419 214.518112,55.393631 
	C227.466324,57.189182 231.986496,61.673428 231.702942,74.560013 
	C231.329758,91.519348 231.894852,108.676369 229.426376,125.359222 
	C227.264374,139.970734 222.031662,154.240875 217.125702,168.302567 
	C211.906662,183.261627 203.047974,196.382050 193.783340,209.184387 
	C183.089432,223.961731 170.486664,236.951965 156.705002,248.773895 
	C149.274887,255.147461 141.202881,260.774414 133.399841,266.711121 
	C124.577293,273.423462 118.928574,273.632355 109.826736,267.492096 
	C81.218468,248.192535 57.096786,224.401108 38.603268,195.196671 
	C29.045519,180.103333 21.937031,163.796738 16.894054,146.194977 
M37.987957,173.023254 
	C37.987957,173.023254 37.908485,173.039276 37.997734,173.659698 
	C38.281185,173.959198 38.564632,174.258698 38.719261,174.776993 
	C38.719261,174.776993 38.877499,174.975586 38.976692,175.612411 
	C39.269566,175.918274 39.562435,176.224152 39.746216,176.777771 
	C39.746216,176.777771 39.921852,176.983780 39.919170,177.615128 
	C40.263729,178.113419 40.608288,178.611694 41.004902,179.603165 
	C41.004902,179.603165 41.253693,180.032181 41.248585,180.518311 
	C41.355003,180.868271 41.589073,181.070663 42.074795,181.650070 
	C42.189342,181.788513 42.303890,181.926971 42.381977,182.463654 
	C42.499931,182.750778 42.713707,182.881760 43.103096,183.353668 
	C43.318272,183.603287 43.533451,183.852905 43.887436,184.782959 
	C44.934937,186.495621 45.982437,188.208282 47.151810,190.406204 
	C47.391788,190.621094 47.631763,190.835968 48.007565,191.689804 
	C48.625332,192.573608 49.243099,193.457413 49.899849,194.718781 
	C49.899849,194.718781 50.171875,194.983505 50.340839,195.605118 
	C51.529640,197.143387 52.718445,198.681671 54.015285,200.644516 
	C54.179451,200.913574 54.417885,201.067841 54.896072,201.730087 
	C55.561741,202.529770 56.227409,203.329468 56.937637,204.004929 
	C56.937637,204.004929 56.852715,204.105972 56.996216,204.766068 
	C58.689640,206.771301 60.383064,208.776550 62.281960,211.433838 
	C64.846565,214.291931 67.411171,217.150024 70.089767,220.528519 
	C70.378624,220.714798 70.667480,220.901093 70.985748,221.014679 
	C70.985748,221.014679 70.912643,221.043060 71.073479,221.561218 
	C71.368332,221.752792 71.663177,221.944351 72.098587,222.577362 
	C72.273506,222.861633 72.526787,223.022568 73.118126,223.688095 
	C76.390366,226.821808 79.662605,229.955521 82.989334,233.021790 
	C82.989334,233.021790 82.905472,233.043793 83.062599,233.555573 
	C83.359436,233.737579 83.656265,233.919571 83.975983,234.025040 
	C83.975983,234.025040 83.899193,234.047150 84.046082,234.568069 
	C84.346428,234.749725 84.646774,234.931381 84.966896,235.033234 
	C84.966896,235.033234 84.887680,235.055283 85.059769,235.569138 
	C85.367554,235.731720 85.675339,235.894318 86.318710,236.607010 
	C88.082794,238.123322 89.846878,239.639648 91.981888,241.743973 
	C94.998619,244.050674 98.015350,246.357361 101.334076,248.971558 
	C101.334076,248.971558 101.750160,249.083954 101.976852,249.602432 
	C102.296677,249.780945 102.616493,249.959442 102.945145,250.054153 
	C102.945145,250.054153 102.863174,250.073761 103.048119,250.590897 
	C103.368217,250.742538 103.688309,250.894180 104.197441,251.240005 
	C104.197441,251.240005 104.453094,251.150101 104.811577,251.674576 
	C105.188164,251.852005 105.564758,252.029419 106.196770,252.705521 
	C106.785324,253.142395 107.373871,253.579269 108.108879,254.471115 
	C108.333672,254.749191 108.620659,254.849716 109.470802,255.116226 
	C110.003777,255.402145 110.536751,255.688065 111.363670,256.581665 
	C121.837601,263.365479 123.100143,263.341705 131.137634,256.147858 
	C131.755341,255.733185 132.373047,255.318497 133.633621,254.756912 
	C135.506577,253.206818 137.379532,251.656708 139.796646,249.870850 
	C140.526260,249.231918 141.255875,248.592987 142.658920,247.841537 
	C145.240234,245.614014 147.821548,243.386505 151.009735,241.003983 
	C152.347168,239.693649 153.684601,238.383301 155.547882,236.931046 
	C155.744339,236.634872 155.940781,236.338715 156.574295,235.906769 
	C156.852127,235.731110 157.010529,235.480087 157.538300,235.097595 
	C157.538300,235.097595 158.022797,235.011948 158.676575,234.934753 
	C159.066162,234.468430 159.455734,234.002106 160.141281,233.122604 
	C160.664413,232.703857 161.187531,232.285095 162.434967,231.896957 
	C165.169556,228.743576 167.904144,225.590210 170.831345,221.981644 
	C171.018845,221.696060 171.108383,221.382477 171.026245,221.015213 
	C171.026245,221.015213 171.045273,221.090927 171.557755,220.935883 
	C171.736053,220.638916 171.914352,220.341949 172.012238,220.022995 
	C172.012238,220.022995 172.056915,220.093384 172.561859,219.904160 
	C172.656311,219.751221 172.750748,219.598297 173.124542,219.585754 
	C173.124542,219.585754 173.393661,219.744949 174.044891,219.695190 
	C174.225357,219.338120 174.405807,218.981064 174.545807,218.604919 
	C174.545807,218.604919 174.530930,218.562698 175.206085,218.571121 
	C175.442154,217.990402 175.678238,217.409683 175.920364,216.395981 
	C175.920364,216.395981 175.867981,215.966125 175.968964,215.973511 
	C175.968964,215.973511 175.963837,215.872375 176.430130,215.768890 
	C176.735306,215.584030 176.875244,215.313629 177.082504,215.043808 
	C177.082504,215.043808 177.318588,215.119843 177.965408,214.953308 
	C179.243530,213.165054 180.521652,211.376801 181.914581,209.199722 
	C181.914581,209.199722 182.205521,208.917343 182.708267,208.388275 
	C182.838943,207.141190 182.969635,205.894119 183.702621,204.605515 
	C184.299850,204.671967 184.897095,204.738403 186.170685,204.657394 
	C186.385010,204.269608 186.599319,203.881821 186.889893,202.971268 
	C187.053726,202.661392 187.217560,202.351517 188.020432,201.912140 
	C188.920822,200.520737 189.821213,199.129333 190.831650,197.812210 
	C190.831650,197.812210 190.699341,197.823349 191.322189,197.639114 
	C191.590073,196.849930 191.857941,196.060760 192.067062,195.134995 
	C192.067062,195.134995 192.206467,195.083282 192.847275,194.902802 
	C193.179749,194.159622 193.512222,193.416428 193.991562,192.285156 
	C193.991562,192.285156 194.317932,192.028900 195.056488,191.979553 
	C195.628860,190.819031 196.201233,189.658493 196.805557,188.201294 
	C196.805557,188.201294 197.024796,187.998886 197.693329,187.897308 
	C198.491959,185.942856 199.290588,183.988403 200.143997,181.407425 
	C200.539566,180.949936 200.935135,180.492447 201.644073,179.817734 
	C201.837250,179.641830 201.970749,179.428558 202.007339,179.069046 
	C202.007339,179.069046 202.119583,179.043701 202.673355,178.959213 
	C202.812531,178.317108 202.951721,177.675018 203.231339,176.296219 
	C203.497482,175.878479 203.763626,175.460724 204.555603,174.783432 
	C205.348969,172.833542 206.142349,170.883652 206.975204,169.011093 
	C206.975204,169.011093 206.918091,168.943771 207.647629,168.861893 
	C210.084167,163.298157 212.776291,157.827408 214.848709,152.131195 
	C215.874741,149.311066 215.759735,146.075806 216.192688,142.230042 
	C216.399292,141.744522 216.605896,141.259003 216.924149,140.580322 
	C216.924149,140.580322 217.037827,140.145935 216.994400,140.058380 
	C216.994400,140.058380 217.083862,140.019058 217.756210,139.878601 
	C217.941742,138.288864 218.127258,136.699142 218.256363,134.319901 
	C218.432663,133.557571 218.608963,132.795227 219.348297,131.711395 
	C219.981064,126.155594 220.613831,120.599800 221.168365,114.191147 
	C221.395248,112.799080 221.622131,111.407005 222.413132,109.685165 
	C222.931610,108.148872 223.881165,106.617699 223.899445,105.075478 
	C224.029770,94.079033 224.106659,83.076866 223.826569,72.086052 
	C223.783508,70.396721 221.818665,68.756371 219.991211,66.792999 
	C219.522995,66.524864 219.054779,66.256729 218.606186,66.033691 
	C218.606186,66.033691 218.625885,65.983871 217.805634,65.828430 
	C217.545105,65.730652 217.284576,65.632874 216.878036,64.913864 
	C212.596756,64.536263 208.315460,64.158669 203.330093,63.796028 
	C202.901382,63.621078 202.472672,63.446129 201.803162,62.632896 
	C199.336594,62.181889 196.870010,61.730881 193.798477,61.416500 
	C193.198853,61.285789 192.599243,61.155079 191.706284,60.396679 
	C190.151123,58.555294 188.550507,56.894520 185.114716,58.896885 
	C184.280396,58.594578 183.446075,58.292267 182.594955,58.015015 
	C182.594955,58.015015 182.570847,57.947609 182.288086,57.902332 
	C182.288086,57.902332 182.096298,57.689671 181.838913,57.005440 
	C180.706863,56.755600 179.574799,56.505760 177.923447,56.270710 
	C177.620438,56.112770 177.317429,55.954830 176.859604,55.112110 
	C174.845688,54.477654 172.831772,53.843201 170.830795,53.246197 
	C170.830795,53.246197 170.791138,53.245640 170.832611,52.514389 
	C166.249466,50.330544 161.666321,48.146702 157.013123,45.986622 
	C157.013123,45.986622 157.034180,45.915707 156.938339,45.229942 
	C154.208038,43.571392 151.477722,41.912846 148.828445,40.174679 
	C148.828445,40.174679 148.848068,40.286572 148.578613,39.635933 
	C147.920532,39.484653 147.262436,39.333374 146.138992,38.952801 
	C145.763489,38.596355 145.387985,38.239910 144.920135,37.194813 
	C143.838715,36.586468 142.757278,35.978119 141.710632,35.353165 
	C141.710632,35.353165 141.708084,35.314709 141.666260,34.740009 
	C141.337341,34.596569 141.008438,34.453129 140.817825,34.147629 
	C140.817825,34.147629 140.740738,34.346249 140.611206,33.666512 
	C135.885361,28.835882 131.300201,23.852964 126.342674,19.273130 
	C124.965469,18.000841 122.254120,17.055773 120.564636,17.504265 
	C118.123726,18.152231 115.783546,19.920252 113.885811,21.721737 
	C109.761726,25.636642 105.944839,29.875156 101.642235,34.447571 
	C101.055679,34.949867 100.469131,35.452168 99.185509,35.975193 
	C98.117958,36.937042 97.050407,37.898895 95.749794,39.111355 
	C95.749794,39.111355 95.415871,39.186283 94.633713,39.088947 
	C93.082504,40.364906 91.531288,41.640869 89.607834,43.401852 
	C89.237457,43.559189 88.867088,43.716522 88.237114,43.944141 
	C88.237114,43.944141 87.981689,44.034435 87.261101,44.016666 
	C85.502640,45.271202 83.744179,46.525734 81.724190,48.066898 
	C81.724190,48.066898 81.348228,48.162899 80.525909,48.074528 
	C73.679092,51.286507 66.832275,54.498486 59.403698,57.915764 
	C59.198254,57.924831 58.992809,57.933895 57.983967,57.955284 
	C55.536198,58.514503 52.170448,56.596508 50.360653,61.003090 
	C49.104595,61.093334 47.848541,61.183578 45.774246,61.124378 
	C44.492462,61.674301 43.210678,62.224224 41.722431,62.945465 
	C41.722431,62.945465 41.454166,62.948257 41.442650,62.991932 
	C41.442650,62.991932 41.371578,63.005878 40.633617,63.522671 
	C39.742279,63.604778 38.850937,63.686890 37.339340,63.293072 
	C32.900444,64.066078 28.461550,64.839081 23.847809,65.876755 
	C23.847809,65.876755 23.535534,65.932487 22.954180,66.139557 
	C21.963856,67.688858 20.973532,69.238159 19.949694,71.407303 
	C19.887383,71.604614 19.825069,71.801926 19.017185,72.229401 
	C18.698757,72.771126 18.106199,73.310997 18.102528,73.854851 
	C18.034311,83.957161 17.982513,94.060631 18.111023,104.161514 
	C18.123150,105.114731 19.361523,106.052353 20.187340,107.635780 
	C20.439730,108.432404 20.692122,109.229019 20.864277,110.902054 
	C20.997065,112.946426 21.129854,114.990807 21.134609,117.678185 
	C21.364799,118.475464 21.594990,119.272751 21.774073,120.816689 
	C21.924242,121.542046 22.074411,122.267395 22.064381,123.765617 
	C22.648355,125.692528 23.232328,127.619446 23.584068,130.303375 
	C24.068771,132.871078 24.553473,135.438797 24.955006,138.651657 
	C25.266500,139.189163 25.577993,139.726669 25.847725,140.865265 
	C25.947855,141.251038 26.047985,141.636795 26.067266,142.743912 
	C26.658962,144.327560 27.250660,145.911194 27.709013,147.753479 
	C27.709013,147.753479 27.897324,147.975311 27.987108,148.619003 
	C28.277708,148.932663 28.568308,149.246323 28.664856,150.181961 
	C29.038836,151.147247 29.412815,152.112549 29.781803,153.743210 
	C29.900684,154.168228 30.019567,154.593246 30.138449,155.573593 
	C30.383301,155.840042 30.628151,156.106476 30.860817,156.946030 
	C30.976025,157.308731 31.091234,157.671448 31.112064,158.619278 
	C31.403074,159.089752 31.694086,159.560211 32.031616,160.616226 
	C32.353470,161.078384 32.675323,161.540558 33.017239,162.734146 
	C33.991302,164.870438 34.965366,167.006714 35.981373,169.618866 
	C35.981373,169.618866 36.224174,170.030258 36.225883,170.530823 
	C36.462215,170.748245 36.698547,170.965668 37.010948,171.661652 
	C37.010948,171.661652 37.304359,172.047287 37.275024,172.512787 
	C37.364956,172.858826 37.587662,173.051498 37.987957,173.023254 
z"/>
<path fill="#FCFDFE" opacity="1.000000" stroke="none" 
	d="
M221.849014,110.014938 
	C221.622131,111.407005 221.395248,112.799080 221.080963,115.005264 
	C220.257462,121.223892 219.521347,126.628395 218.785248,132.032898 
	C218.608963,132.795227 218.432663,133.557571 217.999756,134.951355 
	C217.523392,137.061554 217.303635,138.540314 217.083862,140.019058 
	C217.083862,140.019058 216.994400,140.058380 216.866516,140.156342 
	C216.738632,140.254288 216.603928,140.538406 216.603928,140.538406 
	C216.603928,140.538406 216.812500,140.773483 216.812500,140.773483 
	C216.605896,141.259003 216.399292,141.744522 215.987183,142.937256 
	C212.827148,152.077576 209.872620,160.510666 206.918091,168.943771 
	C206.918091,168.943771 206.975204,169.011093 206.704926,169.177551 
	C205.633026,171.243668 204.831390,173.143311 204.029755,175.042969 
	C203.763626,175.460724 203.497482,175.878479 202.900696,176.818329 
	C202.419891,177.908188 202.269730,178.475937 202.119568,179.043701 
	C202.119583,179.043701 202.007339,179.069046 201.831253,179.191559 
	C201.404297,179.490097 201.296143,179.730392 201.330704,180.034958 
	C200.935135,180.492447 200.539566,180.949936 199.835541,181.909668 
	C198.692978,184.274246 197.858902,186.136566 197.024811,187.998886 
	C197.024796,187.998886 196.805557,188.201294 196.484314,188.480331 
	C195.548019,189.849213 194.932968,190.939056 194.317932,192.028900 
	C194.317932,192.028900 193.991562,192.285156 193.617172,192.593597 
	C192.897339,193.629105 192.551895,194.356186 192.206451,195.083282 
	C192.206467,195.083282 192.067062,195.134995 191.831650,195.360474 
	C191.297272,196.331757 190.998306,197.077560 190.699341,197.823349 
	C190.699341,197.823349 190.831650,197.812210 190.482635,197.895233 
	C189.216217,199.332733 188.298813,200.687195 187.381409,202.041656 
	C187.217560,202.351517 187.053726,202.661392 186.563354,203.374634 
	C185.989319,204.120285 185.741821,204.462570 185.494324,204.804840 
	C184.897095,204.738403 184.299850,204.671967 183.265762,204.337189 
	C182.480576,203.714981 182.192352,203.251389 181.775299,203.022980 
	C159.197296,190.656265 136.608475,178.309311 113.741203,165.680847 
	C107.622635,162.159561 101.783607,158.917755 95.818024,155.510254 
	C95.473618,155.152237 95.219772,155.045288 94.674500,154.999481 
	C94.267632,154.895767 94.116188,154.816269 93.851990,154.565399 
	C93.543922,154.187393 93.306297,154.059082 92.743576,153.903229 
	C91.961914,153.457382 91.463028,153.117416 90.829773,152.589890 
	C90.457039,152.183777 90.176239,152.068115 89.558990,151.946930 
	C88.176056,151.220444 87.087128,150.602386 85.832809,149.742935 
	C85.122215,149.331970 84.577003,149.162399 83.744675,148.936707 
	C83.284576,148.790497 83.111603,148.700378 82.820770,148.462738 
	C82.507622,148.143127 82.281136,148.038605 81.727577,147.889069 
	C80.929115,147.390930 80.426537,147.005356 79.789970,146.465836 
	C79.430267,146.138351 79.175003,146.050568 78.590561,145.938217 
	C76.814590,145.004227 75.338264,144.180557 73.861572,142.966293 
	C72.571976,142.050034 71.282745,141.524368 69.812180,140.889130 
	C69.390656,140.628174 69.169754,140.452545 68.953148,139.886810 
	C68.008774,138.479507 67.079407,137.438049 66.150040,136.396576 
	C65.746536,137.018143 65.343025,137.639709 64.617233,138.180710 
	C63.179615,137.432495 62.064281,136.764847 60.953613,135.764114 
	C60.937508,135.210098 60.916740,134.989151 60.881691,134.338501 
	C60.890919,131.330093 60.914425,128.751419 60.887360,125.935905 
	C60.700222,125.390327 60.478241,125.166237 59.996449,124.746208 
	C58.879063,123.287552 57.936069,122.109489 56.888054,120.725555 
	C56.590805,120.268456 56.348358,120.082802 55.997887,119.605865 
	C53.847500,118.212204 51.754925,117.175407 49.260201,116.162140 
	C46.713512,116.169136 44.568974,116.152588 42.126160,116.170929 
	C41.548851,116.475647 41.269821,116.745476 40.851738,117.099030 
	C40.712685,117.182755 40.392567,117.128815 40.096008,117.169647 
	C39.540199,117.495590 39.280941,117.780708 38.894505,118.291382 
	C38.462257,118.670494 38.157185,118.824051 37.682835,119.062721 
	C37.298100,119.293037 37.140022,119.485397 36.863365,119.857552 
	C36.687408,119.990189 36.262913,120.108589 35.906330,120.109497 
	C35.026253,121.005264 34.502758,121.900116 33.801575,123.108749 
	C33.055233,125.280449 32.486580,127.138390 31.578682,129.065338 
	C29.365011,130.851410 29.265633,132.212204 32.173492,133.293243 
	C32.878983,134.786911 33.426472,135.988480 34.046364,137.339005 
	C34.237221,137.680313 34.395466,137.830887 34.715649,138.191895 
	C34.894066,138.622330 34.950340,138.800491 35.104973,139.201889 
	C35.393257,139.704575 35.648018,139.899155 35.985622,140.003784 
	C36.003635,139.998718 35.990513,140.033768 36.094879,140.245544 
	C36.390408,140.721436 36.640190,140.906418 37.227314,141.133087 
	C37.998123,141.609024 38.490208,141.964157 39.061100,142.630890 
	C40.078648,143.299896 41.017391,143.657318 42.291374,144.019241 
	C43.071716,143.990479 43.516819,143.957214 44.221973,144.219147 
	C50.083538,145.364197 50.534252,144.968903 49.134705,140.903214 
	C47.744469,141.583832 46.326828,142.277878 44.949860,142.743225 
	C44.990528,142.514542 44.977741,142.050171 44.938431,141.702103 
	C43.948318,140.895370 42.997513,140.436722 42.025955,139.991486 
	C42.005207,140.004913 42.017529,139.957077 42.006531,139.596527 
	C39.723240,136.487350 37.450947,133.738724 35.104664,130.662537 
	C35.091518,129.894943 35.152367,129.454941 35.547581,128.963821 
	C37.782661,127.706535 40.358070,126.748878 37.828110,123.571335 
	C38.908531,122.494080 39.897663,121.722534 41.105717,120.900681 
	C41.610352,120.724831 41.822712,120.522385 42.213509,120.142036 
	C42.645500,120.025719 42.825699,120.010384 43.280186,119.992592 
	C44.019608,119.745209 44.484745,119.500275 45.331135,119.176193 
	C46.485786,119.146103 47.259178,119.195168 48.200653,119.516060 
	C51.344582,122.157890 54.320427,124.527885 57.507294,127.195801 
	C57.533936,129.669006 57.349552,131.844299 56.761662,134.022095 
	C55.594307,135.396500 54.830456,136.768372 53.947151,138.363251 
	C53.523556,138.720612 53.219410,138.854980 52.709190,139.095551 
	C52.248215,139.397568 52.077324,139.650238 51.967270,140.233902 
	C51.920959,140.689987 51.897820,140.871933 51.631374,141.266907 
	C51.842247,142.178741 52.483292,143.541168 52.721786,143.473999 
	C55.186714,142.779922 57.586655,141.855072 60.305107,141.045044 
	C61.446064,141.625092 62.286587,142.154541 63.117149,143.021454 
	C63.787487,143.449066 64.467796,143.539215 65.486412,143.704071 
	C66.699303,144.444321 67.573883,145.109848 68.070084,145.937515 
	C62.151443,147.073868 56.607635,148.028580 51.072567,149.031479 
	C48.723640,149.457108 46.260544,150.870483 44.562717,147.715546 
	C44.350338,147.320892 42.970787,147.175110 42.355495,147.437668 
	C38.132622,149.239670 33.969292,151.181213 29.786795,153.077835 
	C29.412815,152.112549 29.038836,151.147247 28.723724,149.540680 
	C28.487505,148.591385 28.192415,148.283340 27.897324,147.975311 
	C27.897324,147.975311 27.709013,147.753479 27.821457,147.216370 
	C27.338638,145.127014 26.743376,143.574799 26.148113,142.022568 
	C26.047985,141.636795 25.947855,141.251038 25.891281,140.239105 
	C25.635950,139.077469 25.337063,138.541992 25.038177,138.006500 
	C24.553473,135.438797 24.068771,132.871078 23.751690,129.476196 
	C23.354403,126.763588 22.789490,124.878166 22.224579,122.992752 
	C22.074411,122.267395 21.924242,121.542046 22.055805,120.301743 
	C21.979240,118.869591 21.620941,117.952385 21.262642,117.035179 
	C21.129854,114.990807 20.997065,112.946426 21.211651,110.174820 
	C21.705715,107.330475 21.965813,105.214104 21.979923,103.096100 
	C22.049780,92.610497 22.054651,82.124458 22.328131,71.660126 
	C22.573833,71.681671 22.986916,71.951302 23.153500,72.209122 
	C23.700037,72.598427 24.079990,72.729904 24.603100,72.825638 
	C24.746252,72.789894 24.991764,72.953613 25.141550,73.307251 
	C25.925344,76.656616 27.774954,77.558273 30.897640,76.698273 
	C31.824293,77.000328 32.469379,77.356018 33.109173,78.046967 
	C33.784870,78.464043 34.465862,78.545868 35.477364,78.711075 
	C36.221268,78.980499 36.634659,79.166534 37.151451,79.503006 
	C37.427715,79.833199 37.633289,79.959877 37.920372,80.024582 
	C37.969166,80.015678 37.977417,80.114525 38.127647,80.328232 
	C38.597111,80.665787 38.916344,80.789635 39.519173,80.919769 
	C40.206055,81.282524 40.609348,81.638969 41.148041,82.238380 
	C41.618462,82.622231 41.953476,82.763115 42.485130,82.902420 
	C42.681770,82.900841 43.016758,83.106888 43.165287,83.324860 
	C43.638538,83.661530 43.963261,83.780228 44.629398,83.938332 
	C46.994942,85.079086 49.019066,86.180428 51.153152,87.448380 
	C51.454453,87.813988 51.685379,87.941177 51.982368,87.994011 
	C52.008850,87.991470 52.005978,88.044601 52.128510,88.269615 
	C52.550117,88.646355 52.849194,88.798088 53.380123,88.965424 
	C53.611977,88.981026 54.026112,89.191971 54.163139,89.386238 
	C54.542664,89.810555 54.831013,89.929779 55.402184,89.989624 
	C55.639145,90.041061 56.049873,90.298904 56.198769,90.474197 
	C56.604404,90.846695 56.894257,90.933586 57.530846,90.963684 
	C58.896549,91.677269 59.948631,92.337349 61.162128,93.246170 
	C61.876324,93.663277 62.429104,93.831642 62.992180,93.997879 
	C63.002472,93.995750 63.004517,94.016640 63.128014,94.246994 
	C63.555534,94.633545 63.859562,94.789742 64.394608,94.971382 
	C64.625633,94.996819 65.033028,95.220634 65.164841,95.412033 
	C65.528923,95.826775 65.804039,95.964783 66.428474,96.152664 
	C68.834160,97.276703 70.933357,98.265526 73.148232,99.429016 
	C73.463974,99.813866 73.706711,99.945259 74.282654,100.118843 
	C75.072174,100.624153 75.571167,101.008484 76.201401,101.542831 
	C76.549767,101.863838 76.796288,101.957962 77.399719,102.085495 
	C89.013695,108.437042 100.322914,114.637604 111.579613,120.932091 
	C121.083160,126.246262 130.525772,131.669388 139.996307,137.477753 
	C140.465988,140.000183 140.934723,142.089142 141.385544,144.498734 
	C142.307510,146.746613 143.247375,148.673859 144.049408,150.938202 
	C144.131729,152.178909 144.166595,153.762039 144.600815,153.880447 
	C148.699432,154.997940 153.037964,157.017838 156.957611,156.433151 
	C159.975601,155.982971 165.669037,157.209900 166.167145,150.782928 
	C170.849167,145.412033 170.703690,139.909012 167.931458,133.821579 
	C167.353836,132.980652 166.781494,132.461151 165.965439,131.857437 
	C165.552780,131.741608 165.383835,131.709991 165.064041,131.472229 
	C164.597839,130.870834 164.282471,130.475586 163.924057,129.715942 
	C162.856125,128.928711 161.831223,128.505875 160.453613,128.080109 
	C158.727295,127.791328 157.353714,127.505501 155.959442,126.861855 
	C155.194412,125.775589 154.450043,125.047150 153.705673,124.318710 
	C153.125137,125.401932 152.544601,126.485146 151.700928,127.698189 
	C151.067291,127.942833 150.696762,128.057648 149.928131,128.124329 
	C146.477127,129.136002 143.424225,130.195786 140.026733,131.254684 
	C134.287872,128.387619 128.850784,125.598793 123.506363,122.642487 
	C92.665039,105.582397 61.831776,88.507576 31.043089,71.352821 
	C28.365213,69.860771 26.029943,67.753822 23.535534,65.932487 
	C23.535534,65.932487 23.847809,65.876755 24.354408,65.810364 
	C29.227203,65.085648 33.593403,64.427322 37.959599,63.769005 
	C38.850937,63.686890 39.742279,63.604778 41.006004,63.371925 
	C41.378391,63.221176 41.454166,62.948257 41.454166,62.948257 
	C41.454166,62.948257 41.722431,62.945465 42.195107,62.939644 
	C43.976021,62.380489 45.284252,61.827160 46.592484,61.273827 
	C47.848541,61.183578 49.104595,61.093334 51.035255,60.825748 
	C54.069027,59.746590 56.428196,58.844772 58.787369,57.942955 
	C58.992809,57.933895 59.198254,57.924831 60.069206,57.876011 
	C67.605888,54.611805 74.477058,51.387352 81.348228,48.162899 
	C81.348228,48.162899 81.724190,48.066898 82.201904,47.902878 
	C84.444817,46.602322 86.210014,45.465782 88.127266,44.359112 
	C88.515427,44.286629 88.587898,44.114922 88.496712,43.873856 
	C88.867088,43.716522 89.237457,43.559189 90.134521,43.132324 
	C92.246094,41.637295 93.830978,40.411789 95.415871,39.186283 
	C95.415871,39.186283 95.749794,39.111355 96.195847,38.957695 
	C97.722122,37.854176 98.802353,36.904320 99.882576,35.954464 
	C100.469131,35.452168 101.055679,34.949867 102.159538,34.151821 
	C107.341530,29.658710 112.157555,25.614714 116.619560,21.211937 
	C119.776894,18.096506 122.146523,18.077063 125.408699,21.197784 
	C130.266510,25.844938 135.606140,29.988434 140.740738,34.346249 
	C140.740738,34.346249 140.817825,34.147629 140.824158,34.478333 
	C141.123032,34.977592 141.415558,35.146149 141.708084,35.314709 
	C141.708084,35.314709 141.710632,35.353165 141.796478,35.656670 
	C142.925705,36.601276 143.969086,37.242371 145.012466,37.883465 
	C145.387985,38.239910 145.763489,38.596355 146.565521,39.336647 
	C147.610718,39.909187 148.229401,40.097878 148.848068,40.286572 
	C148.848068,40.286572 148.828445,40.174679 148.909515,40.520912 
	C151.671768,42.549995 154.352982,44.232849 157.034180,45.915703 
	C157.034180,45.915707 157.013123,45.986622 157.130157,46.297783 
	C161.761856,48.821175 166.276489,51.033405 170.791138,53.245640 
	C170.791138,53.245640 170.830795,53.246197 171.013489,53.509247 
	C173.135590,54.447159 175.075012,55.122025 177.014420,55.796890 
	C177.317429,55.954830 177.620438,56.112770 178.389465,56.548508 
	C179.935760,57.114094 181.016022,57.401882 182.096298,57.689671 
	C182.096298,57.689671 182.288086,57.902332 182.386765,58.019905 
	C182.485443,58.137482 182.611755,57.989956 182.611755,57.989956 
	C183.446075,58.292267 184.280396,58.594578 185.773712,59.178200 
	C188.288361,59.981136 190.143982,60.502750 191.999619,61.024368 
	C192.599243,61.155079 193.198853,61.285789 194.336060,61.635689 
	C197.263763,62.326977 199.653854,62.799076 202.043961,63.271179 
	C202.472672,63.446129 202.901382,63.621078 204.042480,63.955467 
	C208.844589,64.588295 212.934311,65.061691 217.024033,65.535088 
	C217.284576,65.632874 217.545105,65.730652 218.146942,65.963264 
	C218.488251,66.098099 218.586563,65.988594 218.586563,65.988594 
	C219.054779,66.256729 219.522995,66.524864 220.472809,67.400681 
	C221.166672,71.785744 221.507751,75.561134 221.566315,79.340904 
	C221.724747,89.564590 221.763062,99.790131 221.849014,110.014938 
z"/>
<path fill="#FEFEFE" opacity="1.000000" stroke="none" 
	d="
M29.784298,153.410522 
	C33.969292,151.181213 38.132622,149.239670 42.355495,147.437668 
	C42.970787,147.175110 44.350338,147.320892 44.562717,147.715546 
	C46.260544,150.870483 48.723640,149.457108 51.072567,149.031479 
	C56.607635,148.028580 62.151443,147.073868 68.346848,145.977386 
	C69.348724,145.998764 69.695450,146.142410 70.160004,146.456573 
	C70.483147,146.827194 70.726830,146.953079 71.196411,147.112335 
	C71.627327,147.380081 71.838242,147.575333 72.071899,148.198730 
	C73.527718,149.014740 74.928307,149.437683 76.523422,149.899857 
	C76.717949,149.939087 77.030014,150.184326 77.194870,150.390640 
	C77.695251,150.687485 78.030777,150.778030 78.546967,150.893356 
	C78.727631,150.918152 78.984779,151.176773 79.028275,151.510895 
	C80.434898,153.655457 81.699127,155.554611 83.207146,157.235016 
	C83.860703,157.963257 85.016663,158.240646 85.944412,158.722824 
	C86.315857,157.725800 86.687302,156.728790 87.382599,155.813873 
	C88.807640,156.589233 89.908821,157.282471 91.059242,158.328003 
	C92.100471,159.108292 93.092461,159.536255 94.336884,160.011581 
	C94.740021,160.140244 94.890717,160.221527 95.178970,160.474762 
	C95.551575,160.845596 95.823059,160.946960 96.439980,161.005341 
	C97.828560,161.686584 98.908150,162.313324 100.145004,163.195923 
	C100.854515,163.640015 101.406761,163.828201 101.977142,164.005051 
	C101.995285,163.993698 101.988739,164.035950 102.046425,164.379120 
	C103.079430,165.139511 104.054749,165.556732 105.014183,165.985992 
	C104.998299,165.998001 105.023972,165.965912 105.075653,166.336578 
	C106.206917,167.087555 107.286484,167.467850 108.539337,167.838852 
	C108.712624,167.829544 109.001038,168.022614 109.166428,168.263947 
	C109.696739,168.623322 110.061668,168.741364 110.710739,168.870941 
	C111.342178,169.027588 111.689476,169.172653 112.146637,169.478729 
	C112.443016,169.833038 112.667534,169.958252 113.227982,170.079437 
	C113.705780,170.238037 113.885635,170.332535 114.179520,170.566803 
	C114.480743,170.869263 114.696938,170.969406 114.970360,170.999557 
	C114.998581,170.992157 114.998840,171.050507 115.109833,171.268692 
	C115.432213,171.754501 115.703949,171.927231 116.338005,172.161758 
	C119.756348,173.908585 122.872719,175.498688 126.002396,177.473236 
	C127.416100,178.539932 128.816498,179.222214 130.438660,179.953278 
	C130.660400,180.002029 131.038528,180.253464 131.192139,180.439911 
	C131.614792,180.836502 131.919373,180.926254 132.586487,180.956207 
	C134.283722,181.742203 135.653976,182.467621 137.135834,183.380859 
	C137.448669,183.796326 137.698441,183.939056 138.325073,184.112167 
	C144.752960,187.556732 150.901855,190.799377 156.940186,194.236237 
	C165.405075,199.054199 173.787704,204.016678 182.205521,208.917343 
	C182.205521,208.917343 181.914581,209.199722 181.550720,209.530212 
	C179.897430,211.613754 178.608017,213.366806 177.318588,215.119843 
	C177.318588,215.119843 177.082504,215.043808 176.777618,215.109879 
	C176.236359,215.359329 176.066727,215.591476 175.963837,215.872375 
	C175.963837,215.872375 175.968964,215.973511 175.732819,216.064392 
	C175.263702,216.319580 175.087982,216.531387 174.893173,217.088318 
	C174.721542,217.778183 174.626236,218.170441 174.530930,218.562698 
	C174.530930,218.562698 174.545807,218.604919 174.286560,218.692764 
	C173.816101,219.102051 173.604874,219.423492 173.393646,219.744949 
	C173.393661,219.744949 173.124542,219.585754 172.831177,219.467285 
	C172.195648,219.461914 172.035355,219.710098 172.056915,220.093384 
	C172.056915,220.093384 172.012238,220.022995 171.805847,220.125259 
	C171.414719,220.515320 171.230011,220.803131 171.045288,221.090942 
	C171.045273,221.090927 171.026245,221.015213 170.710541,221.144135 
	C166.637741,222.248215 163.212708,223.540817 163.501984,228.440933 
	C163.452957,228.450470 163.439163,228.549393 163.072113,228.394714 
	C161.147766,230.174118 159.590469,232.108200 158.025452,234.025406 
	C158.017715,234.008530 158.047440,234.020020 157.805420,234.132370 
	C157.392105,234.547729 157.220810,234.850723 157.049515,235.153717 
	C157.010529,235.480087 156.852127,235.731110 156.101135,236.060974 
	C155.425980,236.501099 155.223999,236.787018 155.022034,237.072937 
	C153.684601,238.383301 152.347168,239.693649 150.296890,241.036896 
	C145.477692,241.627808 142.053329,242.938538 141.985489,247.954071 
	C141.255875,248.592987 140.526260,249.231918 139.114716,249.958145 
	C135.569519,250.489578 132.422928,250.616364 132.990738,254.903809 
	C132.373047,255.318497 131.755341,255.733185 130.426544,256.122009 
	C127.961159,256.747742 125.856400,256.993164 124.528664,258.138977 
	C122.087082,260.245972 120.297356,260.412323 117.645958,258.348724 
	C115.897156,256.987610 113.291649,256.727203 111.069733,255.973969 
	C110.536751,255.688065 110.003777,255.402145 109.101913,254.760681 
	C108.522339,254.184006 108.265480,254.054352 107.962425,254.016144 
	C107.373871,253.579269 106.785324,253.142395 105.927475,252.157867 
	C105.256485,251.456848 104.854790,251.303467 104.453094,251.150101 
	C104.453094,251.150101 104.197441,251.240005 103.985832,250.904663 
	C103.470543,250.404129 103.166862,250.238937 102.863174,250.073761 
	C102.863174,250.073761 102.945145,250.054153 102.836823,249.829941 
	C102.402382,249.431793 102.076271,249.257874 101.750160,249.083954 
	C101.750160,249.083954 101.334076,248.971558 101.169952,248.469131 
	C99.855690,242.963150 96.633705,240.817566 91.610962,241.155960 
	C89.846878,239.639648 88.082794,238.123322 86.043869,236.092987 
	C85.475243,235.404419 85.181465,235.229843 84.887680,235.055267 
	C84.887680,235.055283 84.966896,235.033234 84.867462,234.822723 
	C84.478424,234.423859 84.188812,234.235504 83.899193,234.047150 
	C83.899193,234.047150 83.975983,234.025040 83.874756,233.814087 
	C83.484177,233.416687 83.194824,233.230240 82.905472,233.043793 
	C82.905472,233.043793 82.989334,233.021790 82.985802,232.664932 
	C82.190605,228.633850 76.765152,223.677826 72.858444,223.060196 
	C72.526787,223.022568 72.273506,222.861633 71.941063,222.102356 
	C71.493240,221.432587 71.202942,221.237823 70.912643,221.043060 
	C70.912643,221.043060 70.985748,221.014679 70.886414,220.808487 
	C70.516640,220.404236 70.246201,220.206177 69.975769,220.008118 
	C67.411171,217.150024 64.846565,214.291931 62.154457,210.753204 
	C60.302212,208.083710 58.577465,206.094833 56.852715,204.105972 
	C56.852715,204.105972 56.937637,204.004929 56.946831,203.685440 
	C56.214214,202.613068 55.472401,201.860184 54.730583,201.107300 
	C54.417885,201.067841 54.179451,200.913574 53.993919,200.005798 
	C54.354130,196.476624 53.677372,194.503769 50.171875,194.983505 
	C50.171875,194.983505 49.899849,194.718781 49.922394,194.138153 
	C49.253868,192.721970 48.562805,191.886414 47.871742,191.050842 
	C47.631763,190.835968 47.391788,190.621094 47.087502,189.764023 
	C46.926178,186.799927 47.429497,184.086365 43.748627,184.102539 
	C43.533451,183.852905 43.318272,183.603287 43.000687,182.946335 
	C42.786003,182.332825 42.626053,182.174973 42.418434,182.065414 
	C42.303890,181.926971 42.189342,181.788513 41.970016,181.164398 
	C41.743374,180.385635 41.539524,180.170120 41.253693,180.032181 
	C41.253693,180.032181 41.004902,179.603165 40.980049,179.036530 
	C40.610748,177.974518 40.266300,177.479156 39.921852,176.983780 
	C39.921852,176.983780 39.746216,176.777771 39.761330,176.326263 
	C39.476795,175.575027 39.177147,175.275314 38.877499,174.975586 
	C38.877499,174.975586 38.719261,174.776993 38.752716,174.344971 
	C38.493610,173.621719 38.201046,173.330505 37.908485,173.039276 
	C37.908485,173.039276 37.987957,173.023254 37.928085,172.845520 
	C37.759434,172.388977 37.571480,172.182144 37.304359,172.047287 
	C37.304359,172.047287 37.010948,171.661652 36.934334,171.186890 
	C36.736431,170.401276 36.525249,170.173981 36.224174,170.030258 
	C36.224174,170.030258 35.981373,169.618866 35.984451,168.957779 
	C35.678463,165.871948 37.184780,162.584702 32.997177,162.002716 
	C32.675323,161.540558 32.353470,161.078384 32.009636,160.039368 
	C31.727249,158.986404 31.466846,158.510269 31.206444,158.034149 
	C31.091234,157.671448 30.976025,157.308731 30.845371,156.385529 
	C30.599432,155.556107 30.368940,155.287186 30.138449,155.018265 
	C30.019567,154.593246 29.900684,154.168228 29.784298,153.410522 
z"/>
<path fill="#6484C0" opacity="1.000000" stroke="none" 
	d="
M61.000717,92.997421 
	C59.948631,92.337349 58.896549,91.677269 57.405205,90.756958 
	C56.692471,90.282997 56.387115,90.217056 56.049873,90.298904 
	C56.049873,90.298904 55.639145,90.041061 55.291798,89.764694 
	C54.638336,89.389534 54.332226,89.290749 54.026112,89.191971 
	C54.026112,89.191971 53.611977,88.981026 53.245964,88.749306 
	C52.588623,88.359924 52.297302,88.202263 52.005981,88.044601 
	C52.005978,88.044601 52.008850,87.991470 51.918190,87.777878 
	C51.642643,87.257523 51.381195,87.163361 51.043190,87.281776 
	C49.019066,86.180428 46.994942,85.079086 44.476952,83.720123 
	C43.660976,83.343971 43.338867,83.225433 43.016758,83.106888 
	C43.016758,83.106888 42.681770,82.900841 42.321266,82.686935 
	C41.644722,82.313820 41.328682,82.154625 41.012638,81.995422 
	C40.609348,81.638969 40.206055,81.282524 39.376244,80.697266 
	C38.625618,80.350479 38.301517,80.232498 37.977417,80.114525 
	C37.977417,80.114525 37.969166,80.015678 37.865158,79.829056 
	C37.587963,79.387177 37.350262,79.290550 37.048050,79.352570 
	C36.634659,79.166534 36.221268,78.980499 35.285912,78.494781 
	C34.214123,78.033974 33.664295,77.872841 33.114464,77.711708 
	C32.469379,77.356018 31.824293,77.000328 30.729851,76.381012 
	C28.517584,75.062805 26.754675,74.008209 24.991764,72.953613 
	C24.991764,72.953613 24.746252,72.789894 24.417507,72.584122 
	C23.721481,72.235992 23.354198,72.093651 22.986916,71.951302 
	C22.986916,71.951302 22.573833,71.681671 22.126766,71.448486 
	C21.114202,71.072685 20.548708,70.930077 19.983212,70.787460 
	C20.973532,69.238159 21.963856,67.688858 23.244858,66.036026 
	C26.029943,67.753822 28.365213,69.860771 31.043089,71.352821 
	C61.831776,88.507576 92.665039,105.582397 123.506363,122.642487 
	C128.850784,125.598793 134.287872,128.387619 140.165085,131.588013 
	C142.321686,136.818314 144.820908,130.137436 146.899567,132.632111 
	C145.504471,134.815491 144.044846,137.099838 142.602127,139.357742 
	C141.836777,138.678528 140.916077,137.861420 139.995361,137.044296 
	C130.525772,131.669388 121.083160,126.246262 111.579613,120.932091 
	C100.322914,114.637604 89.013695,108.437042 77.304886,101.883781 
	C76.656044,101.310844 76.385254,101.251183 76.070160,101.392815 
	C75.571167,101.008484 75.072174,100.624153 74.214111,99.899765 
	C73.643005,99.290634 73.368843,99.188850 73.032562,99.254349 
	C70.933357,98.265526 68.834160,97.276703 66.339355,95.914131 
	C65.640182,95.433807 65.336601,95.327225 65.033028,95.220642 
	C65.033028,95.220634 64.625633,94.996819 64.269928,94.740311 
	C63.610985,94.328079 63.307751,94.172363 63.004517,94.016640 
	C63.004517,94.016640 63.002472,93.995750 62.840023,93.742630 
	C62.118622,93.325485 61.559669,93.161453 61.000717,92.997421 
z"/>
<path fill="#6486C2" opacity="1.000000" stroke="none" 
	d="
M131.038528,180.253464 
	C131.038528,180.253464 130.660400,180.002029 130.255737,179.683014 
	C128.563751,178.605606 127.276421,177.847214 125.989090,177.088806 
	C122.872719,175.498688 119.756348,173.908585 116.254646,171.918182 
	C115.579163,171.362091 115.289001,171.206299 114.998840,171.050507 
	C114.998840,171.050507 114.998581,170.992157 114.905563,170.806305 
	C114.607155,170.387573 114.358139,170.323105 114.065491,170.427048 
	C113.885635,170.332535 113.705780,170.238037 113.192062,169.855484 
	C112.858192,169.567413 112.731850,169.131622 112.999908,168.972229 
	C113.518898,167.862000 113.769829,166.911163 114.020752,165.960342 
	C136.608475,178.309311 159.197296,190.656265 181.775299,203.022980 
	C182.192352,203.251389 182.480576,203.714981 182.964615,204.357941 
	C182.969635,205.894119 182.838943,207.141190 182.456894,208.652802 
	C173.787704,204.016678 165.405075,199.054199 156.940186,194.236237 
	C150.901855,190.799377 144.752960,187.556732 138.242401,183.895660 
	C137.634247,183.283783 137.365173,183.160156 137.024216,183.193039 
	C135.653976,182.467621 134.283722,181.742203 132.451172,180.744400 
	C131.672089,180.399170 131.355301,180.326309 131.038528,180.253464 
z"/>
<path fill="#6486C2" opacity="1.000000" stroke="none" 
	d="
M222.131073,109.850052 
	C221.763062,99.790131 221.724747,89.564590 221.566315,79.340904 
	C221.507751,75.561134 221.166672,71.785744 220.848526,67.550858 
	C221.818665,68.756371 223.783508,70.396721 223.826569,72.086052 
	C224.106659,83.076866 224.029770,94.079033 223.899445,105.075478 
	C223.881165,106.617699 222.931610,108.148872 222.131073,109.850052 
z"/>
<path fill="#6486C2" opacity="1.000000" stroke="none" 
	d="
M140.675964,34.006378 
	C135.606140,29.988434 130.266510,25.844938 125.408699,21.197784 
	C122.146523,18.077063 119.776894,18.096506 116.619560,21.211937 
	C112.157555,25.614714 107.341530,29.658710 102.339607,33.918724 
	C105.944839,29.875156 109.761726,25.636642 113.885811,21.721737 
	C115.783546,19.920252 118.123726,18.152231 120.564636,17.504265 
	C122.254120,17.055773 124.965469,18.000841 126.342674,19.273130 
	C131.300201,23.852964 135.885361,28.835882 140.675964,34.006378 
z"/>
<path fill="#F2F7FC" opacity="1.000000" stroke="none" 
	d="
M19.966454,71.097382 
	C20.548708,70.930077 21.114202,71.072685 21.881063,71.426941 
	C22.054651,82.124458 22.049780,92.610497 21.979923,103.096100 
	C21.965813,105.214104 21.705715,107.330475 21.251766,109.736618 
	C20.692122,109.229019 20.439730,108.432404 20.203535,106.855087 
	C20.067406,94.716011 19.915083,83.357620 19.762758,71.999237 
	C19.825069,71.801926 19.887383,71.604614 19.966454,71.097382 
z"/>
<path fill="#5F81BF" opacity="1.000000" stroke="none" 
	d="
M19.389973,72.114319 
	C19.915083,83.357620 20.067406,94.716011 20.125156,106.535805 
	C19.361523,106.052353 18.123150,105.114731 18.111023,104.161514 
	C17.982513,94.060631 18.034311,83.957161 18.102528,73.854851 
	C18.106199,73.310997 18.698757,72.771126 19.389973,72.114319 
z"/>
<path fill="#6486C2" opacity="1.000000" stroke="none" 
	d="
M207.282852,168.902832 
	C209.872620,160.510666 212.827148,152.077576 215.971344,143.336426 
	C215.759735,146.075806 215.874741,149.311066 214.848709,152.131195 
	C212.776291,157.827408 210.084167,163.298157 207.282852,168.902832 
z"/>
<path fill="#F2F7FC" opacity="1.000000" stroke="none" 
	d="
M111.216705,256.277832 
	C113.291649,256.727203 115.897156,256.987610 117.645958,258.348724 
	C120.297356,260.412323 122.087082,260.245972 124.528664,258.138977 
	C125.856400,256.993164 127.961159,256.747742 130.147278,256.157837 
	C123.100143,263.341705 121.837601,263.365479 111.216705,256.277832 
z"/>
<path fill="#6484C0" opacity="1.000000" stroke="none" 
	d="
M80.937073,48.118713 
	C74.477058,51.387352 67.605888,54.611805 60.360092,57.773361 
	C66.832275,54.498486 73.679092,51.286507 80.937073,48.118713 
z"/>
<path fill="#F2F7FC" opacity="1.000000" stroke="none" 
	d="
M72.988281,223.374146 
	C76.765152,223.677826 82.190605,228.633850 82.958557,232.698654 
	C79.662605,229.955521 76.390366,226.821808 72.988281,223.374146 
z"/>
<path fill="#6486C2" opacity="1.000000" stroke="none" 
	d="
M170.811874,52.880013 
	C166.276489,51.033405 161.761856,48.821175 157.165192,46.285896 
	C161.666321,48.146702 166.249466,50.330544 170.811874,52.880013 
z"/>
<path fill="#6486C2" opacity="1.000000" stroke="none" 
	d="
M219.066772,131.872147 
	C219.521347,126.628395 220.257462,121.223892 221.120087,115.431694 
	C220.613831,120.599800 219.981064,126.155594 219.066772,131.872147 
z"/>
<path fill="#F2F7FC" opacity="1.000000" stroke="none" 
	d="
M91.796425,241.449966 
	C96.633705,240.817566 99.855690,242.963150 101.018951,248.315369 
	C98.015350,246.357361 94.998619,244.050674 91.796425,241.449966 
z"/>
<path fill="#6484C0" opacity="1.000000" stroke="none" 
	d="
M37.649467,63.531036 
	C33.593403,64.427322 29.227203,65.085648 24.441830,65.678024 
	C28.461550,64.839081 32.900444,64.066078 37.649467,63.531036 
z"/>
<path fill="#6486C2" opacity="1.000000" stroke="none" 
	d="
M216.951035,65.224472 
	C212.934311,65.061691 208.844589,64.588295 204.394531,63.947990 
	C208.315460,64.158669 212.596756,64.536263 216.951035,65.224472 
z"/>
<path fill="#6486C2" opacity="1.000000" stroke="none" 
	d="
M170.638733,222.436844 
	C167.904144,225.590210 165.169556,228.743576 162.192780,231.576706 
	C162.446777,230.354095 162.942963,229.451736 163.439148,228.549393 
	C163.439163,228.549393 163.452957,228.450470 163.815460,228.417236 
	C166.331543,226.401611 168.485138,224.419235 170.638733,222.436844 
z"/>
<path fill="#F2F7FC" opacity="1.000000" stroke="none" 
	d="
M142.322205,247.897797 
	C142.053329,242.938538 145.477692,241.627808 149.993454,241.114410 
	C147.821548,243.386505 145.240234,245.614014 142.322205,247.897797 
z"/>
<path fill="#F2F7FC" opacity="1.000000" stroke="none" 
	d="
M170.735046,222.209244 
	C168.485138,224.419235 166.331543,226.401611 163.864471,228.407700 
	C163.212708,223.540817 166.637741,222.248215 170.747391,221.156982 
	C171.108383,221.382477 171.018845,221.696060 170.735046,222.209244 
z"/>
<path fill="#6486C2" opacity="1.000000" stroke="none" 
	d="
M156.986267,45.572823 
	C154.352982,44.232849 151.671768,42.549995 148.868988,40.560719 
	C151.477722,41.912846 154.208038,43.571392 156.986267,45.572823 
z"/>
<path fill="#6484C0" opacity="1.000000" stroke="none" 
	d="
M58.385666,57.949120 
	C56.428196,58.844772 54.069027,59.746590 51.345268,60.599449 
	C52.170448,56.596508 55.536198,58.514503 58.385666,57.949120 
z"/>
<path fill="#F2F7FC" opacity="1.000000" stroke="none" 
	d="
M56.924469,204.436020 
	C58.577465,206.094833 60.302212,208.083710 62.051720,210.427185 
	C60.383064,208.776550 58.689640,206.771301 56.924469,204.436020 
z"/>
<path fill="#F2F7FC" opacity="1.000000" stroke="none" 
	d="
M163.072113,228.394714 
	C162.942963,229.451736 162.446777,230.354095 161.830627,231.561401 
	C161.187531,232.285095 160.664413,232.703857 159.687408,233.404312 
	C158.833420,233.804764 158.433289,233.923523 158.033173,234.042267 
	C159.590469,232.108200 161.147766,230.174118 163.072113,228.394714 
z"/>
<path fill="#6486C2" opacity="1.000000" stroke="none" 
	d="
M201.923553,62.952034 
	C199.653854,62.799076 197.263763,62.326977 194.638550,61.567375 
	C196.870010,61.730881 199.336594,62.181889 201.923553,62.952034 
z"/>
<path fill="#6486C2" opacity="1.000000" stroke="none" 
	d="
M191.852951,60.710526 
	C190.143982,60.502750 188.288361,59.981136 186.222107,59.211773 
	C188.550507,56.894520 190.151123,58.555294 191.852951,60.710526 
z"/>
<path fill="#F2F7FC" opacity="1.000000" stroke="none" 
	d="
M33.007206,162.368439 
	C37.184780,162.584702 35.678463,165.871948 35.963478,168.719849 
	C34.965366,167.006714 33.991302,164.870438 33.007206,162.368439 
z"/>
<path fill="#F2F7FC" opacity="1.000000" stroke="none" 
	d="
M133.312180,254.830353 
	C132.422928,250.616364 135.569519,250.489578 138.842636,250.076019 
	C137.379532,251.656708 135.506577,253.206818 133.312180,254.830353 
z"/>
<path fill="#6486C2" opacity="1.000000" stroke="none" 
	d="
M95.024796,39.137615 
	C93.830978,40.411789 92.246094,41.637295 90.320633,42.889816 
	C91.531288,41.640869 93.082504,40.364906 95.024796,39.137615 
z"/>
<path fill="#6486C2" opacity="1.000000" stroke="none" 
	d="
M197.359070,187.948090 
	C197.858902,186.136566 198.692978,184.274246 199.808136,182.222931 
	C199.290588,183.988403 198.491959,185.942856 197.359070,187.948090 
z"/>
<path fill="#6486C2" opacity="1.000000" stroke="none" 
	d="
M204.292664,174.913208 
	C204.831390,173.143311 205.633026,171.243668 206.685196,169.138885 
	C206.142349,170.883652 205.348969,172.833542 204.292664,174.913208 
z"/>
<path fill="#6484C0" opacity="1.000000" stroke="none" 
	d="
M87.975220,44.329243 
	C86.210014,45.465782 84.444817,46.602322 82.332664,47.759560 
	C83.744179,46.525734 85.502640,45.271202 87.624100,44.099419 
	C87.987091,44.182171 87.975220,44.329243 87.975220,44.329243 
z"/>
<path fill="#6486C2" opacity="1.000000" stroke="none" 
	d="
M177.641998,215.036575 
	C178.608017,213.366806 179.897430,211.613754 181.493301,209.724640 
	C180.521652,211.376801 179.243530,213.165054 177.641998,215.036575 
z"/>
<path fill="#F2F7FC" opacity="1.000000" stroke="none" 
	d="
M50.256355,195.294312 
	C53.677372,194.503769 54.354130,196.476624 53.939896,199.793518 
	C52.718445,198.681671 51.529640,197.143387 50.256355,195.294312 
z"/>
<path fill="#F2F7FC" opacity="1.000000" stroke="none" 
	d="
M43.818031,184.442749 
	C47.429497,184.086365 46.926178,186.799927 47.026569,189.521393 
	C45.982437,188.208282 44.934937,186.495621 43.818031,184.442749 
z"/>
<path fill="#F2F7FC" opacity="1.000000" stroke="none" 
	d="
M22.144480,123.379181 
	C22.789490,124.878166 23.354403,126.763588 23.867807,129.097687 
	C23.232328,127.619446 22.648355,125.692528 22.144480,123.379181 
z"/>
<path fill="#6486C2" opacity="1.000000" stroke="none" 
	d="
M176.937012,55.454498 
	C175.075012,55.122025 173.135590,54.447159 171.007019,53.490520 
	C172.831772,53.843201 174.845688,54.477654 176.937012,55.454498 
z"/>
<path fill="#6486C2" opacity="1.000000" stroke="none" 
	d="
M187.700928,201.976898 
	C188.298813,200.687195 189.216217,199.332733 190.427612,197.858109 
	C189.821213,199.129333 188.920822,200.520737 187.700928,201.976898 
z"/>
<path fill="#6486C2" opacity="1.000000" stroke="none" 
	d="
M217.420044,139.948822 
	C217.303635,138.540314 217.523392,137.061554 218.027985,135.346100 
	C218.127258,136.699142 217.941742,138.288864 217.420044,139.948822 
z"/>
<path fill="#6486C2" opacity="1.000000" stroke="none" 
	d="
M99.534042,35.964828 
	C98.802353,36.904320 97.722122,37.854176 96.312378,38.832390 
	C97.050407,37.898895 98.117958,36.937042 99.534042,35.964828 
z"/>
<path fill="#6486C2" opacity="1.000000" stroke="none" 
	d="
M194.687195,192.004211 
	C194.932968,190.939056 195.548019,189.849213 196.468338,188.628662 
	C196.201233,189.658493 195.628860,190.819031 194.687195,192.004211 
z"/>
<path fill="#6484C0" opacity="1.000000" stroke="none" 
	d="
M46.183365,61.199104 
	C45.284252,61.827160 43.976021,62.380489 42.298340,62.853985 
	C43.210678,62.224224 44.492462,61.674301 46.183365,61.199104 
z"/>
<path fill="#6486C2" opacity="1.000000" stroke="none" 
	d="
M144.966309,37.539139 
	C143.969086,37.242371 142.925705,36.601276 141.779083,35.664978 
	C142.757278,35.978119 143.838715,36.586468 144.966309,37.539139 
z"/>
<path fill="#F2F7FC" opacity="1.000000" stroke="none" 
	d="
M26.107689,142.383240 
	C26.743376,143.574799 27.338638,145.127014 27.888128,147.087036 
	C27.250660,145.911194 26.658962,144.327560 26.107689,142.383240 
z"/>
<path fill="#6486C2" opacity="1.000000" stroke="none" 
	d="
M181.967606,57.347557 
	C181.016022,57.401882 179.935760,57.114094 178.649109,56.541115 
	C179.574799,56.505760 180.706863,56.755600 181.967606,57.347557 
z"/>
<path fill="#F2F7FC" opacity="1.000000" stroke="none" 
	d="
M21.198626,117.356682 
	C21.620941,117.952385 21.979240,118.869591 22.081360,119.928413 
	C21.594990,119.272751 21.364799,118.475464 21.198626,117.356682 
z"/>
<path fill="#F2F7FC" opacity="1.000000" stroke="none" 
	d="
M54.813332,201.418701 
	C55.472401,201.860184 56.214214,202.613068 56.924553,203.747559 
	C56.227409,203.329468 55.561741,202.529770 54.813332,201.418701 
z"/>
<path fill="#F2F7FC" opacity="1.000000" stroke="none" 
	d="
M47.939651,191.370331 
	C48.562805,191.886414 49.253868,192.721970 49.902901,193.949371 
	C49.243099,193.457413 48.625332,192.573608 47.939651,191.370331 
z"/>
<path fill="#6486C2" opacity="1.000000" stroke="none" 
	d="
M202.396454,179.001465 
	C202.269730,178.475937 202.419891,177.908188 202.830475,177.186676 
	C202.951721,177.675018 202.812531,178.317108 202.396454,179.001465 
z"/>
<path fill="#6486C2" opacity="1.000000" stroke="none" 
	d="
M192.526855,194.993042 
	C192.551895,194.356186 192.897339,193.629105 193.543732,192.787628 
	C193.512222,193.416428 193.179749,194.159622 192.526855,194.993042 
z"/>
<path fill="#6486C2" opacity="1.000000" stroke="none" 
	d="
M191.010773,197.731232 
	C190.998306,197.077560 191.297272,196.331757 191.861023,195.428772 
	C191.857941,196.060760 191.590073,196.849930 191.010773,197.731232 
z"/>
<path fill="#6486C2" opacity="1.000000" stroke="none" 
	d="
M174.868500,218.566910 
	C174.626236,218.170441 174.721542,217.778183 175.128662,217.115829 
	C175.440460,216.845734 175.914322,216.828964 175.914307,216.828964 
	C175.678238,217.409683 175.442154,217.990402 174.868500,218.566910 
z"/>
<path fill="#F2F7FC" opacity="1.000000" stroke="none" 
	d="
M39.920509,177.299454 
	C40.266300,177.479156 40.610748,177.974518 40.954025,178.789932 
	C40.608288,178.611694 40.263729,178.113419 39.920509,177.299454 
z"/>
<path fill="#6486C2" opacity="1.000000" stroke="none" 
	d="
M148.713348,39.961250 
	C148.229401,40.097878 147.610718,39.909187 146.798203,39.451294 
	C147.262436,39.333374 147.920532,39.484653 148.713348,39.961250 
z"/>
<path fill="#6486C2" opacity="1.000000" stroke="none" 
	d="
M158.025436,234.025391 
	C158.433289,233.923523 158.833420,233.804764 159.539429,233.610901 
	C159.455734,234.002106 159.066162,234.468430 158.357330,234.725372 
	C158.038101,234.516006 158.047440,234.020020 158.047440,234.020020 
	C158.047440,234.020020 158.017715,234.008530 158.025436,234.025391 
z"/>
<path fill="#F2F7FC" opacity="1.000000" stroke="none" 
	d="
M24.996592,138.329071 
	C25.337063,138.541992 25.635950,139.077469 25.912163,139.938568 
	C25.577993,139.726669 25.266500,139.189163 24.996592,138.329071 
z"/>
<path fill="#F2F7FC" opacity="1.000000" stroke="none" 
	d="
M31.159254,158.326721 
	C31.466846,158.510269 31.727249,158.986404 31.986374,159.746613 
	C31.694086,159.560211 31.403074,159.089752 31.159254,158.326721 
z"/>
<path fill="#F2F7FC" opacity="1.000000" stroke="none" 
	d="
M176.196991,215.820633 
	C176.066727,215.591476 176.236359,215.359329 176.661331,215.066818 
	C176.875244,215.313629 176.735306,215.584030 176.196991,215.820633 
z"/>
<path fill="#6486C2" opacity="1.000000" stroke="none" 
	d="
M141.687164,35.027359 
	C141.415558,35.146149 141.123032,34.977592 140.755005,34.559361 
	C141.008438,34.453129 141.337341,34.596569 141.687164,35.027359 
z"/>
<path fill="#6486C2" opacity="1.000000" stroke="none" 
	d="
M185.832489,204.731110 
	C185.741821,204.462570 185.989319,204.120285 186.525238,203.636017 
	C186.599319,203.881821 186.385010,204.269608 185.832489,204.731110 
z"/>
<path fill="#F2F7FC" opacity="1.000000" stroke="none" 
	d="
M157.805420,234.132370 
	C158.047440,234.020020 158.038101,234.516006 158.030457,234.763977 
	C158.022797,235.011948 157.538300,235.097595 157.293915,235.125656 
	C157.220810,234.850723 157.392105,234.547729 157.805420,234.132370 
z"/>
<path fill="#6486C2" opacity="1.000000" stroke="none" 
	d="
M88.127266,44.359112 
	C87.975220,44.329243 87.987091,44.182171 87.984390,44.108303 
	C87.981689,44.034435 88.237114,43.944141 88.366913,43.909000 
	C88.587898,44.114922 88.515427,44.286629 88.127266,44.359112 
z"/>
<path fill="#F2F7FC" opacity="1.000000" stroke="none" 
	d="
M108.035652,254.243622 
	C108.265480,254.054352 108.522339,254.184006 108.851425,254.588928 
	C108.620659,254.849716 108.333672,254.749191 108.035652,254.243622 
z"/>
<path fill="#F2F7FC" opacity="1.000000" stroke="none" 
	d="
M104.632339,251.412338 
	C104.854790,251.303467 105.256485,251.456848 105.799759,251.908539 
	C105.564758,252.029419 105.188164,251.852005 104.632339,251.412338 
z"/>
<path fill="#6484C0" opacity="1.000000" stroke="none" 
	d="
M41.448410,62.970093 
	C41.454166,62.948257 41.378391,63.221176 41.374985,63.113525 
	C41.371578,63.005878 41.442650,62.991932 41.448410,62.970093 
z"/>
<path fill="#F2F7FC" opacity="1.000000" stroke="none" 
	d="
M102.955650,250.332321 
	C103.166862,250.238937 103.470543,250.404129 103.891312,250.807571 
	C103.688309,250.894180 103.368217,250.742538 102.955650,250.332321 
z"/>
<path fill="#F2F7FC" opacity="1.000000" stroke="none" 
	d="
M101.863510,249.343201 
	C102.076271,249.257874 102.402382,249.431793 102.832405,249.871841 
	C102.616493,249.959442 102.296677,249.780945 101.863510,249.343201 
z"/>
<path fill="#6486C2" opacity="1.000000" stroke="none" 
	d="
M218.596375,66.011139 
	C218.586563,65.988594 218.488251,66.098099 218.557068,66.040985 
	C218.625885,65.983871 218.606186,66.033691 218.596375,66.011139 
z"/>
<path fill="#6486C2" opacity="1.000000" stroke="none" 
	d="
M182.603363,58.002487 
	C182.611755,57.989956 182.485443,58.137482 182.528137,58.042545 
	C182.570847,57.947609 182.594955,58.015015 182.603363,58.002487 
z"/>
<path fill="#F2F7FC" opacity="1.000000" stroke="none" 
	d="
M155.284943,237.001984 
	C155.223999,236.787018 155.425980,236.501099 155.882599,236.128860 
	C155.940781,236.338715 155.744339,236.634872 155.284943,237.001984 
z"/>
<path fill="#F2F7FC" opacity="1.000000" stroke="none" 
	d="
M84.973724,235.312195 
	C85.181465,235.229843 85.475243,235.404419 85.876068,235.817932 
	C85.675339,235.894318 85.367554,235.731720 84.973724,235.312195 
z"/>
<path fill="#F2F7FC" opacity="1.000000" stroke="none" 
	d="
M175.917343,216.612473 
	C175.914322,216.828964 175.440460,216.845734 175.204987,216.818222 
	C175.087982,216.531387 175.263702,216.319580 175.682343,216.060699 
	C175.867981,215.966125 175.920364,216.395981 175.917343,216.612473 
z"/>
<path fill="#F2F7FC" opacity="1.000000" stroke="none" 
	d="
M83.972641,234.307617 
	C84.188812,234.235504 84.478424,234.423859 84.857574,234.862640 
	C84.646774,234.931381 84.346428,234.749725 83.972641,234.307617 
z"/>
<path fill="#F2F7FC" opacity="1.000000" stroke="none" 
	d="
M82.984039,233.299683 
	C83.194824,233.230240 83.484177,233.416687 83.863312,233.852356 
	C83.656265,233.919571 83.359436,233.737579 82.984039,233.299683 
z"/>
<path fill="#F2F7FC" opacity="1.000000" stroke="none" 
	d="
M70.993057,221.302139 
	C71.202942,221.237823 71.493240,221.432587 71.870789,221.881638 
	C71.663177,221.944351 71.368332,221.752792 70.993057,221.302139 
z"/>
<path fill="#F2F7FC" opacity="1.000000" stroke="none" 
	d="
M171.301514,221.013412 
	C171.230011,220.803131 171.414719,220.515320 171.846039,220.136261 
	C171.914352,220.341949 171.736053,220.638916 171.301514,221.013412 
z"/>
<path fill="#F2F7FC" opacity="1.000000" stroke="none" 
	d="
M70.032768,220.268311 
	C70.246201,220.206177 70.516640,220.404236 70.871704,220.844833 
	C70.667480,220.901093 70.378624,220.714798 70.032768,220.268311 
z"/>
<path fill="#6486C2" opacity="1.000000" stroke="none" 
	d="
M173.719269,219.720062 
	C173.604874,219.423492 173.816101,219.102051 174.306793,218.702301 
	C174.405807,218.981064 174.225357,219.338120 173.719269,219.720062 
z"/>
<path fill="#F2F7FC" opacity="1.000000" stroke="none" 
	d="
M172.309387,219.998779 
	C172.035355,219.710098 172.195648,219.461914 172.691483,219.397095 
	C172.750748,219.598297 172.656311,219.751221 172.309387,219.998779 
z"/>
<path fill="#6486C2" opacity="1.000000" stroke="none" 
	d="
M216.868317,140.676910 
	C216.812500,140.773483 216.603928,140.538406 216.603928,140.538406 
	C216.603928,140.538406 216.738632,140.254288 216.888229,140.200104 
	C217.037827,140.145935 216.924149,140.580322 216.868317,140.676910 
z"/>
<path fill="#F2F7FC" opacity="1.000000" stroke="none" 
	d="
M27.942215,148.297150 
	C28.192415,148.283340 28.487505,148.591385 28.820751,149.229706 
	C28.568308,149.246323 28.277708,148.932663 27.942215,148.297150 
z"/>
<path fill="#F2F7FC" opacity="1.000000" stroke="none" 
	d="
M41.251137,180.275238 
	C41.539524,180.170120 41.743374,180.385635 41.908016,180.902084 
	C41.589073,181.070663 41.355003,180.868271 41.251137,180.275238 
z"/>
<path fill="#6486C2" opacity="1.000000" stroke="none" 
	d="
M201.487396,179.926346 
	C201.296143,179.730392 201.404297,179.490097 201.849884,179.246002 
	C201.970749,179.428558 201.837250,179.641830 201.487396,179.926346 
z"/>
<path fill="#F2F7FC" opacity="1.000000" stroke="none" 
	d="
M38.927094,175.294006 
	C39.177147,175.275314 39.476795,175.575027 39.815876,176.202393 
	C39.562435,176.224152 39.269566,175.918274 38.927094,175.294006 
z"/>
<path fill="#F2F7FC" opacity="1.000000" stroke="none" 
	d="
M37.953110,173.349487 
	C38.201046,173.330505 38.493610,173.621719 38.817131,174.235565 
	C38.564632,174.258698 38.281185,173.959198 37.953110,173.349487 
z"/>
<path fill="#F2F7FC" opacity="1.000000" stroke="none" 
	d="
M37.289692,172.280029 
	C37.571480,172.182144 37.759434,172.388977 37.905678,172.879303 
	C37.587662,173.051498 37.364956,172.858826 37.289692,172.280029 
z"/>
<path fill="#F2F7FC" opacity="1.000000" stroke="none" 
	d="
M36.225029,170.280548 
	C36.525249,170.173981 36.736431,170.401276 36.896301,170.947601 
	C36.698547,170.965668 36.462215,170.748245 36.225029,170.280548 
z"/>
<path fill="#F2F7FC" opacity="1.000000" stroke="none" 
	d="
M42.400208,182.264526 
	C42.626053,182.174973 42.786003,182.332825 42.960793,182.697800 
	C42.713707,182.881760 42.499931,182.750778 42.400208,182.264526 
z"/>
<path fill="#F2F7FC" opacity="1.000000" stroke="none" 
	d="
M30.138447,155.295929 
	C30.368940,155.287186 30.599432,155.556107 30.851463,156.098969 
	C30.628151,156.106476 30.383301,155.840042 30.138447,155.295929 
z"/>
<path fill="#F2F7FD" opacity="1.000000" stroke="none" 
	d="
M139.996307,137.477753 
	C140.916077,137.861420 141.836777,138.678528 142.602127,139.357742 
	C144.044846,137.099838 145.504471,134.815491 146.899567,132.632111 
	C144.820908,130.137436 142.321686,136.818314 140.509674,131.588898 
	C143.424225,130.195786 146.477127,129.136002 149.655762,128.396149 
	C150.274780,129.498489 151.111526,131.006607 151.211990,130.959061 
	C155.955719,128.713837 159.764069,131.245346 163.808105,133.599274 
	C164.948425,136.590179 167.295975,139.635223 166.664825,141.819626 
	C165.535660,145.727554 162.611755,149.116943 159.999939,153.449966 
	C162.033783,152.665024 164.033340,151.893326 166.032913,151.121613 
	C165.669037,157.209900 159.975601,155.982971 156.957611,156.433151 
	C153.037964,157.017838 148.699432,154.997940 144.600815,153.880447 
	C144.166595,153.762039 144.131729,152.178909 144.336090,151.142731 
	C146.767548,152.671234 148.775925,154.323441 152.492355,152.649445 
	C148.169510,149.347031 144.786469,146.762558 141.403442,144.178101 
	C140.934723,142.089142 140.465988,140.000183 139.996307,137.477753 
z"/>
<path fill="#6585C1" opacity="1.000000" stroke="none" 
	d="
M113.741211,165.680847 
	C113.769829,166.911163 113.518898,167.862000 112.823769,169.008972 
	C112.379570,169.205139 112.036774,169.317734 112.036774,169.317734 
	C111.689476,169.172653 111.342178,169.027588 110.532051,168.639984 
	C109.713165,168.272522 109.357101,168.147568 109.001038,168.022614 
	C109.001038,168.022614 108.712624,167.829544 108.331421,167.574951 
	C106.974808,166.868881 105.999390,166.417404 105.023972,165.965912 
	C105.023972,165.965912 104.998299,165.998001 104.888397,165.690826 
	C103.848579,164.934402 102.918655,164.485184 101.988739,164.035950 
	C101.988739,164.035950 101.995285,163.993698 101.814117,163.754608 
	C101.084549,163.323685 100.536148,163.131866 99.987747,162.940048 
	C98.908150,162.313324 97.828560,161.686584 96.336838,160.792343 
	C95.671021,160.288651 95.376595,160.214645 95.041420,160.302795 
	C94.890717,160.221527 94.740021,160.140244 94.188469,159.723785 
	C92.861748,158.917664 91.935875,158.446671 91.010002,157.975693 
	C89.908821,157.282471 88.807640,156.589233 87.154709,155.581314 
	C84.063568,153.903351 81.524178,152.540054 78.984787,151.176758 
	C78.984779,151.176773 78.727631,150.918152 78.384521,150.679932 
	C77.704277,150.355927 77.367142,150.270126 77.030014,150.184326 
	C77.030014,150.184326 76.717949,149.939087 76.298134,149.629791 
	C74.591103,148.815552 73.303886,148.310623 72.016670,147.805679 
	C71.838242,147.575333 71.627327,147.380081 71.126144,146.884796 
	C70.670631,146.218109 70.395241,146.130234 70.042175,146.286057 
	C69.695450,146.142410 69.348724,145.998764 68.725220,145.815247 
	C67.573883,145.109848 66.699303,144.444321 65.294350,143.489532 
	C64.218353,143.028198 63.672733,142.856110 63.127113,142.684006 
	C62.286587,142.154541 61.446064,141.625092 60.093582,140.722290 
	C57.012642,140.583939 54.443661,140.818909 51.874683,141.053879 
	C51.897820,140.871933 51.920959,140.689987 52.175056,140.125488 
	C52.697868,139.574249 52.867615,139.323059 52.915260,138.989365 
	C53.219410,138.854980 53.523556,138.720612 54.246941,138.238678 
	C55.570377,136.945923 56.474571,136.000763 57.706703,135.044220 
	C58.690525,135.022278 59.346409,135.011703 60.056389,135.261154 
	C60.389973,135.713181 60.669460,135.905197 60.948952,136.097198 
	C62.064281,136.764847 63.179615,137.432495 64.842690,138.413330 
	C66.583000,139.235229 67.775574,139.743958 68.968147,140.252670 
	C69.169754,140.452545 69.390656,140.628174 69.955605,141.190308 
	C71.474220,142.186325 72.668083,142.771591 73.861938,143.356873 
	C75.338264,144.180557 76.814590,145.004227 78.691978,146.143646 
	C79.093040,146.459396 79.476364,146.706360 79.476364,146.706360 
	C79.476364,146.706360 79.923958,146.619797 79.923958,146.619797 
	C80.426537,147.005356 80.929115,147.390930 81.798943,148.087326 
	C82.166191,148.398163 82.518135,148.628998 82.518135,148.628998 
	C82.518135,148.628998 82.938629,148.610275 82.938629,148.610275 
	C83.111603,148.700378 83.284576,148.790497 83.898148,149.189545 
	C84.891891,149.660446 85.445045,149.822388 85.998199,149.984314 
	C87.087128,150.602386 88.176056,151.220444 89.661369,152.179352 
	C90.359879,152.605957 90.662010,152.691696 90.964134,152.777435 
	C91.463028,153.117416 91.961914,153.457382 92.812088,154.116943 
	C93.367142,154.705688 93.634262,154.805756 93.964745,154.736771 
	C94.116188,154.816269 94.267632,154.895767 94.791336,155.182495 
	C95.370621,155.630661 95.630959,155.726074 95.944588,155.675949 
	C101.783607,158.917755 107.622635,162.159561 113.741211,165.680847 
z"/>
<path fill="#7790C3" opacity="1.000000" stroke="none" 
	d="
M42.424438,116.136040 
	C44.568974,116.152588 46.713512,116.169136 49.335922,116.521423 
	C49.220055,117.652855 48.626312,118.448540 48.032570,119.244232 
	C47.259178,119.195168 46.485786,119.146103 45.052132,119.141388 
	C43.929882,119.455513 43.467892,119.725273 43.005901,119.995041 
	C42.825699,120.010384 42.645500,120.025719 41.975361,120.145630 
	C41.157726,120.374245 40.958183,120.607849 40.886795,120.950989 
	C39.897663,121.722534 38.908531,122.494080 37.559753,123.760010 
	C36.537807,125.841232 35.875511,127.428078 35.213211,129.014923 
	C35.152367,129.454941 35.091518,129.894943 35.059963,131.044403 
	C35.497364,136.094070 37.682030,138.933838 42.017529,139.957077 
	C42.017529,139.957077 42.005207,140.004913 42.175148,140.266083 
	C43.222641,141.034897 44.100189,141.542542 44.977737,142.050171 
	C44.977741,142.050171 44.990528,142.514542 44.727123,142.827087 
	C44.184307,143.329346 44.017044,143.590775 43.961926,143.923950 
	C43.516819,143.957214 43.071716,143.990479 42.126366,143.758423 
	C40.744843,143.101837 39.863567,142.710556 38.982292,142.319290 
	C38.490208,141.964157 37.998123,141.609024 37.145218,140.904633 
	C36.593521,140.269241 36.328892,140.095383 35.990513,140.033768 
	C35.990513,140.033768 36.003635,139.998718 35.907963,139.765152 
	C35.543732,139.347275 35.275173,139.162979 35.006611,138.978668 
	C34.950340,138.800491 34.894066,138.622330 34.721077,138.002609 
	C34.464394,137.318344 34.254261,137.194672 33.973961,137.190063 
	C33.426472,135.988480 32.878983,134.786911 32.214573,132.893555 
	C32.037743,131.133286 31.977837,130.064804 31.917927,128.996323 
	C32.486580,127.138390 33.055233,125.280449 34.088257,123.007523 
	C35.122719,121.764542 35.692818,120.936569 36.262913,120.108589 
	C36.262913,120.108589 36.687408,119.990189 37.063965,119.821793 
	C37.696926,119.500824 37.834122,119.275558 37.852112,118.977600 
	C38.157185,118.824051 38.462257,118.670494 39.167480,118.210236 
	C39.842609,117.645294 40.117588,117.387054 40.392567,117.128815 
	C40.392567,117.128815 40.712685,117.182755 41.139774,117.049431 
	C41.852722,116.656090 42.138580,116.396065 42.424438,116.136040 
z"/>
<path fill="#7F9AC8" opacity="1.000000" stroke="none" 
	d="
M166.167145,150.782928 
	C164.033340,151.893326 162.033783,152.665024 159.999939,153.449966 
	C162.611755,149.116943 165.535660,145.727554 166.664825,141.819626 
	C167.295975,139.635223 164.948425,136.590179 164.126144,133.397400 
	C164.611099,132.467377 164.912994,132.072876 165.214874,131.678375 
	C165.383835,131.709991 165.552780,131.741608 165.967285,132.184143 
	C166.787476,133.111053 167.362106,133.627029 167.936737,134.143005 
	C170.703690,139.909012 170.849167,145.412033 166.167145,150.782928 
z"/>
<path fill="#F2F7FC" opacity="1.000000" stroke="none" 
	d="
M48.200653,119.516060 
	C48.626312,118.448540 49.220055,117.652855 49.738075,116.497887 
	C51.754925,117.175407 53.847500,118.212204 55.937431,119.669586 
	C55.934784,120.090179 55.821114,120.222710 55.666016,120.304779 
	C55.688408,120.604210 55.865894,120.821571 56.025471,121.021225 
	C56.007561,121.003525 55.973785,120.966171 55.914856,121.354721 
	C56.336040,123.461479 56.816158,125.179680 57.296272,126.897881 
	C54.320427,124.527885 51.344582,122.157890 48.200653,119.516060 
M53.748985,121.152107 
	C53.672729,121.209435 53.596474,121.266769 53.748985,121.152107 
z"/>
<path fill="#8198CC" opacity="1.000000" stroke="none" 
	d="
M57.507294,127.195801 
	C56.816158,125.179680 56.336040,123.461479 56.171604,121.400551 
	C56.655876,121.015694 56.824474,120.973564 56.993076,120.931427 
	C57.936069,122.109489 58.879063,123.287552 60.031147,124.988297 
	C60.379578,125.829788 60.612141,126.050377 60.937931,126.172737 
	C60.914425,128.751419 60.890919,131.330093 60.658890,134.398743 
	C60.450363,134.888702 60.002296,135.001144 60.002296,135.001129 
	C59.346409,135.011703 58.690525,135.022278 57.659264,134.783875 
	C57.244320,134.363144 57.204746,134.191360 57.165169,134.019592 
	C57.349552,131.844299 57.533936,129.669006 57.507294,127.195801 
z"/>
<path fill="#6E88B7" opacity="1.000000" stroke="none" 
	d="
M165.064041,131.472229 
	C164.912994,132.072876 164.611099,132.467377 163.991150,133.063751 
	C159.764069,131.245346 155.955719,128.713837 151.211990,130.959061 
	C151.111526,131.006607 150.274780,129.498489 150.053864,128.444275 
	C150.696762,128.057648 151.067291,127.942833 152.030121,127.789230 
	C153.741669,127.573524 154.860886,127.396599 155.980118,127.219681 
	C157.353714,127.505501 158.727295,127.791328 160.601624,128.374756 
	C162.057251,129.141663 163.012177,129.610992 163.967087,130.080322 
	C164.282471,130.475586 164.597839,130.870834 165.064041,131.472229 
z"/>
<path fill="#8197C8" opacity="1.000000" stroke="none" 
	d="
M141.385544,144.498734 
	C144.786469,146.762558 148.169510,149.347031 152.492355,152.649445 
	C148.775925,154.323441 146.767548,152.671234 144.473907,150.805634 
	C143.247375,148.673859 142.307510,146.746613 141.385544,144.498734 
z"/>
<path fill="#F2F7FC" opacity="1.000000" stroke="none" 
	d="
M42.006531,139.596527 
	C37.682030,138.933838 35.497364,136.094070 35.133957,131.371979 
	C37.450947,133.738724 39.723240,136.487350 42.006531,139.596527 
z"/>
<path fill="#F2F7FC" opacity="1.000000" stroke="none" 
	d="
M51.631374,141.266907 
	C54.443661,140.818909 57.012642,140.583939 59.793148,140.671692 
	C57.586655,141.855072 55.186714,142.779922 52.721786,143.473999 
	C52.483292,143.541168 51.842247,142.178741 51.631374,141.266907 
z"/>
<path fill="#F2F7FC" opacity="1.000000" stroke="none" 
	d="
M44.221973,144.219162 
	C44.017044,143.590775 44.184307,143.329346 44.686455,143.055786 
	C46.326828,142.277878 47.744469,141.583832 49.134705,140.903214 
	C50.534252,144.968903 50.083538,145.364197 44.221973,144.219162 
z"/>
<path fill="#F2F7FC" opacity="1.000000" stroke="none" 
	d="
M35.547577,128.963821 
	C35.875511,127.428078 36.537807,125.841232 37.468464,124.065720 
	C40.358070,126.748878 37.782661,127.706535 35.547577,128.963821 
z"/>
<path fill="#F2F7FD" opacity="1.000000" stroke="none" 
	d="
M155.959442,126.861862 
	C154.860886,127.396599 153.741669,127.573524 152.293243,127.659409 
	C152.544601,126.485146 153.125137,125.401932 153.705673,124.318710 
	C154.450043,125.047150 155.194412,125.775589 155.959442,126.861862 
z"/>
<path fill="#F2F7FC" opacity="1.000000" stroke="none" 
	d="
M68.953148,139.886810 
	C67.775574,139.743958 66.583000,139.235229 65.164978,138.493896 
	C65.343025,137.639709 65.746536,137.018143 66.150040,136.396576 
	C67.079407,137.438049 68.008774,138.479507 68.953148,139.886810 
z"/>
<path fill="#F2F7FC" opacity="1.000000" stroke="none" 
	d="
M25.141550,73.307251 
	C26.754675,74.008209 28.517584,75.062805 30.448284,76.434654 
	C27.774954,77.558273 25.925344,76.656616 25.141550,73.307251 
z"/>
<path fill="#F2F7FC" opacity="1.000000" stroke="none" 
	d="
M56.761665,134.022095 
	C57.204746,134.191360 57.244320,134.363144 57.331329,134.795258 
	C56.474571,136.000763 55.570377,136.945923 54.366394,138.015671 
	C54.830456,136.768372 55.594307,135.396500 56.761665,134.022095 
z"/>
<path fill="#F2F7FC" opacity="1.000000" stroke="none" 
	d="
M31.578682,129.065338 
	C31.977837,130.064804 32.037743,131.133286 32.056572,132.601471 
	C29.265633,132.212204 29.365011,130.851410 31.578682,129.065338 
z"/>
<path fill="#F2F7FC" opacity="1.000000" stroke="none" 
	d="
M73.861572,142.966278 
	C72.668083,142.771591 71.474220,142.186325 70.136932,141.299866 
	C71.282745,141.524368 72.571976,142.050034 73.861572,142.966278 
z"/>
<path fill="#F2F7FD" opacity="1.000000" stroke="none" 
	d="
M163.924057,129.715942 
	C163.012177,129.610992 162.057251,129.141663 160.954330,128.377686 
	C161.831223,128.505875 162.856125,128.928711 163.924057,129.715942 
z"/>
<path fill="#F2F7FC" opacity="1.000000" stroke="none" 
	d="
M39.061100,142.630890 
	C39.863567,142.710556 40.744843,143.101837 41.791126,143.753937 
	C41.017391,143.657318 40.078648,143.299896 39.061100,142.630890 
z"/>
<path fill="#F2F7FC" opacity="1.000000" stroke="none" 
	d="
M44.938431,141.702103 
	C44.100189,141.542542 43.222641,141.034897 42.195900,140.252655 
	C42.997513,140.436722 43.948318,140.895370 44.938431,141.702103 
z"/>
<path fill="#F2F7FC" opacity="1.000000" stroke="none" 
	d="
M35.906330,120.109497 
	C35.692818,120.936569 35.122719,121.764542 34.265945,122.693748 
	C34.502758,121.900116 35.026253,121.005264 35.906330,120.109497 
z"/>
<path fill="#F2F7FD" opacity="1.000000" stroke="none" 
	d="
M167.931458,133.821579 
	C167.362106,133.627029 166.787476,133.111053 166.210983,132.268372 
	C166.781494,132.461151 167.353836,132.980652 167.931458,133.821579 
z"/>
<path fill="#F2F7FC" opacity="1.000000" stroke="none" 
	d="
M33.109169,78.046967 
	C33.664295,77.872841 34.214123,78.033974 34.955402,78.411400 
	C34.465862,78.545868 33.784870,78.464043 33.109169,78.046967 
z"/>
<path fill="#F2F7FC" opacity="1.000000" stroke="none" 
	d="
M63.117149,143.021454 
	C63.672733,142.856110 64.218353,143.028198 64.956039,143.414825 
	C64.467796,143.539215 63.787487,143.449066 63.117149,143.021454 
z"/>
<path fill="#F2F7FC" opacity="1.000000" stroke="none" 
	d="
M43.280186,119.992592 
	C43.467892,119.725273 43.929882,119.455513 44.670876,119.220543 
	C44.484745,119.500275 44.019608,119.745209 43.280186,119.992592 
z"/>
<path fill="#F2F7FC" opacity="1.000000" stroke="none" 
	d="
M61.162128,93.246170 
	C61.559669,93.161453 62.118622,93.325485 62.829731,93.744766 
	C62.429104,93.831642 61.876324,93.663277 61.162128,93.246170 
z"/>
<path fill="#F2F7FC" opacity="1.000000" stroke="none" 
	d="
M85.832809,149.742950 
	C85.445045,149.822388 84.891891,149.660446 84.185272,149.245651 
	C84.577003,149.162399 85.122215,149.331970 85.832809,149.742950 
z"/>
<path fill="#F2F7FC" opacity="1.000000" stroke="none" 
	d="
M41.148041,82.238380 
	C41.328682,82.154625 41.644722,82.313820 42.124630,82.688507 
	C41.953476,82.763115 41.618462,82.622231 41.148041,82.238380 
z"/>
<path fill="#F2F7FC" opacity="1.000000" stroke="none" 
	d="
M56.198769,90.474197 
	C56.387115,90.217056 56.692471,90.282997 57.091583,90.703445 
	C56.894257,90.933586 56.604404,90.846695 56.198769,90.474197 
z"/>
<path fill="#F2F7FC" opacity="1.000000" stroke="none" 
	d="
M38.127647,80.328232 
	C38.301517,80.232498 38.625618,80.350479 39.092651,80.690964 
	C38.916344,80.789635 38.597111,80.665787 38.127647,80.328232 
z"/>
<path fill="#F2F7FC" opacity="1.000000" stroke="none" 
	d="
M54.163139,89.386238 
	C54.332226,89.290749 54.638336,89.389534 55.054836,89.713249 
	C54.831013,89.929779 54.542664,89.810555 54.163139,89.386238 
z"/>
<path fill="#F2F7FC" opacity="1.000000" stroke="none" 
	d="
M52.128510,88.269608 
	C52.297302,88.202263 52.588623,88.359924 53.014107,88.733704 
	C52.849194,88.798088 52.550117,88.646355 52.128510,88.269608 
z"/>
<path fill="#F2F7FC" opacity="1.000000" stroke="none" 
	d="
M43.165287,83.324860 
	C43.338867,83.225433 43.660976,83.343971 44.135536,83.680710 
	C43.963261,83.780228 43.638538,83.661530 43.165287,83.324860 
z"/>
<path fill="#F2F7FC" opacity="1.000000" stroke="none" 
	d="
M51.153152,87.448380 
	C51.381195,87.163361 51.642643,87.257523 51.891705,87.780411 
	C51.685379,87.941177 51.454453,87.813988 51.153152,87.448380 
z"/>
<path fill="#F2F7FC" opacity="1.000000" stroke="none" 
	d="
M23.153500,72.209122 
	C23.354198,72.093651 23.721481,72.235992 24.274355,72.619858 
	C24.079990,72.729904 23.700037,72.598427 23.153500,72.209122 
z"/>
<path fill="#F2F7FC" opacity="1.000000" stroke="none" 
	d="
M37.151451,79.503006 
	C37.350262,79.290550 37.587963,79.387177 37.816368,79.837959 
	C37.633289,79.959877 37.427715,79.833199 37.151451,79.503006 
z"/>
<path fill="#F2F7FC" opacity="1.000000" stroke="none" 
	d="
M90.829773,152.589890 
	C90.662010,152.691696 90.359879,152.605957 89.955383,152.287796 
	C90.176239,152.068115 90.457039,152.183777 90.829773,152.589890 
z"/>
<path fill="#F2F7FC" opacity="1.000000" stroke="none" 
	d="
M42.126160,116.170929 
	C42.138580,116.396065 41.852722,116.656090 41.278828,116.965706 
	C41.269821,116.745476 41.548851,116.475647 42.126160,116.170929 
z"/>
<path fill="#F2F7FC" opacity="1.000000" stroke="none" 
	d="
M82.820770,148.462738 
	C82.938629,148.610275 82.518135,148.628998 82.518135,148.628998 
	C82.518135,148.628998 82.166191,148.398163 82.094826,148.199905 
	C82.281136,148.038605 82.507622,148.143127 82.820770,148.462738 
z"/>
<path fill="#F2F7FC" opacity="1.000000" stroke="none" 
	d="
M40.096008,117.169647 
	C40.117588,117.387054 39.842609,117.645294 39.294655,117.984680 
	C39.280941,117.780708 39.540199,117.495590 40.096008,117.169647 
z"/>
<path fill="#F2F7FC" opacity="1.000000" stroke="none" 
	d="
M79.789970,146.465836 
	C79.923958,146.619797 79.476364,146.706360 79.476364,146.706360 
	C79.476364,146.706360 79.093040,146.459396 78.991623,146.253967 
	C79.175003,146.050568 79.430267,146.138351 79.789970,146.465836 
z"/>
<path fill="#F2F7FC" opacity="1.000000" stroke="none" 
	d="
M37.682835,119.062721 
	C37.834122,119.275558 37.696926,119.500824 37.239922,119.689163 
	C37.140022,119.485397 37.298100,119.293037 37.682835,119.062721 
z"/>
<path fill="#F2F7FC" opacity="1.000000" stroke="none" 
	d="
M93.851990,154.565399 
	C93.634262,154.805756 93.367142,154.705688 93.094864,154.222809 
	C93.306297,154.059082 93.543922,154.187393 93.851990,154.565399 
z"/>
<path fill="#F2F7FC" opacity="1.000000" stroke="none" 
	d="
M41.105717,120.900681 
	C40.958183,120.607849 41.157726,120.374245 41.723572,120.246597 
	C41.822712,120.522385 41.610352,120.724831 41.105717,120.900681 
z"/>
<path fill="#F2F7FC" opacity="1.000000" stroke="none" 
	d="
M36.094879,140.245544 
	C36.328892,140.095383 36.593521,140.269241 36.866493,140.783813 
	C36.640190,140.906418 36.390408,140.721436 36.094879,140.245544 
z"/>
<path fill="#F2F7FC" opacity="1.000000" stroke="none" 
	d="
M52.709194,139.095551 
	C52.867615,139.323059 52.697868,139.574249 52.198235,139.851349 
	C52.077324,139.650238 52.248215,139.397568 52.709194,139.095551 
z"/>
<path fill="#F2F7FC" opacity="1.000000" stroke="none" 
	d="
M35.104973,139.201889 
	C35.275173,139.162979 35.543732,139.347275 35.889950,139.770203 
	C35.648018,139.899155 35.393257,139.704575 35.104973,139.201889 
z"/>
<path fill="#F2F7FC" opacity="1.000000" stroke="none" 
	d="
M34.046364,137.339005 
	C34.254261,137.194672 34.464394,137.318344 34.598930,137.750351 
	C34.395466,137.830887 34.237221,137.680313 34.046364,137.339005 
z"/>
<path fill="#F2F7FC" opacity="1.000000" stroke="none" 
	d="
M56.888054,120.725555 
	C56.824474,120.973564 56.655876,121.015694 56.230534,121.011993 
	C55.973785,120.966171 56.007561,121.003525 55.953140,120.821686 
	C55.898724,120.639854 55.821114,120.222710 55.821114,120.222710 
	C55.821114,120.222710 55.934784,120.090179 55.995239,120.026451 
	C56.348358,120.082802 56.590805,120.268456 56.888054,120.725555 
z"/>
<path fill="#F2F7FC" opacity="1.000000" stroke="none" 
	d="
M60.056389,135.261169 
	C60.002296,135.001144 60.450363,134.888702 60.673168,134.828461 
	C60.916740,134.989151 60.937508,135.210098 60.953613,135.764114 
	C60.669460,135.905197 60.389973,135.713181 60.056389,135.261169 
z"/>
<path fill="#F2F7FC" opacity="1.000000" stroke="none" 
	d="
M60.887360,125.935905 
	C60.612141,126.050377 60.379578,125.829788 60.205544,125.268890 
	C60.478241,125.166237 60.700222,125.390327 60.887360,125.935905 
z"/>
<path fill="#F2F7FC" opacity="1.000000" stroke="none" 
	d="
M63.128014,94.246994 
	C63.307751,94.172363 63.610985,94.328079 64.038902,94.714874 
	C63.859562,94.789742 63.555534,94.633545 63.128014,94.246994 
z"/>
<path fill="#F2F7FC" opacity="1.000000" stroke="none" 
	d="
M65.164841,95.412033 
	C65.336601,95.327225 65.640182,95.433807 66.032883,95.778923 
	C65.804039,95.964783 65.528923,95.826775 65.164841,95.412033 
z"/>
<path fill="#F2F7FC" opacity="1.000000" stroke="none" 
	d="
M73.148232,99.429016 
	C73.368843,99.188850 73.643005,99.290634 73.923584,99.778786 
	C73.706711,99.945259 73.463974,99.813866 73.148232,99.429016 
z"/>
<path fill="#F2F7FC" opacity="1.000000" stroke="none" 
	d="
M76.201401,101.542831 
	C76.385254,101.251183 76.656044,101.310844 76.977364,101.773514 
	C76.796288,101.957962 76.549767,101.863838 76.201401,101.542831 
z"/>
<path fill="#F2F7FC" opacity="1.000000" stroke="none" 
	d="
M95.818024,155.510254 
	C95.630959,155.726074 95.370621,155.630661 95.046753,155.206711 
	C95.219772,155.045288 95.473618,155.152237 95.818024,155.510254 
z"/>
<path fill="#F2F7FC" opacity="1.000000" stroke="none" 
	d="
M79.028275,151.510895 
	C81.524178,152.540054 84.063568,153.903351 86.830856,155.499207 
	C86.687302,156.728790 86.315857,157.725800 85.944412,158.722824 
	C85.016663,158.240646 83.860703,157.963257 83.207146,157.235016 
	C81.699127,155.554611 80.434898,153.655457 79.028275,151.510895 
z"/>
<path fill="#F2F7FC" opacity="1.000000" stroke="none" 
	d="
M126.002396,177.473236 
	C127.276421,177.847214 128.563751,178.605606 130.033997,179.634262 
	C128.816498,179.222214 127.416100,178.539932 126.002396,177.473236 
z"/>
<path fill="#F2F7FC" opacity="1.000000" stroke="none" 
	d="
M72.071899,148.198730 
	C73.303886,148.310623 74.591103,148.815552 76.103607,149.590561 
	C74.928307,149.437683 73.527718,149.014740 72.071899,148.198730 
z"/>
<path fill="#F2F7FC" opacity="1.000000" stroke="none" 
	d="
M91.059242,158.328003 
	C91.935875,158.446671 92.861748,158.917664 93.936035,159.676422 
	C93.092461,159.536255 92.100471,159.108292 91.059242,158.328003 
z"/>
<path fill="#F2F7FC" opacity="1.000000" stroke="none" 
	d="
M102.046425,164.379120 
	C102.918655,164.485184 103.848579,164.934402 104.904282,165.678802 
	C104.054749,165.556732 103.079430,165.139511 102.046425,164.379120 
z"/>
<path fill="#F2F7FC" opacity="1.000000" stroke="none" 
	d="
M105.075653,166.336578 
	C105.999390,166.417404 106.974808,166.868881 108.158142,167.584259 
	C107.286484,167.467850 106.206917,167.087555 105.075653,166.336578 
z"/>
<path fill="#F2F7FC" opacity="1.000000" stroke="none" 
	d="
M100.145004,163.195923 
	C100.536148,163.131866 101.084549,163.323685 101.795975,163.765961 
	C101.406761,163.828201 100.854515,163.640015 100.145004,163.195923 
z"/>
<path fill="#F2F7FC" opacity="1.000000" stroke="none" 
	d="
M137.135834,183.380859 
	C137.365173,183.160156 137.634247,183.283783 137.914093,183.780396 
	C137.698441,183.939056 137.448669,183.796326 137.135834,183.380859 
z"/>
<path fill="#F2F7FC" opacity="1.000000" stroke="none" 
	d="
M77.194870,150.390640 
	C77.367142,150.270126 77.704277,150.355927 78.203857,150.655151 
	C78.030777,150.778030 77.695251,150.687485 77.194870,150.390640 
z"/>
<path fill="#F2F7FC" opacity="1.000000" stroke="none" 
	d="
M70.160004,146.456573 
	C70.395241,146.130234 70.670631,146.218109 70.938614,146.777206 
	C70.726830,146.953079 70.483147,146.827194 70.160004,146.456573 
z"/>
<path fill="#F2F7FC" opacity="1.000000" stroke="none" 
	d="
M131.192139,180.439911 
	C131.355301,180.326309 131.672089,180.399170 132.124176,180.683823 
	C131.919373,180.926254 131.614792,180.836502 131.192139,180.439911 
z"/>
<path fill="#F2F7FC" opacity="1.000000" stroke="none" 
	d="
M115.109833,171.268692 
	C115.289001,171.206299 115.579163,171.362091 115.952675,171.761475 
	C115.703949,171.927231 115.432213,171.754501 115.109833,171.268692 
z"/>
<path fill="#F2F7FC" opacity="1.000000" stroke="none" 
	d="
M114.179520,170.566803 
	C114.358139,170.323105 114.607155,170.387573 114.877335,170.813705 
	C114.696938,170.969406 114.480743,170.869263 114.179520,170.566803 
z"/>
<path fill="#F2F7FC" opacity="1.000000" stroke="none" 
	d="
M112.146637,169.478729 
	C112.036774,169.317734 112.379570,169.205139 112.555710,169.168381 
	C112.731850,169.131622 112.858192,169.567413 112.894119,169.791382 
	C112.667534,169.958252 112.443016,169.833038 112.146637,169.478729 
z"/>
<path fill="#F2F7FC" opacity="1.000000" stroke="none" 
	d="
M109.166428,168.263947 
	C109.357101,168.147568 109.713165,168.272522 110.247910,168.628433 
	C110.061668,168.741364 109.696739,168.623322 109.166428,168.263947 
z"/>
<path fill="#F2F7FC" opacity="1.000000" stroke="none" 
	d="
M95.178970,160.474762 
	C95.376595,160.214645 95.671021,160.288651 96.027847,160.737839 
	C95.823059,160.946960 95.551575,160.845596 95.178970,160.474762 
z"/>
<path fill="#8198CC" opacity="1.000000" stroke="none" 
	d="
M53.634605,121.238106 
	C53.596474,121.266769 53.672729,121.209435 53.634605,121.238106 
z"/>
<path fill="#8198CC" opacity="1.000000" stroke="none" 
	d="
M55.666016,120.304779 
	C55.821114,120.222710 55.898724,120.639854 55.971054,120.839394 
	C55.865894,120.821571 55.688408,120.604210 55.666016,120.304779 
z"/>
</svg>