<svg version="1.1" id="Layer_1" xmlns="http://www.w3.org/2000/svg" xmlns:xlink="http://www.w3.org/1999/xlink" x="0px" y="0px"
	 width="100%" viewBox="0 0 367 320" enable-background="new 0 0 367 320" xml:space="preserve">
<path fill="#FEFEFE" opacity="1.000000" stroke="none" 
	d="
M255.000000,321.000000 
	C170.000015,321.000000 85.500031,321.000000 1.000034,321.000000 
	C1.000023,214.333374 1.000023,107.666733 1.000011,1.000077 
	C123.333275,1.000051 245.666550,1.000051 367.999878,1.000026 
	C367.999908,107.666595 367.999908,214.333191 367.999939,320.999878 
	C330.500000,321.000000 293.000000,321.000000 255.000000,321.000000 
M199.997208,42.483173 
	C201.663086,38.014828 204.296967,33.650181 204.789139,29.056095 
	C205.751480,20.073139 199.566940,11.927093 191.089615,9.298641 
	C182.072815,6.502920 172.843384,10.028369 167.634216,18.863846 
	C155.465485,39.503826 143.482574,60.254066 131.533600,81.022484 
	C128.219299,86.783043 127.542770,93.005112 129.983612,99.289833 
	C133.013229,107.090569 139.190842,111.170593 147.200577,111.728691 
	C155.314926,112.294075 161.624100,108.509171 165.762024,101.393280 
	C177.055664,81.971916 188.339111,62.544613 199.997208,42.483173 
M182.947311,159.715134 
	C191.603195,160.372803 198.301422,156.873322 202.606033,149.522110 
	C213.618668,130.715149 224.527405,111.842308 235.077499,92.774399 
	C236.879654,89.517242 237.657608,85.062103 237.253265,81.340233 
	C236.257187,72.171646 230.271805,65.989281 222.102905,64.265053 
	C213.459244,62.440617 205.269394,65.839600 200.439682,74.035721 
	C189.545593,92.523170 178.819321,111.112350 168.256851,129.791367 
	C161.005783,142.614365 167.627975,156.505890 182.947311,159.715134 
M145.989822,259.575012 
	C138.876343,269.972992 140.395660,281.690796 141.823624,292.961975 
	C143.371658,305.181091 151.882980,313.128784 164.087219,314.448578 
	C171.979965,315.302185 180.114868,315.288757 188.008560,314.435852 
	C199.478500,313.196594 208.373672,305.089630 209.792877,294.212341 
	C210.857361,286.053467 210.937576,277.539886 209.888641,269.385864 
	C208.400940,257.821289 198.366608,249.540588 186.699356,249.013168 
	C179.881821,248.705017 173.035248,248.774109 166.210129,248.968491 
	C158.112656,249.199112 151.466537,252.579453 145.989822,259.575012 
M352.615173,309.218445 
	C360.297485,303.884491 364.080139,296.508118 364.109711,287.188721 
	C364.122894,283.027679 364.184937,278.862335 364.031494,274.706055 
	C363.539337,261.374390 353.977600,250.811981 340.703125,249.955383 
	C329.430695,249.227951 318.090729,249.369232 306.782867,249.447754 
	C301.468628,249.484634 299.974182,251.442841 299.958282,257.065643 
	C299.912140,273.379425 299.896149,289.693359 299.916748,306.007202 
	C299.924652,312.255890 301.625366,313.952759 307.916260,313.988861 
	C317.238190,314.042358 326.598206,314.505035 335.868622,313.811859 
	C341.325195,313.403870 346.639923,311.098022 352.615173,309.218445 
M251.428360,201.066818 
	C248.616821,196.161942 245.844604,191.233932 242.979446,186.360565 
	C241.171341,183.285156 239.878647,179.082245 235.088043,180.252411 
	C230.237396,181.437302 231.083862,185.709778 231.075851,189.307510 
	C231.048752,201.465500 231.063766,213.623566 231.062866,225.781601 
	C231.062561,230.059906 231.062820,234.338211 231.062820,238.793167 
	C234.747711,238.793167 237.849777,238.793167 241.537048,238.793167 
	C241.537048,227.662445 241.537048,216.730911 241.537048,205.799362 
	C248.205856,215.706818 253.910950,225.814697 259.808533,235.809006 
	C263.095459,241.379211 266.950378,241.340256 270.246826,235.738159 
	C275.473511,226.855835 280.510132,217.861801 285.655457,208.931320 
	C286.248108,207.902695 287.020996,206.977905 288.554443,204.813583 
	C288.554443,217.033737 288.554443,227.784653 288.554443,238.719742 
	C292.231934,238.719742 295.453247,238.719742 298.598541,238.719742 
	C298.776825,238.137802 298.950867,237.834167 298.951355,237.530243 
	C298.978241,221.042480 298.963379,204.554581 299.027374,188.067001 
	C299.040192,184.763611 299.036194,181.413391 295.193329,180.311523 
	C291.041504,179.121063 289.327820,182.258362 287.623260,185.246964 
	C281.690643,195.648453 275.717224,206.026733 269.730469,216.397202 
	C268.277374,218.914337 266.713806,221.367691 264.841522,224.440353 
	C260.213470,216.344543 256.022278,209.012848 251.428360,201.066818 
M232.954620,253.726959 
	C232.837387,252.314682 232.720154,250.902405 232.611984,249.599335 
	C228.653351,249.599335 225.221786,249.599335 221.578354,249.599335 
	C221.578354,261.362671 221.348190,272.815765 221.632004,284.256104 
	C222.063217,301.638550 235.143906,313.686737 253.964661,313.984619 
	C261.793976,314.108551 269.627014,314.043823 277.458038,314.000824 
	C284.210022,313.963745 285.965118,312.172638 285.970825,305.345184 
	C285.985291,288.016510 285.973846,270.687836 285.944946,253.359177 
	C285.942841,252.099060 285.716492,250.839294 285.597717,249.613525 
	C281.804718,249.613525 278.389160,249.613525 274.275208,249.613525 
	C274.275208,267.290894 274.275208,284.658722 274.275208,302.081573 
	C266.095642,302.081573 258.600922,302.455139 251.158066,301.993378 
	C240.213913,301.314331 233.214584,293.662628 233.030426,282.673279 
	C232.874115,273.344940 232.970490,264.012360 232.954620,253.726959 
M58.924953,235.526215 
	C64.042786,231.651688 67.838058,226.673859 68.358368,220.262619 
	C68.919792,213.344757 69.134270,206.243958 68.211945,199.396454 
	C66.804047,188.943954 59.587643,181.737061 49.136757,180.519440 
	C41.430553,179.621582 33.452427,179.612167 25.746628,180.507675 
	C15.165315,181.737335 8.451615,188.638458 6.770872,198.909393 
	C5.581968,206.174728 5.789777,213.883774 6.725530,221.222443 
	C7.703631,228.893219 12.507831,235.122147 19.945087,237.451492 
	C32.732529,241.456451 45.743961,241.941620 58.924953,235.526215 
M8.041260,257.788361 
	C7.383102,260.338348 6.209133,262.877716 6.156242,265.440216 
	C5.929469,276.426849 5.922210,287.421600 6.052945,298.410828 
	C6.146844,306.303772 10.966359,312.769806 18.803024,313.137909 
	C33.853878,313.844971 48.961487,313.343781 64.207451,313.343781 
	C64.207451,309.936676 64.207451,306.370331 64.207451,302.301849 
	C62.249256,302.301849 60.626717,302.296539 59.004219,302.302734 
	C47.513908,302.346588 36.023594,302.428040 24.533306,302.424103 
	C18.338802,302.421967 17.266666,301.377228 17.212830,295.148010 
	C17.136553,286.322601 17.175676,277.495850 17.213615,268.669891 
	C17.242380,261.978149 18.288742,260.990356 25.103857,260.989227 
	C38.063137,260.987091 51.022419,260.988617 64.256866,260.988617 
	C64.256866,257.037872 64.256866,253.472412 64.256866,249.709686 
	C49.523354,249.709686 35.095806,249.639114 20.669573,249.746017 
	C15.247669,249.786163 11.220118,252.545609 8.041260,257.788361 
M137.461990,208.699173 
	C137.586182,205.548920 138.011078,202.376328 137.779114,199.252518 
	C137.034378,189.222794 130.219467,181.533844 121.123863,181.096863 
	C111.824203,180.650085 102.478195,180.681198 93.171394,181.021088 
	C85.471939,181.302261 80.073517,186.747009 79.829536,194.455078 
	C79.461075,206.095825 79.600220,217.752731 79.532791,229.402832 
	C79.514801,232.509796 79.530075,235.616943 79.530075,238.628784 
	C83.406540,238.628784 86.631844,238.628784 89.995476,238.628784 
	C89.995476,224.445160 90.083275,210.636520 89.941345,196.830231 
	C89.899406,192.750870 91.563286,191.038803 95.536179,191.076004 
	C102.859703,191.144562 110.186745,190.984741 117.507713,191.138824 
	C124.608505,191.288300 127.516724,194.908798 127.481491,203.096832 
	C127.447762,210.936829 124.645470,214.025085 117.298683,214.095551 
	C109.848427,214.167007 102.396957,214.111328 94.673141,214.111328 
	C94.673141,217.786133 94.673141,221.018082 94.673141,224.116959 
	C104.017769,224.116959 113.173874,224.820786 122.165833,223.907822 
	C130.246735,223.087402 135.667908,217.931595 137.461990,208.699173 
M364.170441,186.479660 
	C364.170441,184.712128 364.170441,182.944595 364.170441,180.894485 
	C347.950012,180.894485 332.342316,180.887619 316.734650,180.899750 
	C313.221527,180.902481 311.362915,183.095062 311.353149,186.219162 
	C311.311035,199.687347 311.214691,213.170380 311.799652,226.619232 
	C312.093964,233.385727 315.967743,237.051117 322.727112,238.358109 
	C326.112427,239.012711 329.662415,238.946609 333.139557,238.970856 
	C343.395935,239.042404 353.653168,238.996399 363.854309,238.996399 
	C363.854309,235.293228 363.854309,232.211456 363.854309,228.778534 
	C361.919373,228.778534 360.287109,228.775040 358.654816,228.779099 
	C348.504822,228.804398 338.354767,228.858887 328.204865,228.840302 
	C325.329193,228.835037 322.029633,228.826157 321.971405,224.839355 
	C321.809448,213.749008 321.915161,202.654770 321.915161,191.098770 
	C324.005737,191.098770 325.628296,191.098312 327.250885,191.098846 
	C338.399323,191.102570 349.549286,191.007401 360.695221,191.176697 
	C363.661896,191.221756 364.560486,190.130707 364.170441,186.479660 
M134.196518,313.874390 
	C134.593079,310.228546 134.989624,306.582672 135.472137,302.146606 
	C118.891617,302.146606 103.209770,302.146606 87.060471,302.146606 
	C87.060471,284.206909 87.060471,266.984467 87.060471,249.628799 
	C83.161179,249.628799 79.763252,249.628799 75.972015,249.628799 
	C75.972015,251.432785 75.972229,252.902878 75.971977,254.372971 
	C75.969131,271.350677 75.960648,288.328369 75.965965,305.306061 
	C75.968193,312.408112 77.555222,313.985840 84.809074,313.992737 
	C100.954460,314.008118 117.099892,313.989166 134.196518,313.874390 
M238.390625,156.235306 
	C247.348892,161.759552 257.540894,160.712784 264.271057,153.577255 
	C270.187927,147.304001 271.236786,135.925766 266.355865,129.129959 
	C261.625031,122.543068 255.154358,119.129684 247.019547,120.384895 
	C238.573944,121.688065 232.805740,126.582077 230.618423,135.057510 
	C228.440445,143.496796 230.961639,150.427170 238.390625,156.235306 
M139.949539,136.057617 
	C139.715103,135.261093 139.509689,134.454681 139.241776,133.669586 
	C136.462845,125.526566 130.315170,121.170235 122.210114,120.311050 
	C114.156944,119.457367 107.453636,122.931351 103.401756,130.105957 
	C99.298683,137.371231 99.640976,144.830750 104.455017,151.725388 
	C109.489159,158.935257 119.064201,161.575760 127.600754,158.449631 
	C136.236603,155.287125 140.588104,147.765793 139.949539,136.057617 
M176.332108,193.951126 
	C176.084335,190.827454 178.244385,191.079025 180.290985,191.085449 
	C186.721115,191.105652 193.151367,191.092880 199.701630,191.092880 
	C199.701630,187.439056 199.701630,184.362183 199.701630,181.064056 
	C180.740463,181.064056 162.032410,181.064056 143.194672,181.064056 
	C143.194672,184.491302 143.194672,187.666519 143.194672,191.310974 
	C150.989517,191.310974 158.398987,191.310974 166.167786,191.310974 
	C166.167786,207.362122 166.167786,222.940216 166.167786,238.643402 
	C169.760757,238.643402 172.961044,238.643402 176.331177,238.643402 
	C176.331177,223.817352 176.331177,209.347458 176.332108,193.951126 
M208.054703,190.534561 
	C208.054703,206.580063 208.054703,222.625549 208.054703,238.695297 
	C211.786972,238.695297 214.858505,238.695297 217.838379,238.695297 
	C217.838379,219.250305 217.838379,200.101501 217.838379,181.011688 
	C214.471558,181.011688 211.524628,181.011688 208.055206,181.011688 
	C208.055206,183.994766 208.055206,186.770142 208.054703,190.534561 
M352.469116,204.822006 
	C343.848999,204.822006 335.228882,204.822006 326.472229,204.822006 
	C326.472229,208.499924 326.472229,211.696945 326.472229,215.103027 
	C332.167175,215.103027 337.492340,215.103043 342.817474,215.103043 
	C348.267090,215.103043 353.716736,215.103027 359.146484,215.103027 
	C359.146484,211.400452 359.146484,208.316666 359.146484,204.818588 
	C357.052917,204.818588 355.256744,204.818588 352.469116,204.822006 
z"/>
<path fill="#526086" opacity="1.000000" stroke="none" 
	d="
M199.811905,42.801418 
	C188.339111,62.544613 177.055664,81.971916 165.762024,101.393280 
	C161.624100,108.509171 155.314926,112.294075 147.200577,111.728691 
	C139.190842,111.170593 133.013229,107.090569 129.983612,99.289833 
	C127.542770,93.005112 128.219299,86.783043 131.533600,81.022484 
	C143.482574,60.254066 155.465485,39.503826 167.634216,18.863846 
	C172.843384,10.028369 182.072815,6.502920 191.089615,9.298641 
	C199.566940,11.927093 205.751480,20.073139 204.789139,29.056095 
	C204.296967,33.650181 201.663086,38.014828 199.811905,42.801418 
z"/>
<path fill="#526086" opacity="1.000000" stroke="none" 
	d="
M182.543091,159.633789 
	C167.627975,156.505890 161.005783,142.614365 168.256851,129.791367 
	C178.819321,111.112350 189.545593,92.523170 200.439682,74.035721 
	C205.269394,65.839600 213.459244,62.440617 222.102905,64.265053 
	C230.271805,65.989281 236.257187,72.171646 237.253265,81.340233 
	C237.657608,85.062103 236.879654,89.517242 235.077499,92.774399 
	C224.527405,111.842308 213.618668,130.715149 202.606033,149.522110 
	C198.301422,156.873322 191.603195,160.372803 182.543091,159.633789 
z"/>
<path fill="#556389" opacity="1.000000" stroke="none" 
	d="
M146.211166,259.285522 
	C151.466537,252.579453 158.112656,249.199112 166.210129,248.968491 
	C173.035248,248.774109 179.881821,248.705017 186.699356,249.013168 
	C198.366608,249.540588 208.400940,257.821289 209.888641,269.385864 
	C210.937576,277.539886 210.857361,286.053467 209.792877,294.212341 
	C208.373672,305.089630 199.478500,313.196594 188.008560,314.435852 
	C180.114868,315.288757 171.979965,315.302185 164.087219,314.448578 
	C151.882980,313.128784 143.371658,305.181091 141.823624,292.961975 
	C140.395660,281.690796 138.876343,269.972992 146.211166,259.285522 
M157.717606,299.908844 
	C159.020004,300.631866 160.307846,301.950256 161.627106,301.982513 
	C171.021133,302.211945 180.500946,302.934296 189.791565,301.958466 
	C195.796371,301.327759 198.654800,295.799805 199.019012,289.818878 
	C199.332199,284.675415 199.260086,279.491760 199.059738,274.337494 
	C198.736313,266.016998 193.044769,260.331146 184.745834,260.064087 
	C178.755524,259.871338 172.747055,259.854523 166.758865,260.080902 
	C159.105621,260.370209 153.518005,265.553284 152.893631,273.173248 
	C152.460007,278.465515 152.181305,283.890381 152.884918,289.114380 
	C153.364624,292.675964 155.659729,295.993103 157.717606,299.908844 
z"/>
<path fill="#546289" opacity="1.000000" stroke="none" 
	d="
M352.316803,309.432098 
	C346.639923,311.098022 341.325195,313.403870 335.868622,313.811859 
	C326.598206,314.505035 317.238190,314.042358 307.916260,313.988861 
	C301.625366,313.952759 299.924652,312.255890 299.916748,306.007202 
	C299.896149,289.693359 299.912140,273.379425 299.958282,257.065643 
	C299.974182,251.442841 301.468628,249.484634 306.782867,249.447754 
	C318.090729,249.369232 329.430695,249.227951 340.703125,249.955383 
	C353.977600,250.811981 363.539337,261.374390 364.031494,274.706055 
	C364.184937,278.862335 364.122894,283.027679 364.109711,287.188721 
	C364.080139,296.508118 360.297485,303.884491 352.316803,309.432098 
M323.511414,260.982971 
	C319.442352,260.982971 315.373260,260.982971 311.408936,260.982971 
	C311.408936,275.185333 311.408936,288.575226 311.408936,302.235992 
	C320.829132,302.235992 329.943787,302.469849 339.040039,302.161743 
	C346.275604,301.916687 351.304840,297.563049 352.258636,290.332550 
	C352.989685,284.790466 353.061798,279.020844 352.412109,273.471222 
	C351.510071,265.766022 345.800201,261.235565 337.975281,261.033386 
	C333.488586,260.917480 328.996918,260.993988 323.511414,260.982971 
z"/>
<path fill="#CD272E" opacity="1.000000" stroke="none" 
	d="
M251.629700,201.373993 
	C256.022278,209.012848 260.213470,216.344543 264.841522,224.440353 
	C266.713806,221.367691 268.277374,218.914337 269.730469,216.397202 
	C275.717224,206.026733 281.690643,195.648453 287.623260,185.246964 
	C289.327820,182.258362 291.041504,179.121063 295.193329,180.311523 
	C299.036194,181.413391 299.040192,184.763611 299.027374,188.067001 
	C298.963379,204.554581 298.978241,221.042480 298.951355,237.530243 
	C298.950867,237.834167 298.776825,238.137802 298.598541,238.719742 
	C295.453247,238.719742 292.231934,238.719742 288.554443,238.719742 
	C288.554443,227.784653 288.554443,217.033737 288.554443,204.813583 
	C287.020996,206.977905 286.248108,207.902695 285.655457,208.931320 
	C280.510132,217.861801 275.473511,226.855835 270.246826,235.738159 
	C266.950378,241.340256 263.095459,241.379211 259.808533,235.809006 
	C253.910950,225.814697 248.205856,215.706818 241.537048,205.799362 
	C241.537048,216.730911 241.537048,227.662445 241.537048,238.793167 
	C237.849777,238.793167 234.747711,238.793167 231.062820,238.793167 
	C231.062820,234.338211 231.062561,230.059906 231.062866,225.781601 
	C231.063766,213.623566 231.048752,201.465500 231.075851,189.307510 
	C231.083862,185.709778 230.237396,181.437302 235.088043,180.252411 
	C239.878647,179.082245 241.171341,183.285156 242.979446,186.360565 
	C245.844604,191.233932 248.616821,196.161942 251.629700,201.373993 
z"/>
<path fill="#57648A" opacity="1.000000" stroke="none" 
	d="
M232.954834,254.204315 
	C232.970490,264.012360 232.874115,273.344940 233.030426,282.673279 
	C233.214584,293.662628 240.213913,301.314331 251.158066,301.993378 
	C258.600922,302.455139 266.095642,302.081573 274.275208,302.081573 
	C274.275208,284.658722 274.275208,267.290894 274.275208,249.613525 
	C278.389160,249.613525 281.804718,249.613525 285.597717,249.613525 
	C285.716492,250.839294 285.942841,252.099060 285.944946,253.359177 
	C285.973846,270.687836 285.985291,288.016510 285.970825,305.345184 
	C285.965118,312.172638 284.210022,313.963745 277.458038,314.000824 
	C269.627014,314.043823 261.793976,314.108551 253.964661,313.984619 
	C235.143906,313.686737 222.063217,301.638550 221.632004,284.256104 
	C221.348190,272.815765 221.578354,261.362671 221.578354,249.599335 
	C225.221786,249.599335 228.653351,249.599335 232.611984,249.599335 
	C232.720154,250.902405 232.837387,252.314682 232.954834,254.204315 
z"/>
<path fill="#CD282F" opacity="1.000000" stroke="none" 
	d="
M58.619972,235.737289 
	C45.743961,241.941620 32.732529,241.456451 19.945087,237.451492 
	C12.507831,235.122147 7.703631,228.893219 6.725530,221.222443 
	C5.789777,213.883774 5.581968,206.174728 6.770872,198.909393 
	C8.451615,188.638458 15.165315,181.737335 25.746628,180.507675 
	C33.452427,179.612167 41.430553,179.621582 49.136757,180.519440 
	C59.587643,181.737061 66.804047,188.943954 68.211945,199.396454 
	C69.134270,206.243958 68.919792,213.344757 68.358368,220.262619 
	C67.838058,226.673859 64.042786,231.651688 58.619972,235.737289 
M43.017014,190.348694 
	C37.698788,190.521545 32.341759,190.355743 27.072905,190.959473 
	C21.449228,191.603851 17.467777,195.351776 16.815460,200.960236 
	C16.166918,206.536255 15.987030,212.283615 16.564392,217.856079 
	C17.299860,224.954529 21.733150,228.810394 28.920589,229.163193 
	C35.059483,229.464478 41.247066,229.428299 47.379097,229.024643 
	C53.115509,228.647018 57.236824,224.641785 58.052620,218.918045 
	C58.612568,214.989319 58.692230,210.967026 58.683720,206.987198 
	C58.659851,195.824432 54.969646,191.751999 43.017014,190.348694 
z"/>
<path fill="#56638A" opacity="1.000000" stroke="none" 
	d="
M8.217444,257.449951 
	C11.220118,252.545609 15.247669,249.786163 20.669573,249.746017 
	C35.095806,249.639114 49.523354,249.709686 64.256866,249.709686 
	C64.256866,253.472412 64.256866,257.037872 64.256866,260.988617 
	C51.022419,260.988617 38.063137,260.987091 25.103857,260.989227 
	C18.288742,260.990356 17.242380,261.978149 17.213615,268.669891 
	C17.175676,277.495850 17.136553,286.322601 17.212830,295.148010 
	C17.266666,301.377228 18.338802,302.421967 24.533306,302.424103 
	C36.023594,302.428040 47.513908,302.346588 59.004219,302.302734 
	C60.626717,302.296539 62.249256,302.301849 64.207451,302.301849 
	C64.207451,306.370331 64.207451,309.936676 64.207451,313.343781 
	C48.961487,313.343781 33.853878,313.844971 18.803024,313.137909 
	C10.966359,312.769806 6.146844,306.303772 6.052945,298.410828 
	C5.922210,287.421600 5.929469,276.426849 6.156242,265.440216 
	C6.209133,262.877716 7.383102,260.338348 8.217444,257.449951 
z"/>
<path fill="#CD282F" opacity="1.000000" stroke="none" 
	d="
M137.359436,209.109802 
	C135.667908,217.931595 130.246735,223.087402 122.165833,223.907822 
	C113.173874,224.820786 104.017769,224.116959 94.673141,224.116959 
	C94.673141,221.018082 94.673141,217.786133 94.673141,214.111328 
	C102.396957,214.111328 109.848427,214.167007 117.298683,214.095551 
	C124.645470,214.025085 127.447762,210.936829 127.481491,203.096832 
	C127.516724,194.908798 124.608505,191.288300 117.507713,191.138824 
	C110.186745,190.984741 102.859703,191.144562 95.536179,191.076004 
	C91.563286,191.038803 89.899406,192.750870 89.941345,196.830231 
	C90.083275,210.636520 89.995476,224.445160 89.995476,238.628784 
	C86.631844,238.628784 83.406540,238.628784 79.530075,238.628784 
	C79.530075,235.616943 79.514801,232.509796 79.532791,229.402832 
	C79.600220,217.752731 79.461075,206.095825 79.829536,194.455078 
	C80.073517,186.747009 85.471939,181.302261 93.171394,181.021088 
	C102.478195,180.681198 111.824203,180.650085 121.123863,181.096863 
	C130.219467,181.533844 137.034378,189.222794 137.779114,199.252518 
	C138.011078,202.376328 137.586182,205.548920 137.359436,209.109802 
z"/>
<path fill="#CD272E" opacity="1.000000" stroke="none" 
	d="
M364.170685,186.960754 
	C364.560486,190.130707 363.661896,191.221756 360.695221,191.176697 
	C349.549286,191.007401 338.399323,191.102570 327.250885,191.098846 
	C325.628296,191.098312 324.005737,191.098770 321.915161,191.098770 
	C321.915161,202.654770 321.809448,213.749008 321.971405,224.839355 
	C322.029633,228.826157 325.329193,228.835037 328.204865,228.840302 
	C338.354767,228.858887 348.504822,228.804398 358.654816,228.779099 
	C360.287109,228.775040 361.919373,228.778534 363.854309,228.778534 
	C363.854309,232.211456 363.854309,235.293228 363.854309,238.996399 
	C353.653168,238.996399 343.395935,239.042404 333.139557,238.970856 
	C329.662415,238.946609 326.112427,239.012711 322.727112,238.358109 
	C315.967743,237.051117 312.093964,233.385727 311.799652,226.619232 
	C311.214691,213.170380 311.311035,199.687347 311.353149,186.219162 
	C311.362915,183.095062 313.221527,180.902481 316.734650,180.899750 
	C332.342316,180.887619 347.950012,180.894485 364.170441,180.894485 
	C364.170441,182.944595 364.170441,184.712128 364.170685,186.960754 
z"/>
<path fill="#55638A" opacity="1.000000" stroke="none" 
	d="
M133.720917,313.929321 
	C117.099892,313.989166 100.954460,314.008118 84.809074,313.992737 
	C77.555222,313.985840 75.968193,312.408112 75.965965,305.306061 
	C75.960648,288.328369 75.969131,271.350677 75.971977,254.372971 
	C75.972229,252.902878 75.972015,251.432785 75.972015,249.628799 
	C79.763252,249.628799 83.161179,249.628799 87.060471,249.628799 
	C87.060471,266.984467 87.060471,284.206909 87.060471,302.146606 
	C103.209770,302.146606 118.891617,302.146606 135.472137,302.146606 
	C134.989624,306.582672 134.593079,310.228546 133.720917,313.929321 
z"/>
<path fill="#536187" opacity="1.000000" stroke="none" 
	d="
M238.090485,156.023544 
	C230.961639,150.427170 228.440445,143.496796 230.618423,135.057510 
	C232.805740,126.582077 238.573944,121.688065 247.019547,120.384895 
	C255.154358,119.129684 261.625031,122.543068 266.355865,129.129959 
	C271.236786,135.925766 270.187927,147.304001 264.271057,153.577255 
	C257.540894,160.712784 247.348892,161.759552 238.090485,156.023544 
z"/>
<path fill="#536187" opacity="1.000000" stroke="none" 
	d="
M140.002655,136.489716 
	C140.588104,147.765793 136.236603,155.287125 127.600754,158.449631 
	C119.064201,161.575760 109.489159,158.935257 104.455017,151.725388 
	C99.640976,144.830750 99.298683,137.371231 103.401756,130.105957 
	C107.453636,122.931351 114.156944,119.457367 122.210114,120.311050 
	C130.315170,121.170235 136.462845,125.526566 139.241776,133.669586 
	C139.509689,134.454681 139.715103,135.261093 140.002655,136.489716 
z"/>
<path fill="#CD262D" opacity="1.000000" stroke="none" 
	d="
M176.331635,194.414337 
	C176.331177,209.347458 176.331177,223.817352 176.331177,238.643402 
	C172.961044,238.643402 169.760757,238.643402 166.167786,238.643402 
	C166.167786,222.940216 166.167786,207.362122 166.167786,191.310974 
	C158.398987,191.310974 150.989517,191.310974 143.194672,191.310974 
	C143.194672,187.666519 143.194672,184.491302 143.194672,181.064056 
	C162.032410,181.064056 180.740463,181.064056 199.701630,181.064056 
	C199.701630,184.362183 199.701630,187.439056 199.701630,191.092880 
	C193.151367,191.092880 186.721115,191.105652 180.290985,191.085449 
	C178.244385,191.079025 176.084335,190.827454 176.331635,194.414337 
z"/>
<path fill="#CD262D" opacity="1.000000" stroke="none" 
	d="
M208.054962,190.040039 
	C208.055206,186.770142 208.055206,183.994766 208.055206,181.011688 
	C211.524628,181.011688 214.471558,181.011688 217.838379,181.011688 
	C217.838379,200.101501 217.838379,219.250305 217.838379,238.695297 
	C214.858505,238.695297 211.786972,238.695297 208.054703,238.695297 
	C208.054703,222.625549 208.054703,206.580063 208.054962,190.040039 
z"/>
<path fill="#CC242B" opacity="1.000000" stroke="none" 
	d="
M352.964844,204.820297 
	C355.256744,204.818588 357.052917,204.818588 359.146484,204.818588 
	C359.146484,208.316666 359.146484,211.400452 359.146484,215.103027 
	C353.716736,215.103027 348.267090,215.103043 342.817474,215.103043 
	C337.492340,215.103043 332.167175,215.103027 326.472229,215.103027 
	C326.472229,211.696945 326.472229,208.499924 326.472229,204.822006 
	C335.228882,204.822006 343.848999,204.822006 352.964844,204.820297 
z"/>
<path fill="#FDFDFE" opacity="1.000000" stroke="none" 
	d="
M157.430359,299.664185 
	C155.659729,295.993103 153.364624,292.675964 152.884918,289.114380 
	C152.181305,283.890381 152.460007,278.465515 152.893631,273.173248 
	C153.518005,265.553284 159.105621,260.370209 166.758865,260.080902 
	C172.747055,259.854523 178.755524,259.871338 184.745834,260.064087 
	C193.044769,260.331146 198.736313,266.016998 199.059738,274.337494 
	C199.260086,279.491760 199.332199,284.675415 199.019012,289.818878 
	C198.654800,295.799805 195.796371,301.327759 189.791565,301.958466 
	C180.500946,302.934296 171.021133,302.211945 161.627106,301.982513 
	C160.307846,301.950256 159.020004,300.631866 157.430359,299.664185 
z"/>
<path fill="#FCFCFD" opacity="1.000000" stroke="none" 
	d="
M324.009460,260.983398 
	C328.996918,260.993988 333.488586,260.917480 337.975281,261.033386 
	C345.800201,261.235565 351.510071,265.766022 352.412109,273.471222 
	C353.061798,279.020844 352.989685,284.790466 352.258636,290.332550 
	C351.304840,297.563049 346.275604,301.916687 339.040039,302.161743 
	C329.943787,302.469849 320.829132,302.235992 311.408936,302.235992 
	C311.408936,288.575226 311.408936,275.185333 311.408936,260.982971 
	C315.373260,260.982971 319.442352,260.982971 324.009460,260.983398 
z"/>
<path fill="#FEFBFB" opacity="1.000000" stroke="none" 
	d="
M43.461548,190.355728 
	C54.969646,191.751999 58.659851,195.824432 58.683720,206.987198 
	C58.692230,210.967026 58.612568,214.989319 58.052620,218.918045 
	C57.236824,224.641785 53.115509,228.647018 47.379097,229.024643 
	C41.247066,229.428299 35.059483,229.464478 28.920589,229.163193 
	C21.733150,228.810394 17.299860,224.954529 16.564392,217.856079 
	C15.987030,212.283615 16.166918,206.536255 16.815460,200.960236 
	C17.467777,195.351776 21.449228,191.603851 27.072905,190.959473 
	C32.341759,190.355743 37.698788,190.521545 43.461548,190.355728 
z"/>
</svg>