<svg version="1.1" id="Layer_1" xmlns="http://www.w3.org/2000/svg" xmlns:xlink="http://www.w3.org/1999/xlink" x="0px" y="0px"
	 width="100%" viewBox="0 0 360 360" enable-background="new 0 0 360 360" xml:space="preserve">
<path fill="#FEFEFE" opacity="1.000000" stroke="none" 
	d="
M217.000000,361.000000 
	C144.691605,361.000000 72.883217,361.000000 1.037410,361.000000 
	C1.037410,241.066620 1.037410,121.133217 1.037410,1.099906 
	C120.891663,1.099906 240.783432,1.099906 360.837585,1.099906 
	C360.837585,120.999825 360.837585,240.999893 360.837585,361.000000 
	C313.133331,361.000000 265.316650,361.000000 217.000000,361.000000 
M125.784653,230.390350 
	C125.539917,230.949203 125.295189,231.508057 125.002457,232.001617 
	C125.002457,232.001617 125.066879,232.050827 124.292206,232.032318 
	C122.012535,232.949936 119.732857,233.867538 117.422226,234.797623 
	C117.641281,236.257599 117.853561,237.672424 118.003716,239.008896 
	C118.003716,239.008896 118.087036,239.064163 117.430351,239.078506 
	C117.093300,239.526108 116.756256,239.973709 116.377312,240.486923 
	C116.377312,240.486923 116.392967,240.563171 115.655365,240.269913 
	C113.611740,241.078049 111.568108,241.886185 109.183701,242.829086 
	C109.819160,243.940506 110.440453,245.027145 110.904671,246.562271 
	C110.718651,246.847351 110.456650,247.010269 109.442055,246.939789 
	C108.462158,246.184128 107.482269,245.428467 106.419319,244.608734 
	C105.914421,247.259079 105.457352,249.658356 104.782242,252.565689 
	C104.639610,252.682373 104.496971,252.799072 104.192917,252.361893 
	C103.987953,252.209167 103.782982,252.056442 103.578011,251.903717 
	C103.831902,252.282272 104.085793,252.660812 104.226555,253.816467 
	C104.886406,255.174835 105.389091,257.536469 106.240829,257.669891 
	C107.732269,257.903534 109.864105,257.213379 110.984940,256.136963 
	C118.432831,248.984055 125.721008,241.662918 132.988983,234.325058 
	C142.340118,224.884033 151.623627,215.375992 161.424622,205.399750 
	C162.203949,207.688675 162.473694,208.984695 163.071106,210.106140 
	C163.793396,211.461960 164.793137,212.669968 165.672806,213.941956 
	C166.730118,212.837341 168.192139,211.912872 168.777374,210.598129 
	C171.957016,203.455063 174.988144,196.242889 177.899048,188.985779 
	C178.460663,187.585617 178.259903,185.879654 178.410843,184.314758 
	C176.722168,184.443787 174.870361,184.167023 173.371933,184.769333 
	C165.186981,188.059326 157.088898,191.565399 148.652603,195.084213 
	C148.332870,195.275650 148.263016,195.537476 148.422409,196.448074 
	C148.361481,196.631119 148.300537,196.814163 147.730301,197.257904 
	C148.030212,200.008789 148.030212,200.008789 152.122589,199.776688 
	C152.122589,199.776688 152.188354,199.759949 152.066635,200.649796 
	C152.068924,202.132721 152.071228,203.615646 152.012573,205.007034 
	C152.012573,205.007034 152.099457,205.074463 151.322250,205.023834 
	C149.722382,204.288315 148.122498,203.552795 146.424835,202.772324 
	C146.392731,202.807816 145.997101,203.039108 145.983688,203.290771 
	C145.782898,207.058563 145.728104,210.782364 140.062759,209.799805 
	C139.497284,209.701736 138.206924,212.029083 137.785080,213.395096 
	C137.428177,214.550873 137.842407,215.944778 137.926071,217.422180 
	C136.242645,217.820129 134.855026,218.148148 133.413788,218.488861 
	C133.657227,220.182938 133.866913,221.642120 134.007233,223.013809 
	C134.007233,223.013809 134.100891,223.074554 133.440430,223.082306 
	C133.104935,223.531113 132.769424,223.979904 132.392242,224.503983 
	C132.392242,224.503983 132.400131,224.589661 131.696335,224.272263 
	C130.484329,225.875107 129.272324,227.477951 128.004654,229.005096 
	C128.004654,229.005096 128.081223,229.059570 127.424469,229.078308 
	C127.097755,229.532761 126.771042,229.987213 126.065109,230.022415 
	C126.189690,230.161606 126.314262,230.300781 125.784653,230.390350 
M292.530701,105.824059 
	C292.757874,105.634682 292.910553,105.397392 293.343842,104.685783 
	C293.505493,104.595863 293.667114,104.505951 294.133911,105.088654 
	C297.418060,104.063583 300.702209,103.038506 304.862305,101.740028 
	C302.916382,99.109337 301.802032,97.602829 300.291382,95.514099 
	C299.589600,93.647552 298.964172,91.747925 298.172607,89.920258 
	C295.057739,82.728569 294.583801,82.560753 287.172546,84.768829 
	C283.364471,85.903404 279.275330,85.572472 277.328156,82.094757 
	C275.727020,79.235085 274.821045,75.121323 275.539612,72.009689 
	C276.988403,65.736168 277.312286,65.239059 271.466431,62.501923 
	C269.364624,61.517826 267.146759,60.783756 264.994598,59.904526 
	C260.855408,58.213528 258.119934,58.931614 256.638062,63.705910 
	C255.346832,67.866127 252.108505,70.180893 247.554016,70.159409 
	C243.271851,70.139191 240.380432,68.053307 238.636597,64.167603 
	C236.064575,58.436485 235.106232,58.042603 229.145050,60.195629 
	C227.115540,60.928627 225.100952,61.740791 223.167892,62.695660 
	C217.790268,65.352043 217.464294,66.321159 219.142151,71.999329 
	C218.761032,71.999931 218.379898,72.000534 217.560944,72.216766 
	C217.287918,72.416046 217.101349,72.677101 217.000519,73.666779 
	C217.000748,74.111336 217.000977,74.555893 217.001190,75.498444 
	C217.001190,75.498444 217.001831,75.996445 217.000473,76.823799 
	C217.423416,79.901382 216.285965,81.483513 212.289505,81.012306 
	C211.526962,81.674057 210.764420,82.335808 210.000656,83.798187 
	C210.001404,84.865715 210.002151,85.933243 210.000488,87.666061 
	C210.000320,88.109543 210.000168,88.553024 209.276276,89.125145 
	C207.536392,89.761940 205.763214,90.321800 204.065735,91.056549 
	C202.268005,91.834694 199.150970,92.184456 201.834274,95.662270 
	C200.543503,97.774284 199.252731,99.886299 197.236160,102.138657 
	C196.952301,103.202568 196.668427,104.266479 196.035477,105.247185 
	C196.035477,105.247185 196.374344,105.365547 195.626099,105.199715 
	C192.718842,105.928078 190.600662,107.312210 190.740158,111.098930 
	C190.740158,111.098930 190.338593,111.151520 189.679535,110.856506 
	C188.669189,110.411545 187.658859,109.966591 186.648499,109.521629 
	C186.373535,110.691780 186.098572,111.861931 185.188171,113.497910 
	C174.244324,115.258026 166.365524,110.452034 162.938583,100.165428 
	C162.351624,98.403587 160.909409,96.926682 160.101059,94.671700 
	C159.679474,93.812622 159.310028,92.239342 158.828262,92.204170 
	C153.608139,91.823029 152.662323,88.058823 151.914230,83.356094 
	C151.276154,82.904518 150.638077,82.452934 149.297638,81.930038 
	C147.540817,81.951019 145.783981,81.972008 143.531387,81.785446 
	C143.371902,81.472443 143.212402,81.159439 143.028564,80.038673 
	C142.641190,77.947594 142.253815,75.856514 141.897446,73.040405 
	C144.647614,65.979271 144.232941,64.981316 137.143158,61.881531 
	C135.621857,61.216385 134.067780,60.615677 132.498657,60.072315 
	C126.803795,58.100266 125.853073,58.486034 123.421455,64.050987 
	C121.715439,67.955330 118.862503,70.050682 114.583946,70.155685 
	C110.243721,70.262199 107.318993,68.065651 105.516571,64.323692 
	C102.687744,58.450790 102.086418,58.097343 96.180717,60.152264 
	C94.145973,60.860260 92.209465,61.845501 90.202209,62.638618 
	C85.686066,64.423065 83.970985,66.987297 86.536156,71.872765 
	C88.465981,75.548195 87.585884,79.367134 84.623352,82.439117 
	C81.773628,85.394119 78.279243,85.859604 74.503433,84.676651 
	C67.621567,82.520561 67.022102,82.731209 64.115677,89.320946 
	C63.112675,91.595055 62.318920,93.966034 61.512493,96.321159 
	C60.379864,99.628937 61.557991,101.868515 64.877831,102.856277 
	C69.603088,104.262192 72.197914,107.373375 72.230118,112.280357 
	C72.262955,117.280922 69.440674,120.240410 64.766365,121.597092 
	C61.286064,122.607208 60.391895,125.047882 61.514183,128.183685 
	C62.907417,132.076538 64.599159,135.862564 65.852402,140.397217 
	C65.574966,141.722244 65.297523,143.047287 64.876648,145.057343 
	C69.395470,143.467361 75.092903,146.498886 76.325623,139.255325 
	C76.499428,139.262573 76.673241,139.269836 77.124611,140.045853 
	C78.991295,141.541351 80.652519,143.571274 82.779732,144.389130 
	C85.128380,145.292114 88.197334,146.508453 90.002914,142.994675 
	C90.002914,142.994675 90.038635,143.012970 90.473267,142.791183 
	C90.743835,142.584183 90.915840,142.314362 91.000305,142.000000 
	C91.000305,142.000000 90.983368,141.987427 91.491188,141.999695 
	C91.660492,142.001633 91.829788,142.003555 92.017380,142.757874 
	C94.450386,145.570892 96.064827,149.053345 93.151993,151.898163 
	C88.555077,156.387756 91.102722,161.548172 89.904518,167.004242 
	C92.438217,167.004242 94.217499,167.004242 96.107346,167.279846 
	C96.193413,167.328735 96.279480,167.377625 96.365555,167.426498 
	C96.245094,167.283234 96.124626,167.139984 96.021065,166.210266 
	C96.546669,165.394501 97.072273,164.578751 98.313339,163.678680 
	C101.865356,165.971619 105.417381,168.264557 109.128777,171.159576 
	C109.420624,171.440369 109.712479,171.721176 110.607353,172.422791 
	C111.232185,173.958221 111.997818,175.453568 112.449196,177.038406 
	C113.144699,179.480377 113.544746,182.476181 117.010849,181.599213 
	C120.706474,180.664185 119.751686,177.661819 119.041801,175.031448 
	C116.591545,165.952347 110.309563,160.452866 101.356888,156.951019 
	C103.396912,152.106339 105.293320,147.602753 107.216660,143.035202 
	C118.777817,148.027023 129.088135,147.265030 137.766449,138.618668 
	C146.488388,129.928848 147.065414,119.586594 142.204910,108.157806 
	C146.770416,106.260979 151.309555,104.375114 156.100754,102.384529 
	C160.729141,113.861954 168.516449,120.748863 180.714310,120.830910 
	C193.129135,120.914413 201.079956,114.020088 205.740616,102.375031 
	C210.523666,104.382988 215.030487,106.274979 219.588898,108.188622 
	C214.786133,119.754768 215.412689,130.131668 224.169037,138.754837 
	C232.878784,147.332123 243.238251,147.993958 254.674652,143.044296 
	C256.597229,147.686951 258.468384,152.205353 260.445496,156.979706 
	C248.930878,161.489136 242.099014,169.209564 241.992706,181.465637 
	C241.883896,194.011993 248.933014,201.775574 260.466644,206.433578 
	C258.460358,211.178543 256.556458,215.681366 254.586517,220.340347 
	C243.264145,215.205353 233.091370,216.105118 224.437149,224.334274 
	C215.368347,232.957596 214.815079,243.485947 219.536041,255.179108 
	C214.877945,257.122528 210.345230,259.013641 205.641678,260.976044 
	C202.119934,251.494659 196.058533,245.224121 186.482025,243.191727 
	C184.867157,242.849014 182.795258,244.659882 180.934540,245.475708 
	C182.207291,246.904190 183.242538,249.183945 184.793106,249.616547 
	C192.236221,251.693039 196.930069,256.262604 198.951141,263.626984 
	C200.083359,267.752594 202.843597,269.036438 206.560410,267.642151 
	C212.463409,265.427734 218.262848,262.917786 224.018951,260.338440 
	C227.628830,258.720856 228.076279,255.909973 226.436920,252.458633 
	C221.997299,243.111847 222.842392,235.546188 228.888855,229.530594 
	C235.073074,223.378021 242.811020,222.426697 251.811127,226.984253 
	C255.316025,228.759094 258.113983,228.290131 259.753418,224.821976 
	C262.377136,219.271713 264.787659,213.600830 266.919159,207.844254 
	C268.502228,203.568771 267.225250,200.728851 262.303406,199.297699 
	C253.617523,196.772034 248.827896,190.082993 248.827621,181.637558 
	C248.827332,173.274948 253.819931,166.485184 262.335693,163.992203 
	C266.702850,162.713715 268.508087,160.427887 267.531036,155.750717 
	C267.383453,155.502045 267.235870,155.253372 266.814972,154.553680 
	C266.825043,154.378174 266.835144,154.202667 267.443726,153.601547 
	C267.628754,152.401642 267.813782,151.201736 268.385559,149.460464 
	C269.590973,147.972626 270.796417,146.484787 272.872070,144.999435 
	C274.855682,144.939926 277.640472,145.698883 278.683228,144.678192 
	C283.029907,140.423462 286.944427,143.560379 291.222107,144.912155 
	C291.145111,143.575165 291.081970,142.478561 291.749512,141.298080 
	C292.714966,141.136520 293.680420,140.974960 295.284393,141.062714 
	C295.826324,139.974075 296.368286,138.885452 297.035095,137.094620 
	C298.081512,134.479004 299.107666,131.855057 300.179169,129.249756 
	C301.699493,125.553192 300.961334,122.782219 296.779388,120.580437 
	C294.515228,117.387085 292.251099,114.193726 289.927429,110.345604 
	C290.034424,109.923637 290.141449,109.501663 290.773865,109.273720 
	C291.211792,108.241470 291.649719,107.209229 292.050903,106.066864 
	C292.050903,106.066864 292.165771,106.049934 292.530701,105.824059 
M139.882309,167.963776 
	C143.316772,171.902954 144.622665,171.576721 147.293686,166.112259 
	C154.711731,150.936172 170.482361,142.573563 186.816360,145.154770 
	C202.654007,147.657547 215.053986,160.249023 217.626907,176.441147 
	C220.105637,192.040527 211.639252,207.683762 196.754227,214.996750 
	C195.859375,215.436386 194.610184,215.600647 194.113983,216.306458 
	C193.264816,217.514343 192.026566,219.639587 192.493164,220.315536 
	C193.285645,221.463562 195.252487,222.240601 196.769150,222.317413 
	C198.113678,222.385513 199.558685,221.370941 200.888367,220.694748 
	C218.307953,211.836319 227.531738,193.015045 224.053955,173.482178 
	C220.765060,155.010040 205.082535,140.371017 186.166672,138.115875 
	C165.666962,135.671890 144.566086,148.940796 139.882309,167.963776 
M83.849785,228.349899 
	C76.999603,235.148697 70.098709,241.897507 63.323349,248.770065 
	C60.475700,251.658600 60.591637,254.969177 63.486401,255.425110 
	C65.037827,255.669464 67.267372,254.512314 68.518936,253.296112 
	C78.307747,243.783859 87.998405,234.167648 97.570076,224.436691 
	C100.450363,221.508484 102.859680,218.117004 105.484741,214.937744 
	C107.662628,217.779526 108.074471,219.546661 108.847794,221.138138 
	C109.288887,222.045883 110.216164,223.010162 111.124954,223.284149 
	C111.640419,223.439560 112.915421,222.405807 113.244247,221.646118 
	C116.877518,213.252365 120.527199,204.860031 123.854103,196.342957 
	C124.813728,193.886246 123.310280,192.286423 120.625580,193.368088 
	C112.295052,196.724396 104.018967,200.219437 95.782990,203.801422 
	C94.928612,204.173019 93.892212,205.575226 94.007683,206.337555 
	C94.133995,207.171417 95.393967,208.045410 96.351074,208.493088 
	C97.875320,209.205978 99.557899,209.580338 102.103531,210.395782 
	C95.693428,216.686630 90.016411,222.258026 83.849785,228.349899 
M151.596619,247.182816 
	C150.675018,247.569809 149.700119,247.864639 148.841736,248.360947 
	C146.218658,249.877670 143.640396,251.471909 141.044708,253.035995 
	C143.525940,254.547653 146.007187,256.059326 149.067245,257.923615 
	C146.456650,260.420135 143.911484,262.775574 141.453278,265.218536 
	C131.055099,275.552277 120.611275,285.842712 110.406776,296.364868 
	C109.335365,297.469635 109.731415,299.997589 109.446625,301.865234 
	C111.328911,301.667694 113.309265,301.760315 115.058487,301.169098 
	C116.195084,300.784912 117.001053,299.410309 117.944542,298.468811 
	C128.676361,287.759277 139.402756,277.044312 150.141098,266.341339 
	C151.362198,265.124268 152.647354,263.971466 154.269287,262.443665 
	C154.884979,264.486053 155.074005,265.836151 155.685669,266.955261 
	C156.415573,268.290649 157.507462,269.428192 158.442551,270.651459 
	C159.368774,269.579346 160.622330,268.651184 161.167526,267.411469 
	C164.451523,259.944000 167.636978,252.430832 170.683609,244.863770 
	C171.165878,243.665939 170.776810,242.117279 170.790588,240.730835 
	C169.395035,240.811020 167.870255,240.554199 166.626770,241.031006 
	C161.811340,242.877441 157.085495,244.957565 151.596619,247.182816 
M144.516937,72.412712 
	C144.516937,72.412712 144.582718,72.523277 144.516937,72.412712 
z"/>
<path fill="#213742" opacity="1.000000" stroke="none" 
	d="
M190.338593,111.151520 
	C190.338593,111.151520 190.740158,111.098930 191.181717,110.865189 
	C193.206955,108.876144 194.790649,107.120842 196.374344,105.365540 
	C196.374344,105.365547 196.035477,105.247185 196.455246,105.085732 
	C197.237335,103.948959 197.599640,102.973633 197.961960,101.998314 
	C199.252731,99.886299 200.543503,97.774284 202.446869,95.414017 
	C205.970093,95.804268 208.880707,96.442787 211.992157,97.319290 
	C212.791687,97.681938 213.390396,97.806602 214.267258,98.154068 
	C216.511749,99.269249 218.505493,100.106293 220.439651,101.063698 
	C228.389694,104.998993 228.514832,105.368507 225.012283,113.393967 
	C220.417419,123.922264 226.609909,136.222290 237.812073,138.817917 
	C243.934494,140.236526 251.198563,138.121140 253.989487,134.090179 
	C254.028336,134.034042 253.858139,133.833191 253.785507,133.699905 
	C253.920731,133.729080 254.055969,133.758255 255.650833,134.102341 
	C257.763092,137.235779 260.532532,141.162476 263.090698,145.222321 
	C264.223541,147.020111 264.928772,149.087372 265.833374,151.359146 
	C266.174194,152.466370 266.509735,153.246765 266.845276,154.027161 
	C266.835144,154.202667 266.825043,154.378174 266.921875,155.037109 
	C267.110809,155.672943 267.192841,155.825348 267.274902,155.977768 
	C268.508087,160.427887 266.702850,162.713715 262.335693,163.992203 
	C253.819931,166.485184 248.827332,173.274948 248.827621,181.637558 
	C248.827896,190.082993 253.617523,196.772034 262.303406,199.297699 
	C267.225250,200.728851 268.502228,203.568771 266.919159,207.844254 
	C264.787659,213.600830 262.377136,219.271713 259.753418,224.821976 
	C258.113983,228.290131 255.316025,228.759094 251.811127,226.984253 
	C242.811020,222.426697 235.073074,223.378021 228.888855,229.530594 
	C222.842392,235.546188 221.997299,243.111847 226.436920,252.458633 
	C228.076279,255.909973 227.628830,258.720856 224.018951,260.338440 
	C218.262848,262.917786 212.463409,265.427734 206.560410,267.642151 
	C202.843597,269.036438 200.083359,267.752594 198.951141,263.626984 
	C196.930069,256.262604 192.236221,251.693039 184.793106,249.616547 
	C183.242538,249.183945 182.207291,246.904190 180.934540,245.475708 
	C182.795258,244.659882 184.867157,242.849014 186.482025,243.191727 
	C196.058533,245.224121 202.119934,251.494659 205.641678,260.976044 
	C210.345230,259.013641 214.877945,257.122528 219.536041,255.179108 
	C214.815079,243.485947 215.368347,232.957596 224.437149,224.334274 
	C233.091370,216.105118 243.264145,215.205353 254.586517,220.340347 
	C256.556458,215.681366 258.460358,211.178543 260.466644,206.433578 
	C248.933014,201.775574 241.883896,194.011993 241.992706,181.465637 
	C242.099014,169.209564 248.930878,161.489136 260.445496,156.979706 
	C258.468384,152.205353 256.597229,147.686951 254.674652,143.044296 
	C243.238251,147.993958 232.878784,147.332123 224.169037,138.754837 
	C215.412689,130.131668 214.786133,119.754768 219.588898,108.188622 
	C215.030487,106.274979 210.523666,104.382988 205.740616,102.375031 
	C201.079956,114.020088 193.129135,120.914413 180.714310,120.830910 
	C168.516449,120.748863 160.729141,113.861954 156.100754,102.384529 
	C151.309555,104.375114 146.770416,106.260979 142.204910,108.157806 
	C147.065414,119.586594 146.488388,129.928848 137.766449,138.618668 
	C129.088135,147.265030 118.777817,148.027023 107.216660,143.035202 
	C105.293320,147.602753 103.396912,152.106339 101.356888,156.951019 
	C110.309563,160.452866 116.591545,165.952347 119.041801,175.031448 
	C119.751686,177.661819 120.706474,180.664185 117.010849,181.599213 
	C113.544746,182.476181 113.144699,179.480377 112.449196,177.038406 
	C111.997818,175.453568 111.232185,173.958221 110.250542,171.902008 
	C109.585617,171.106659 109.277512,170.832092 108.969406,170.557510 
	C105.417381,168.264557 101.865356,165.971619 97.573563,163.396118 
	C95.959229,162.842880 95.084671,162.572205 94.173416,162.317505 
	C94.136726,162.333466 94.058075,162.318649 94.425293,162.065216 
	C94.816376,159.727982 94.317131,157.463181 94.963638,155.594849 
	C96.796768,150.297318 98.858299,145.046783 101.280838,139.993958 
	C103.873306,134.586685 105.549179,134.250488 111.077896,137.005722 
	C117.917786,140.414368 124.572731,140.046829 130.790268,135.657135 
	C139.165512,129.744049 140.915543,117.180527 134.385956,110.695740 
	C134.329895,110.680176 134.299866,110.567749 134.536591,110.235733 
	C132.327408,103.780449 138.195358,103.432373 141.218460,100.975327 
	C141.770569,100.960556 142.017456,100.799965 142.424744,100.435501 
	C142.776459,100.227104 142.888733,100.101067 143.262619,99.980011 
	C143.670624,99.890137 143.817017,99.795280 144.306381,99.649796 
	C149.720322,98.172150 154.791306,96.745155 159.862274,95.318153 
	C160.909409,96.926682 162.351624,98.403587 162.938583,100.165428 
	C166.365524,110.452034 174.244324,115.258026 185.855377,113.279022 
	C187.794601,112.423927 189.066605,111.787727 190.338593,111.151520 
z"/>
<path fill="#FDFEFE" opacity="1.000000" stroke="none" 
	d="
M211.791321,97.081299 
	C208.880707,96.442787 205.970093,95.804268 202.678284,95.158920 
	C199.150970,92.184456 202.268005,91.834694 204.065735,91.056549 
	C205.763214,90.321800 207.536392,89.761940 209.864594,88.916840 
	C210.302917,88.139275 210.152908,87.570023 210.002914,87.000771 
	C210.002151,85.933243 210.001404,84.865715 210.354645,83.393341 
	C211.471008,82.326477 212.233368,81.664459 212.995728,81.002441 
	C216.285965,81.483513 217.423416,79.901382 217.168091,76.322159 
	C217.224197,75.547173 217.112701,75.273811 217.001221,75.000450 
	C217.000977,74.555893 217.000748,74.111336 217.219757,73.225525 
	C217.711746,72.584839 217.898346,72.323792 217.998779,72.001129 
	C218.379898,72.000534 218.761032,71.999931 219.583405,72.335144 
	C220.140900,73.396889 220.257141,74.122833 220.033203,75.072495 
	C219.460144,77.135468 219.227280,78.974739 218.856354,81.117477 
	C217.432175,82.613495 216.146027,83.806046 214.487762,85.095291 
	C210.305145,90.686844 214.887878,92.841774 217.968658,95.300179 
	C221.016403,92.836601 224.008499,90.417992 227.054306,88.138161 
	C227.193466,88.326576 227.278915,88.376213 227.364380,88.425842 
	C227.242722,88.284081 227.121048,88.142311 227.050522,87.589630 
	C227.351593,84.264854 227.601517,81.350983 227.742050,78.066727 
	C227.615219,76.156746 227.597794,74.617142 228.023071,73.057793 
	C230.344208,73.772346 232.222656,74.506653 234.101089,75.240967 
	C234.023468,75.446907 233.945831,75.652855 233.868210,75.858803 
	C236.033401,75.858803 238.198608,75.858803 240.705750,75.911514 
	C242.375412,76.358948 243.703125,76.753670 245.231415,77.390137 
	C247.776688,78.963516 250.240677,81.390488 251.972778,76.957176 
	C251.991852,76.992699 251.921768,76.952805 252.113586,76.924393 
	C252.560730,76.814552 252.765579,76.664276 253.236252,76.277672 
	C254.016144,76.002571 254.479706,75.894958 254.997681,76.134460 
	C259.802460,79.410736 260.462036,74.848488 262.182312,72.368210 
	C264.117859,72.597229 265.890381,72.806953 267.688538,73.386650 
	C267.611755,74.237267 267.509308,74.717918 267.254944,75.502274 
	C266.738678,77.541313 265.891388,79.362801 266.180145,80.981644 
	C266.372009,82.057152 268.187897,82.842964 269.274231,83.781639 
	C269.271637,83.804840 269.225159,83.800224 269.147156,84.181000 
	C267.060242,86.033936 265.051392,87.506104 262.756409,88.913651 
	C261.666382,88.304649 260.862427,87.760262 259.890076,86.924889 
	C259.101501,86.464363 258.481415,86.294823 257.902649,86.108574 
	C257.944031,86.091866 257.943970,86.181084 257.750488,85.862976 
	C256.591705,85.405205 255.626389,85.265541 254.318542,85.147827 
	C253.305405,85.038445 252.634781,84.907120 251.785889,84.496521 
	C250.358185,84.282150 249.108749,84.347061 247.628021,84.475960 
	C247.043564,84.573921 246.761749,84.448120 246.282074,84.152130 
	C245.700714,84.297310 245.388550,84.452919 244.679321,84.718460 
	C243.187683,84.889488 242.093155,84.950584 240.991302,84.649536 
	C240.601364,83.716621 240.218719,83.145836 239.836075,82.575050 
	C239.636597,83.594315 239.437119,84.613579 238.938812,85.798965 
	C235.546707,87.612694 232.453430,89.260300 229.060883,91.045914 
	C227.369827,91.627274 225.978012,92.070641 224.220856,92.630386 
	C224.903671,94.064728 225.682922,95.701630 226.515823,97.451233 
	C227.494080,96.884598 228.325333,96.403091 229.483521,96.076584 
	C232.170914,95.637199 234.808426,95.527206 236.843323,94.363487 
	C245.074295,89.656364 255.775009,90.971062 262.529266,97.863319 
	C269.114136,104.582672 270.142700,115.095421 264.753662,123.152458 
	C264.380219,123.638756 264.242096,123.975899 264.009186,124.600449 
	C263.545563,125.602356 263.176697,126.316864 262.508850,127.225464 
	C261.736084,129.006851 261.262390,130.594131 260.838348,132.014969 
	C263.951721,132.823929 266.303162,133.434906 269.820831,134.348923 
	C270.109619,132.201218 270.401154,130.033142 270.786499,127.579025 
	C271.233429,126.820702 271.586548,126.348427 272.124847,126.140831 
	C277.023010,124.963654 277.728149,122.755623 274.722412,118.560364 
	C274.850006,117.816643 274.966431,117.398941 275.320984,116.780525 
	C275.500305,115.419678 275.441559,114.259544 275.299683,112.669724 
	C275.157867,110.490280 275.099152,108.740532 275.315979,106.719551 
	C275.975952,103.709839 276.360382,100.971367 276.657440,98.855202 
	C275.642761,97.579971 274.877441,96.618149 274.112122,95.656311 
	C275.138977,95.096733 276.113342,94.260452 277.207001,94.052834 
	C278.378052,93.830505 279.719940,94.469879 280.876038,94.219574 
	C281.686279,94.044151 282.309998,93.007256 283.428406,92.288986 
	C285.226654,92.182610 286.613556,92.142326 288.074158,92.452866 
	C289.442322,93.201485 290.736755,93.599281 292.187866,94.180305 
	C292.344543,94.363525 292.477539,94.826996 292.156952,94.981384 
	C291.550323,95.991478 291.264282,96.847183 290.724182,97.916962 
	C289.256531,99.067390 288.042969,100.003754 286.500000,100.891281 
	C285.781616,99.895805 285.392639,98.949173 285.141998,97.947548 
	C285.186035,97.927269 285.091766,97.961983 284.639526,98.039314 
	C279.650665,100.638664 282.396545,104.112976 283.141449,107.684830 
	C283.007416,108.710762 282.862335,109.388870 282.509766,110.291992 
	C281.832611,115.603722 281.362976,120.690437 280.994659,124.679649 
	C284.244049,125.932037 287.026672,127.004509 290.087280,128.184143 
	C288.620209,129.864319 287.711487,130.905029 286.421021,131.970917 
	C282.783203,132.604752 279.527161,133.213379 276.201050,133.438416 
	C275.150513,132.924164 273.826691,132.336212 273.262451,132.759857 
	C272.155182,133.591293 271.716339,135.418594 270.567688,136.070312 
	C266.239868,138.525803 268.353851,140.217590 271.007507,141.995483 
	C271.000000,142.000000 271.012573,141.986847 271.027985,142.307770 
	C271.362885,143.418121 271.682343,144.207535 272.001831,144.996948 
	C270.796417,146.484787 269.590973,147.972626 267.914856,149.848511 
	C266.905457,150.501801 266.366791,150.767044 265.828094,151.032303 
	C264.928772,149.087372 264.223541,147.020111 263.090698,145.222321 
	C260.532532,141.162476 257.763092,137.235779 255.650833,134.102341 
	C254.055969,133.758255 253.920731,133.729080 253.785507,133.699905 
	C253.858139,133.833191 254.028336,134.034042 253.989487,134.090179 
	C251.198563,138.121140 243.934494,140.236526 237.812073,138.817917 
	C226.609909,136.222290 220.417419,123.922264 225.012283,113.393967 
	C228.514832,105.368507 228.389694,104.998993 220.439651,101.063698 
	C218.505493,100.106293 216.511749,99.269249 214.070007,97.909653 
	C212.993515,97.322060 212.392426,97.201675 211.791321,97.081299 
M260.295685,124.433144 
	C260.010620,124.705162 259.725555,124.977188 259.440491,125.249222 
	C259.553284,125.367180 259.757904,125.593933 259.765594,125.587425 
	C260.066254,125.333549 260.348938,125.058411 260.295685,124.433144 
M278.920929,114.479439 
	C278.775879,114.235657 278.630859,113.991875 278.485840,113.748100 
	C278.351501,113.999443 278.056061,114.314636 278.123901,114.485832 
	C278.207367,114.696449 278.593872,114.786964 278.920929,114.479439 
M264.524689,85.628822 
	C264.470398,85.840210 264.416107,86.051605 264.361786,86.262985 
	C264.495178,86.127167 264.628601,85.991341 264.524689,85.628822 
M261.412537,83.483017 
	C261.412537,83.483017 261.523010,83.417213 261.412537,83.483017 
M237.409241,78.482605 
	C237.409241,78.482605 237.523209,78.413918 237.409241,78.482605 
z"/>
<path fill="#FDFDFE" opacity="1.000000" stroke="none" 
	d="
M140.992279,100.951012 
	C138.195358,103.432373 132.327408,103.780449 134.348969,110.348709 
	C133.923431,110.981606 133.922241,111.169510 133.921036,111.357407 
	C134.094681,111.142036 134.268341,110.926659 134.441986,110.711288 
	C140.915543,117.180527 139.165512,129.744049 130.790268,135.657135 
	C124.572731,140.046829 117.917786,140.414368 111.077896,137.005722 
	C105.549179,134.250488 103.873306,134.586685 101.280838,139.993958 
	C98.858299,145.046783 96.796768,150.297318 94.963638,155.594849 
	C94.317131,157.463181 94.816376,159.727982 94.515335,162.304443 
	C94.328270,162.886917 94.418365,162.976715 94.508469,163.066513 
	C94.409019,162.811523 94.309563,162.556534 94.210114,162.301544 
	C95.084671,162.572205 95.959229,162.842880 97.215828,163.438263 
	C97.072273,164.578751 96.546669,165.394501 96.010529,166.605133 
	C96.000000,167.000000 95.996788,167.004242 95.996788,167.004242 
	C94.217499,167.004242 92.438217,167.004242 89.904518,167.004242 
	C91.102722,161.548172 88.555077,156.387756 93.151993,151.898163 
	C96.064827,149.053345 94.450386,145.570892 92.162781,142.068542 
	C93.922523,139.543320 94.869904,137.933289 91.874191,136.294754 
	C90.911896,135.768417 90.581154,134.087372 89.961472,132.934601 
	C90.321114,132.698593 90.680763,132.462570 91.040405,132.226547 
	C91.976410,132.952637 92.912415,133.678726 94.258934,134.723282 
	C94.926743,133.332001 95.467041,132.206345 96.216400,131.004791 
	C96.425461,130.928879 96.869987,130.945358 97.206406,131.004517 
	C98.350960,131.545166 99.159088,132.026642 99.279060,132.098129 
	C101.463707,130.915329 103.231400,129.958267 105.053314,129.139542 
	C105.193161,129.327194 105.278793,129.376511 105.364410,129.425842 
	C105.243347,129.283615 105.122284,129.141388 104.992386,128.623474 
	C103.081139,124.896996 101.664543,120.861031 96.219116,121.912704 
	C92.296638,114.092964 92.857635,106.731133 97.696785,100.020035 
	C102.454498,93.421875 109.332870,90.441795 117.301758,91.977325 
	C121.703392,92.825493 125.773499,95.394196 130.015381,97.421066 
	C130.205887,97.886765 130.374069,98.118683 130.542267,98.350601 
	C130.697266,97.940796 130.852264,97.530998 131.188629,97.031403 
	C131.369980,96.941612 131.773132,96.905655 132.149536,96.928268 
	C136.315338,95.000282 134.041351,92.923721 132.361084,90.756409 
	C127.023590,88.633308 121.977386,86.619331 116.754524,84.357491 
	C114.009422,80.513969 112.109680,83.436600 109.720657,84.885895 
	C108.709366,85.036469 108.025291,85.080673 106.953682,85.088043 
	C105.734047,85.461815 104.901955,85.872421 103.914276,86.456192 
	C102.913177,86.988136 102.067673,87.346901 101.096260,87.318474 
	C98.796761,83.951599 96.623169,80.971916 94.401947,77.630272 
	C94.450409,76.794624 94.546509,76.320930 94.695404,75.761436 
	C94.808975,75.467957 94.760529,75.285362 94.480560,74.789261 
	C94.357666,73.972450 94.357071,73.494232 94.721100,73.012100 
	C96.671364,72.794434 98.257011,72.580681 99.745178,72.380058 
	C102.700966,77.808380 104.499947,78.604782 107.400436,75.837700 
	C108.829575,76.286140 109.912704,76.691505 111.042923,77.406113 
	C113.425232,81.436760 115.090935,78.193108 117.297928,77.041016 
	C118.965424,76.575150 120.303192,76.218590 122.032120,75.898605 
	C123.252449,75.247002 124.081619,74.558823 124.944977,73.928658 
	C124.979164,73.986671 124.880814,73.894653 125.234406,73.976929 
	C126.134995,75.569588 126.681999,77.079971 127.229004,78.590355 
	C127.933945,77.956123 128.638885,77.321892 129.343826,76.687668 
	C129.483688,75.521072 129.623550,74.354477 129.784088,73.015274 
	C131.476852,73.140358 132.788315,73.237267 134.122284,73.610046 
	C134.132812,74.822220 134.120850,75.758522 134.096313,76.896606 
	C134.104462,77.372459 134.199661,77.617546 134.519272,78.185608 
	C134.706406,79.043251 134.743637,79.548927 134.553192,80.317245 
	C134.215195,82.107109 134.104874,83.634323 133.888245,86.633049 
	C135.256821,84.860664 135.702179,84.283897 136.368912,83.873871 
	C136.718628,84.382660 136.846970,84.724716 136.950897,85.391983 
	C135.632538,91.616432 142.324036,90.985863 144.043381,95.496117 
	C146.038116,93.277893 148.496277,91.749565 148.700668,89.963333 
	C148.888763,88.319656 150.481369,84.859131 146.345413,84.072586 
	C145.380661,83.335968 144.703903,82.664474 144.027161,81.992996 
	C145.783981,81.972008 147.540817,81.951019 149.690826,82.285690 
	C150.721649,83.092873 151.359299,83.544395 151.996948,83.995926 
	C152.662323,88.058823 153.608139,91.823029 158.828262,92.204170 
	C159.310028,92.239342 159.679474,93.812622 159.981659,94.994926 
	C154.791306,96.745155 149.720322,98.172150 144.183960,99.527908 
	C143.479385,99.629448 143.240204,99.802231 143.001007,99.975021 
	C142.888733,100.101067 142.776459,100.227104 142.328964,100.148384 
	C141.556290,99.477722 141.118820,99.011810 140.681366,98.545906 
	C140.504623,98.676476 140.327896,98.807053 140.151154,98.937622 
	C140.431534,99.608757 140.711899,100.279884 140.992279,100.951012 
M130.710434,81.455864 
	C130.599014,82.034431 130.487595,82.613007 130.376175,83.191582 
	C130.786423,83.196877 131.196655,83.202171 131.606903,83.207466 
	C131.508774,82.626472 131.410629,82.045471 130.710434,81.455864 
M136.737061,92.183990 
	C136.623169,92.026962 136.509293,91.869934 136.395401,91.712906 
	C136.418350,91.931305 136.441315,92.149696 136.737061,92.183990 
M102.483215,84.587883 
	C102.483215,84.587883 102.416992,84.476990 102.483215,84.587883 
M124.517395,78.409767 
	C124.517395,78.409767 124.585716,78.523285 124.517395,78.409767 
M134.588028,88.517357 
	C134.588028,88.517357 134.476990,88.583733 134.588028,88.517357 
M150.413010,88.482872 
	C150.413010,88.482872 150.522949,88.417442 150.413010,88.482872 
M96.517113,137.411453 
	C96.517113,137.411453 96.583725,137.523010 96.517113,137.411453 
z"/>
<path fill="#4786F9" opacity="1.000000" stroke="none" 
	d="
M220.373383,74.848778 
	C220.257141,74.122833 220.140900,73.396889 219.869263,72.335648 
	C217.464294,66.321159 217.790268,65.352043 223.167892,62.695660 
	C225.100952,61.740791 227.115540,60.928627 229.145050,60.195629 
	C235.106232,58.042603 236.064575,58.436485 238.636597,64.167603 
	C240.380432,68.053307 243.271851,70.139191 247.554016,70.159409 
	C252.108505,70.180893 255.346832,67.866127 256.638062,63.705910 
	C258.119934,58.931614 260.855408,58.213528 264.994598,59.904526 
	C267.146759,60.783756 269.364624,61.517826 271.466431,62.501923 
	C277.312286,65.239059 276.988403,65.736168 275.539612,72.009689 
	C274.821045,75.121323 275.727020,79.235085 277.328156,82.094757 
	C279.275330,85.572472 283.364471,85.903404 287.172546,84.768829 
	C294.583801,82.560753 295.057739,82.728569 298.172607,89.920258 
	C298.964172,91.747925 299.589600,93.647552 300.508850,96.194229 
	C301.952637,102.612625 296.488342,102.231743 293.828766,104.416046 
	C293.667114,104.505951 293.505493,104.595863 292.940430,104.959076 
	C292.252106,105.431671 292.128357,105.704193 292.165771,106.049934 
	C292.165771,106.049934 292.050903,106.066864 291.804810,106.258690 
	C291.121948,107.326904 290.685181,108.203300 290.248444,109.079697 
	C290.141449,109.501663 290.034424,109.923637 289.846252,111.068527 
	C289.737457,116.816513 291.794342,120.251251 297.004456,121.280235 
	C300.961334,122.782219 301.699493,125.553192 300.179169,129.249756 
	C299.107666,131.855057 298.081512,134.479004 296.710571,137.626694 
	C295.806000,139.043640 295.225952,139.928513 294.645874,140.813385 
	C293.680420,140.974960 292.714966,141.136520 291.039856,141.153427 
	C285.743011,138.294937 281.522247,138.253265 277.092255,141.789108 
	C275.822205,142.802811 273.079834,141.971939 271.012573,141.986847 
	C271.012573,141.986847 271.000000,142.000000 270.991150,141.613037 
	C272.745239,138.758057 274.508148,136.290024 276.271088,133.822006 
	C279.527161,133.213379 282.783203,132.604752 286.684082,132.148560 
	C292.161713,134.439209 292.264191,130.861969 293.069427,127.634773 
	C285.544128,124.086365 282.429504,118.042976 282.717255,110.066978 
	C282.862335,109.388870 283.007416,108.710762 283.376007,107.429260 
	C284.676117,104.863937 285.752747,102.902023 286.829376,100.940109 
	C288.042969,100.003754 289.256531,99.067390 291.019562,97.848892 
	C291.871857,96.653503 292.174713,95.740250 292.477539,94.826996 
	C292.477539,94.826996 292.344543,94.363525 292.171143,93.841461 
	C291.380096,90.566574 289.777161,91.049026 288.000458,92.102043 
	C286.613556,92.142326 285.226654,92.182610 283.047729,92.185699 
	C276.498138,91.572937 272.591705,88.107925 269.225159,83.800224 
	C269.225159,83.800224 269.271637,83.804840 269.202271,83.399925 
	C268.557526,80.396194 267.982208,77.797379 267.406860,75.198563 
	C267.509308,74.717918 267.611755,74.237267 267.820587,73.051056 
	C269.466522,67.338501 266.549042,67.138046 262.718262,67.855484 
	C262.402802,68.316719 262.290222,68.626144 261.932281,69.174667 
	C259.439026,71.538300 257.191132,73.662827 254.943253,75.787354 
	C254.479706,75.894958 254.016144,76.002571 253.031647,76.262802 
	C252.222870,76.494186 252.026566,76.673317 251.921768,76.952805 
	C251.921768,76.952805 251.991852,76.992699 251.539734,76.950920 
	C249.068695,76.988892 247.049774,77.068634 245.030838,77.148384 
	C243.703125,76.753670 242.375412,76.358948 240.468887,75.652328 
	C237.945496,73.619446 235.416763,72.237457 234.179840,70.105843 
	C231.722336,65.870827 229.363983,66.760155 226.378922,69.303093 
	C226.796249,70.614166 227.188309,71.845856 227.580353,73.077545 
	C227.597794,74.617142 227.615219,76.156746 227.482086,78.353027 
	C225.518982,82.094635 224.003632,85.424652 221.755661,88.150482 
	C220.781647,89.331543 218.156876,89.885223 216.555862,89.520706 
	C215.692108,89.324036 215.406387,86.588615 214.859879,84.998596 
	C216.146027,83.806046 217.432175,82.613495 219.121185,80.931793 
	C219.807159,78.578026 220.090256,76.713402 220.373383,74.848778 
z"/>
<path fill="#4786F9" opacity="1.000000" stroke="none" 
	d="
M121.640953,75.862030 
	C120.303192,76.218590 118.965424,76.575150 116.872902,77.005402 
	C114.410706,77.085014 112.703262,77.090942 110.995827,77.096870 
	C109.912704,76.691505 108.829575,76.286140 107.195602,75.586746 
	C104.371887,73.190567 102.099030,71.088417 99.812683,68.764496 
	C99.709236,68.233711 99.513275,68.023468 99.118271,67.653641 
	C98.603287,67.451622 98.181351,67.507973 97.714722,67.563904 
	C97.670044,67.563484 97.582100,67.579338 97.226654,67.527145 
	C93.041183,67.964203 93.036263,70.189407 94.356476,73.016006 
	C94.357071,73.494232 94.357666,73.972450 94.404526,74.973770 
	C94.450783,75.496864 94.642601,75.847244 94.642601,75.847244 
	C94.546509,76.320930 94.450409,76.794624 94.257599,77.979523 
	C93.669876,80.362801 93.178871,82.034874 92.453384,83.919571 
	C91.586792,85.167664 90.954681,86.203125 90.028824,87.382584 
	C88.149490,88.680183 86.563904,89.833801 84.988480,90.994339 
	C84.998634,91.001266 84.989120,90.982384 84.577675,91.023972 
	C79.808372,91.436134 75.450508,91.806702 70.376884,92.238136 
	C70.048592,93.025505 69.372116,94.647934 68.624809,96.440247 
	C75.176338,100.065132 79.258339,104.898003 79.204346,112.406281 
	C79.150742,119.859428 74.897835,124.580032 69.021271,127.879654 
	C69.537621,132.315460 71.296700,133.279556 75.455757,132.414764 
	C83.378387,130.767395 90.749802,135.688828 90.983368,141.987427 
	C90.983368,141.987427 91.000305,142.000000 90.778900,142.103821 
	C90.284950,142.411942 90.112000,142.680374 90.038635,143.012970 
	C90.038635,143.012970 90.002914,142.994675 89.603546,143.064484 
	C87.471848,142.529221 85.755486,141.872421 84.003281,141.331757 
	C81.632278,140.600174 79.233765,139.957748 76.847046,139.277069 
	C76.673241,139.269836 76.499428,139.262573 75.701805,139.423279 
	C72.118820,140.731995 69.165268,142.355850 66.161964,139.694733 
	C64.599159,135.862564 62.907417,132.076538 61.514183,128.183685 
	C60.391895,125.047882 61.286064,122.607208 64.766365,121.597092 
	C69.440674,120.240410 72.262955,117.280922 72.230118,112.280357 
	C72.197914,107.373375 69.603088,104.262192 64.877831,102.856277 
	C61.557991,101.868515 60.379864,99.628937 61.512493,96.321159 
	C62.318920,93.966034 63.112675,91.595055 64.115677,89.320946 
	C67.022102,82.731209 67.621567,82.520561 74.503433,84.676651 
	C78.279243,85.859604 81.773628,85.394119 84.623352,82.439117 
	C87.585884,79.367134 88.465981,75.548195 86.536156,71.872765 
	C83.970985,66.987297 85.686066,64.423065 90.202209,62.638618 
	C92.209465,61.845501 94.145973,60.860260 96.180717,60.152264 
	C102.086418,58.097343 102.687744,58.450790 105.516571,64.323692 
	C107.318993,68.065651 110.243721,70.262199 114.583946,70.155685 
	C118.862503,70.050682 121.715439,67.955330 123.421455,64.050987 
	C125.853073,58.486034 126.803795,58.100266 132.498657,60.072315 
	C134.067780,60.615677 135.621857,61.216385 137.143158,61.881531 
	C144.232941,64.981316 144.647614,65.979271 141.673889,73.690094 
	C141.984528,76.508659 142.518723,78.677551 143.052917,80.846436 
	C143.212402,81.159439 143.371902,81.472443 143.779266,81.889221 
	C144.703903,82.664474 145.380661,83.335968 146.466034,84.471848 
	C146.480347,86.512329 146.540787,88.918716 145.573425,89.448532 
	C144.435074,90.072006 142.213715,89.425209 140.814682,88.673141 
	C139.320480,87.869904 138.237686,86.301285 136.975311,85.066772 
	C136.846970,84.724716 136.718628,84.382660 136.315628,83.553879 
	C135.620941,82.062965 135.200897,81.058784 134.780869,80.054604 
	C134.743637,79.548927 134.706406,79.043251 134.592941,77.984711 
	C134.497620,77.121628 134.361679,76.875961 134.108887,76.694832 
	C134.120850,75.758522 134.132812,74.822220 134.355499,73.456268 
	C134.926575,71.110939 136.657043,69.206520 133.427414,67.691254 
	C130.290222,66.219360 129.306519,67.940575 127.988571,70.018944 
	C127.107208,71.408852 125.927193,72.609383 124.880814,73.894653 
	C124.880814,73.894653 124.979164,73.986671 124.635162,74.016762 
	C123.407768,74.651917 122.524361,75.256973 121.640953,75.862030 
z"/>
<path fill="#223843" opacity="1.000000" stroke="none" 
	d="
M139.833923,167.622787 
	C144.566086,148.940796 165.666962,135.671890 186.166672,138.115875 
	C205.082535,140.371017 220.765060,155.010040 224.053955,173.482178 
	C227.531738,193.015045 218.307953,211.836319 200.888367,220.694748 
	C199.558685,221.370941 198.113678,222.385513 196.769150,222.317413 
	C195.252487,222.240601 193.285645,221.463562 192.493164,220.315536 
	C192.026566,219.639587 193.264816,217.514343 194.113983,216.306458 
	C194.610184,215.600647 195.859375,215.436386 196.754227,214.996750 
	C211.639252,207.683762 220.105637,192.040527 217.626907,176.441147 
	C215.053986,160.249023 202.654007,147.657547 186.816360,145.154770 
	C170.482361,142.573563 154.711731,150.936172 147.293686,166.112259 
	C144.622665,171.576721 143.316772,171.902954 139.833923,167.622787 
z"/>
<path fill="#4786FA" opacity="1.000000" stroke="none" 
	d="
M148.239609,196.997192 
	C148.300537,196.814163 148.361481,196.631119 148.608475,195.968231 
	C148.849991,195.324661 148.905457,195.160934 148.960938,194.997192 
	C157.088898,191.565399 165.186981,188.059326 173.371933,184.769333 
	C174.870361,184.167023 176.722168,184.443787 178.410843,184.314758 
	C178.259903,185.879654 178.460663,187.585617 177.899048,188.985779 
	C174.988144,196.242889 171.957016,203.455063 168.777374,210.598129 
	C168.192139,211.912872 166.730118,212.837341 165.672806,213.941956 
	C164.793137,212.669968 163.793396,211.461960 163.071106,210.106140 
	C162.473694,208.984695 162.203949,207.688675 161.424622,205.399750 
	C151.623627,215.375992 142.340118,224.884033 132.988983,234.325058 
	C125.721008,241.662918 118.432831,248.984055 110.984940,256.136963 
	C109.864105,257.213379 107.732269,257.903534 106.240829,257.669891 
	C105.389091,257.536469 104.886406,255.174835 104.278732,253.395477 
	C104.330910,252.974472 104.354332,252.915756 104.354332,252.915756 
	C104.496971,252.799072 104.639610,252.682373 105.193192,252.173218 
	C107.108986,250.204163 108.613838,248.627594 110.118683,247.051010 
	C110.456650,247.010269 110.718651,246.847351 111.282921,246.191193 
	C113.238441,244.067810 114.815704,242.315491 116.392967,240.563171 
	C116.392967,240.563171 116.377312,240.486923 116.672440,240.402222 
	C117.340729,239.899734 117.713882,239.481949 118.087036,239.064163 
	C118.087036,239.064163 118.003716,239.008896 118.338715,238.914093 
	C120.804771,236.563126 122.935822,234.306976 125.066879,232.050827 
	C125.066879,232.050827 125.002457,232.001617 125.297668,231.930054 
	C125.874863,231.385635 126.156845,230.912796 126.438835,230.439941 
	C126.314262,230.300781 126.189690,230.161606 126.528946,230.182251 
	C127.355598,229.914566 127.718414,229.487076 128.081223,229.059570 
	C128.081223,229.059570 128.004654,229.005096 128.334534,228.912506 
	C129.909637,227.409836 131.154877,225.999741 132.400116,224.589661 
	C132.400131,224.589661 132.392242,224.503983 132.687012,224.416931 
	C133.354828,223.911438 133.727859,223.492996 134.100891,223.074554 
	C134.100891,223.074554 134.007233,223.013809 134.347916,222.922668 
	C140.492218,216.912521 146.295837,210.993484 152.099457,205.074463 
	C152.099457,205.074463 152.012573,205.007034 152.360840,204.915817 
	C154.312088,204.041260 155.915070,203.257919 157.518036,202.474594 
	C156.960083,201.791168 156.402130,201.107742 155.844177,200.424316 
	C154.625565,200.202866 153.406967,199.981400 152.188354,199.759949 
	C152.188354,199.759949 152.122589,199.776688 151.894974,199.549316 
	C150.524780,198.547043 149.382187,197.772110 148.239609,196.997192 
z"/>
<path fill="#4585FA" opacity="1.000000" stroke="none" 
	d="
M84.094589,228.089661 
	C90.016411,222.258026 95.693428,216.686630 102.103531,210.395782 
	C99.557899,209.580338 97.875320,209.205978 96.351074,208.493088 
	C95.393967,208.045410 94.133995,207.171417 94.007683,206.337555 
	C93.892212,205.575226 94.928612,204.173019 95.782990,203.801422 
	C104.018967,200.219437 112.295052,196.724396 120.625580,193.368088 
	C123.310280,192.286423 124.813728,193.886246 123.854103,196.342957 
	C120.527199,204.860031 116.877518,213.252365 113.244247,221.646118 
	C112.915421,222.405807 111.640419,223.439560 111.124954,223.284149 
	C110.216164,223.010162 109.288887,222.045883 108.847794,221.138138 
	C108.074471,219.546661 107.662628,217.779526 105.484741,214.937744 
	C102.859680,218.117004 100.450363,221.508484 97.570076,224.436691 
	C87.998405,234.167648 78.307747,243.783859 68.518936,253.296112 
	C67.267372,254.512314 65.037827,255.669464 63.486401,255.425110 
	C60.591637,254.969177 60.475700,251.658600 63.323349,248.770065 
	C70.098709,241.897507 76.999603,235.148697 84.094589,228.089661 
z"/>
<path fill="#4886FA" opacity="1.000000" stroke="none" 
	d="
M151.961456,247.066742 
	C157.085495,244.957565 161.811340,242.877441 166.626770,241.031006 
	C167.870255,240.554199 169.395035,240.811020 170.790588,240.730835 
	C170.776810,242.117279 171.165878,243.665939 170.683609,244.863770 
	C167.636978,252.430832 164.451523,259.944000 161.167526,267.411469 
	C160.622330,268.651184 159.368774,269.579346 158.442535,270.651459 
	C157.507462,269.428192 156.415573,268.290649 155.685669,266.955261 
	C155.074005,265.836151 154.884979,264.486053 154.269287,262.443665 
	C152.647354,263.971466 151.362198,265.124268 150.141098,266.341339 
	C139.402756,277.044312 128.676361,287.759277 117.944542,298.468811 
	C117.001053,299.410309 116.195084,300.784912 115.058487,301.169098 
	C113.309265,301.760315 111.328911,301.667694 109.446625,301.865234 
	C109.731415,299.997589 109.335365,297.469635 110.406776,296.364868 
	C120.611275,285.842712 131.055099,275.552277 141.453278,265.218536 
	C143.911484,262.775574 146.456650,260.420135 149.067245,257.923615 
	C146.007187,256.059326 143.525940,254.547653 141.044708,253.035995 
	C143.640396,251.471909 146.218658,249.877670 148.841736,248.360947 
	C149.700119,247.864639 150.675018,247.569809 151.961456,247.066742 
z"/>
<path fill="#F6F9FA" opacity="1.000000" stroke="none" 
	d="
M84.978317,90.987411 
	C86.563904,89.833801 88.149490,88.680183 90.183281,87.586472 
	C90.754539,87.764465 90.877579,87.882538 91.001167,88.308014 
	C92.384026,89.760399 93.766319,90.905380 95.003166,92.359299 
	C85.674706,103.004364 84.123077,115.855820 91.011879,126.737663 
	C92.142540,128.523697 94.315887,129.649658 96.007339,131.080688 
	C95.467041,132.206345 94.926743,133.332001 94.258934,134.723282 
	C92.912415,133.678726 91.976410,132.952637 91.040405,132.226547 
	C90.680763,132.462570 90.321114,132.698593 89.961472,132.934601 
	C90.581154,134.087372 90.911896,135.768417 91.874191,136.294754 
	C94.869904,137.933289 93.922523,139.543320 92.153633,141.692352 
	C91.829788,142.003555 91.660492,142.001633 91.237274,141.993561 
	C90.749802,135.688828 83.378387,130.767395 75.455757,132.414764 
	C71.296700,133.279556 69.537621,132.315460 69.021271,127.879654 
	C74.897835,124.580032 79.150742,119.859428 79.204346,112.406281 
	C79.258339,104.898003 75.176338,100.065132 68.624809,96.440247 
	C69.372116,94.647934 70.048592,93.025505 70.376884,92.238136 
	C75.450508,91.806702 79.808372,91.436134 84.629929,91.357697 
	C85.787712,91.954597 86.481789,92.259369 87.175858,92.564133 
	C87.303658,92.199936 87.431450,91.835747 87.559250,91.471550 
	C86.698936,91.310173 85.838631,91.148796 84.978317,90.987411 
z"/>
<path fill="#F3FAF7" opacity="1.000000" stroke="none" 
	d="
M151.710846,205.049149 
	C146.295837,210.993484 140.492218,216.912521 134.382599,222.966415 
	C133.866913,221.642120 133.657227,220.182938 133.413788,218.488861 
	C134.855026,218.148148 136.242645,217.820129 137.926071,217.422180 
	C137.842407,215.944778 137.428177,214.550873 137.785080,213.395096 
	C138.206924,212.029083 139.497284,209.701736 140.062759,209.799805 
	C145.728104,210.782364 145.782898,207.058563 145.983688,203.290771 
	C145.997101,203.039108 146.392731,202.807816 146.424835,202.772324 
	C148.122498,203.552795 149.722382,204.288315 151.710846,205.049149 
z"/>
<path fill="#F6F9FA" opacity="1.000000" stroke="none" 
	d="
M271.027985,142.307770 
	C273.079834,141.971939 275.822205,142.802811 277.092255,141.789108 
	C281.522247,138.253265 285.743011,138.294937 290.674500,141.195374 
	C291.081970,142.478561 291.145111,143.575165 291.222107,144.912155 
	C286.944427,143.560379 283.029907,140.423462 278.683228,144.678192 
	C277.640472,145.698883 274.855682,144.939926 272.436951,144.998199 
	C271.682343,144.207535 271.362885,143.418121 271.027985,142.307770 
z"/>
<path fill="#F6F9FA" opacity="1.000000" stroke="none" 
	d="
M66.007187,140.045975 
	C69.165268,142.355850 72.118820,140.731995 75.474739,139.551834 
	C75.092903,146.498886 69.395470,143.467361 64.876648,145.057343 
	C65.297523,143.047287 65.574966,141.722244 66.007187,140.045975 
z"/>
<path fill="#F6F9FA" opacity="1.000000" stroke="none" 
	d="
M76.985825,139.661469 
	C79.233765,139.957748 81.632278,140.600174 84.003281,141.331757 
	C85.755486,141.872421 87.471848,142.529221 89.609833,143.083481 
	C88.197334,146.508453 85.128380,145.292114 82.779732,144.389130 
	C80.652519,143.571274 78.991295,141.541351 76.985825,139.661469 
z"/>
<path fill="#ECF6F8" opacity="1.000000" stroke="none" 
	d="
M293.981323,104.752350 
	C296.488342,102.231743 301.952637,102.612625 300.707031,96.485336 
	C301.802032,97.602829 302.916382,99.109337 304.862305,101.740028 
	C300.702209,103.038506 297.418060,104.063583 293.981323,104.752350 
z"/>
<path fill="#ECF6F8" opacity="1.000000" stroke="none" 
	d="
M296.891907,120.930336 
	C291.794342,120.251251 289.737457,116.816513 289.876007,111.395905 
	C292.251099,114.193726 294.515228,117.387085 296.891907,120.930336 
z"/>
<path fill="#F3FAF7" opacity="1.000000" stroke="none" 
	d="
M124.679543,232.041565 
	C122.935822,234.306976 120.804771,236.563126 118.369781,238.953278 
	C117.853561,237.672424 117.641281,236.257599 117.422226,234.797623 
	C119.732857,233.867538 122.012535,232.949936 124.679543,232.041565 
z"/>
<path fill="#F3FAF7" opacity="1.000000" stroke="none" 
	d="
M116.024170,240.416534 
	C114.815704,242.315491 113.238441,244.067810 111.361458,245.966949 
	C110.440453,245.027145 109.819160,243.940506 109.183701,242.829086 
	C111.568108,241.886185 113.611740,241.078049 116.024170,240.416534 
z"/>
<path fill="#F3FAF7" opacity="1.000000" stroke="none" 
	d="
M109.780373,246.995392 
	C108.613838,248.627594 107.108986,250.204163 105.302216,251.919189 
	C105.457352,249.658356 105.914421,247.259079 106.419319,244.608734 
	C107.482269,245.428467 108.462158,246.184128 109.780373,246.995392 
z"/>
<path fill="#F6F9FA" opacity="1.000000" stroke="none" 
	d="
M196.000214,105.282623 
	C194.790649,107.120842 193.206955,108.876144 191.306152,110.705444 
	C190.600662,107.312210 192.718842,105.928078 196.000214,105.282623 
z"/>
<path fill="#F3FAF7" opacity="1.000000" stroke="none" 
	d="
M152.127502,200.204865 
	C153.406967,199.981400 154.625565,200.202866 155.844177,200.424316 
	C156.402130,201.107742 156.960083,201.791168 157.518036,202.474594 
	C155.915070,203.257919 154.312088,204.041260 152.391327,204.961578 
	C152.071228,203.615646 152.068924,202.132721 152.127502,200.204865 
z"/>
<path fill="#F6F9FA" opacity="1.000000" stroke="none" 
	d="
M190.009064,111.004013 
	C189.066605,111.787727 187.794601,112.423927 186.173096,113.046104 
	C186.098572,111.861931 186.373535,110.691780 186.648499,109.521637 
	C187.658859,109.966591 188.669189,110.411545 190.009064,111.004013 
z"/>
<path fill="#F3FAF7" opacity="1.000000" stroke="none" 
	d="
M132.048218,224.430954 
	C131.154877,225.999741 129.909637,227.409836 128.362366,228.950363 
	C129.272324,227.477951 130.484329,225.875107 132.048218,224.430954 
z"/>
<path fill="#F6F9FA" opacity="1.000000" stroke="none" 
	d="
M143.040741,80.442551 
	C142.518723,78.677551 141.984528,76.508659 141.658401,74.052605 
	C142.253815,75.856514 142.641190,77.947594 143.040741,80.442551 
z"/>
<path fill="#F3FAF7" opacity="1.000000" stroke="none" 
	d="
M147.984955,197.127548 
	C149.382187,197.772110 150.524780,198.547043 151.904526,199.581879 
	C148.030212,200.008789 148.030212,200.008789 147.984955,197.127548 
z"/>
<path fill="#F6F9FA" opacity="1.000000" stroke="none" 
	d="
M265.833374,151.359146 
	C266.366791,150.767044 266.905457,150.501801 267.721466,150.119202 
	C267.813782,151.201736 267.628754,152.401642 267.144501,153.814362 
	C266.509735,153.246765 266.174194,152.466370 265.833374,151.359146 
z"/>
<path fill="#F6F9FA" opacity="1.000000" stroke="none" 
	d="
M212.642609,81.007370 
	C212.233368,81.664459 211.471008,82.326477 210.355255,82.993027 
	C210.764420,82.335808 211.526962,81.674057 212.642609,81.007370 
z"/>
<path fill="#F6F9FA" opacity="1.000000" stroke="none" 
	d="
M294.965149,140.938049 
	C295.225952,139.928513 295.806000,139.043640 296.648132,137.977783 
	C296.368286,138.885452 295.826324,139.974075 294.965149,140.938049 
z"/>
<path fill="#F6F9FA" opacity="1.000000" stroke="none" 
	d="
M197.599060,102.068481 
	C197.599640,102.973633 197.237335,103.948959 196.629791,105.127335 
	C196.668427,104.266479 196.952301,103.202568 197.599060,102.068481 
z"/>
<path fill="#ECF6F8" opacity="1.000000" stroke="none" 
	d="
M290.511169,109.176704 
	C290.685181,108.203300 291.121948,107.326904 291.823181,106.313751 
	C291.649719,107.209229 291.211792,108.241470 290.511169,109.176704 
z"/>
<path fill="#F6F9FA" opacity="1.000000" stroke="none" 
	d="
M151.955597,83.676010 
	C151.359299,83.544395 150.721649,83.092873 150.041992,82.321350 
	C150.638077,82.452934 151.276154,82.904518 151.955597,83.676010 
z"/>
<path fill="#F3FAF7" opacity="1.000000" stroke="none" 
	d="
M133.770660,223.078430 
	C133.727859,223.492996 133.354828,223.911438 132.707855,224.379272 
	C132.769424,223.979904 133.104935,223.531113 133.770660,223.078430 
z"/>
<path fill="#F3FAF7" opacity="1.000000" stroke="none" 
	d="
M127.752846,229.068939 
	C127.718414,229.487076 127.355598,229.914566 126.718567,230.391876 
	C126.771042,229.987213 127.097755,229.532761 127.752846,229.068939 
z"/>
<path fill="#F3FAF7" opacity="1.000000" stroke="none" 
	d="
M126.111740,230.415146 
	C126.156845,230.912796 125.874863,231.385635 125.321663,231.962708 
	C125.295189,231.508057 125.539917,230.949203 126.111740,230.415146 
z"/>
<path fill="#F3FAF7" opacity="1.000000" stroke="none" 
	d="
M117.758698,239.071335 
	C117.713882,239.481949 117.340729,239.899734 116.693390,240.369415 
	C116.756256,239.973709 117.093300,239.526108 117.758698,239.071335 
z"/>
<path fill="#F3FAF7" opacity="1.000000" stroke="none" 
	d="
M104.273621,252.638824 
	C104.354332,252.915756 104.330910,252.974472 104.335297,253.006927 
	C104.085793,252.660812 103.831902,252.282272 103.578011,251.903717 
	C103.782982,252.056442 103.987953,252.209167 104.273621,252.638824 
z"/>
<path fill="#F6F9FA" opacity="1.000000" stroke="none" 
	d="
M210.001709,87.333420 
	C210.152908,87.570023 210.302917,88.139275 210.226456,88.852516 
	C210.000168,88.553024 210.000320,88.109543 210.001709,87.333420 
z"/>
<path fill="#F3FAF7" opacity="1.000000" stroke="none" 
	d="
M148.806763,195.040710 
	C148.905457,195.160934 148.849991,195.324661 148.618774,195.679047 
	C148.263016,195.537476 148.332870,195.275650 148.806763,195.040710 
z"/>
<path fill="#FDFDFE" opacity="1.000000" stroke="none" 
	d="
M96.002083,166.998352 
	C96.124626,167.139984 96.245094,167.283234 96.365555,167.426498 
	C96.279480,167.377625 96.193413,167.328735 96.052063,167.142044 
	C95.996788,167.004242 96.000000,167.000000 96.002083,166.998352 
z"/>
<path fill="#F6F9FA" opacity="1.000000" stroke="none" 
	d="
M217.001205,75.249451 
	C217.112701,75.273811 217.224197,75.547173 217.168762,75.908485 
	C217.001831,75.996445 217.001190,75.498444 217.001205,75.249451 
z"/>
<path fill="#F6F9FA" opacity="1.000000" stroke="none" 
	d="
M217.779861,72.108948 
	C217.898346,72.323792 217.711746,72.584839 217.220108,72.892113 
	C217.101349,72.677101 217.287918,72.416046 217.779861,72.108948 
z"/>
<path fill="#F6F9FA" opacity="1.000000" stroke="none" 
	d="
M144.549835,72.467995 
	C144.582718,72.523277 144.516937,72.412712 144.549835,72.467995 
z"/>
<path fill="#F6F9FA" opacity="1.000000" stroke="none" 
	d="
M109.049088,170.858551 
	C109.277512,170.832092 109.585617,171.106659 109.949028,171.691605 
	C109.712479,171.721176 109.420624,171.440369 109.049088,170.858551 
z"/>
<path fill="#F6F9FA" opacity="1.000000" stroke="none" 
	d="
M267.402954,155.864243 
	C267.192841,155.825348 267.110809,155.672943 267.058533,155.262604 
	C267.235870,155.253372 267.383453,155.502045 267.402954,155.864243 
z"/>
<path fill="#F6F9FA" opacity="1.000000" stroke="none" 
	d="
M90.255951,142.902069 
	C90.112000,142.680374 90.284950,142.411942 90.773384,142.094666 
	C90.915840,142.314362 90.743835,142.584183 90.255951,142.902069 
z"/>
<path fill="#ECF6F8" opacity="1.000000" stroke="none" 
	d="
M292.348236,105.936996 
	C292.128357,105.704193 292.252106,105.431671 292.762878,105.172279 
	C292.910553,105.397392 292.757874,105.634682 292.348236,105.936996 
z"/>
<path fill="#F6F9FA" opacity="1.000000" stroke="none" 
	d="
M141.218445,100.975327 
	C140.711899,100.279884 140.431534,99.608757 140.151154,98.937622 
	C140.327896,98.807053 140.504623,98.676476 140.681366,98.545906 
	C141.118820,99.011810 141.556290,99.477722 142.089539,100.230743 
	C142.017456,100.799965 141.770569,100.960556 141.218445,100.975327 
z"/>
<path fill="#F6F9FA" opacity="1.000000" stroke="none" 
	d="
M211.992157,97.319290 
	C212.392426,97.201675 212.993515,97.322060 213.791870,97.686844 
	C213.390396,97.806602 212.791687,97.681938 211.992157,97.319290 
z"/>
<path fill="#F6F9FA" opacity="1.000000" stroke="none" 
	d="
M94.173416,162.317505 
	C94.309563,162.556534 94.409019,162.811523 94.508469,163.066513 
	C94.418365,162.976715 94.328270,162.886917 94.148117,162.557892 
	C94.058075,162.318649 94.136726,162.333466 94.173416,162.317505 
z"/>
<path fill="#F6F9FA" opacity="1.000000" stroke="none" 
	d="
M143.262619,99.980011 
	C143.240204,99.802231 143.479385,99.629448 143.841003,99.578545 
	C143.817017,99.795280 143.670624,99.890137 143.262619,99.980011 
z"/>
<path fill="#4887F9" opacity="1.000000" stroke="none" 
	d="
M229.360153,90.907898 
	C232.453430,89.260300 235.546707,87.612694 239.249023,85.749001 
	C240.238251,85.359161 240.618423,85.185417 240.998611,85.011673 
	C242.093155,84.950584 243.187683,84.889488 244.952393,84.763985 
	C245.932129,84.520561 246.241699,84.341553 246.551254,84.162552 
	C246.761749,84.448120 247.043564,84.573921 247.946640,84.608757 
	C249.652435,84.710312 250.808304,84.743057 251.964172,84.775803 
	C252.634781,84.907120 253.305405,85.038445 254.587509,85.380951 
	C256.113983,85.788445 257.028992,85.984764 257.943970,86.181084 
	C257.943970,86.181084 257.944031,86.091866 258.097076,86.360641 
	C258.852905,86.824898 259.455719,87.020386 260.058502,87.215874 
	C260.862427,87.760262 261.666382,88.304649 262.933350,89.193588 
	C269.619873,93.793060 272.968109,99.966293 275.040405,106.990784 
	C275.099152,108.740532 275.157867,110.490280 275.200500,113.048309 
	C275.150574,114.898148 275.116699,115.939697 275.082855,116.981247 
	C274.966431,117.398941 274.850006,117.816643 274.513611,118.827652 
	C273.508942,121.572685 272.724304,123.724419 271.939667,125.876152 
	C271.586548,126.348427 271.233429,126.820702 270.519348,127.775208 
	C266.148193,132.092499 265.074402,131.913391 262.807861,127.031364 
	C263.176697,126.316864 263.545563,125.602356 264.246582,124.452042 
	C264.715546,123.678589 264.852295,123.340950 264.989014,123.003311 
	C270.142700,115.095421 269.114136,104.582672 262.529266,97.863319 
	C255.775009,90.971062 245.074295,89.656364 236.843323,94.363487 
	C234.808426,95.527206 232.170914,95.637199 229.392548,95.663559 
	C229.103165,93.699661 229.231659,92.303780 229.360153,90.907898 
z"/>
<path fill="#F6F9FA" opacity="1.000000" stroke="none" 
	d="
M275.315979,106.719551 
	C272.968109,99.966293 269.619873,93.793060 263.219452,89.258209 
	C265.051392,87.506104 267.060242,86.033936 269.147156,84.181000 
	C272.591705,88.107925 276.498138,91.572937 282.636383,92.251801 
	C282.309998,93.007256 281.686279,94.044151 280.876038,94.219574 
	C279.719940,94.469879 278.378052,93.830505 277.207001,94.052834 
	C276.113342,94.260452 275.138977,95.096733 274.112122,95.656311 
	C274.877441,96.618149 275.642761,97.579971 276.657440,98.855202 
	C276.360382,100.971367 275.975952,103.709839 275.315979,106.719551 
z"/>
<path fill="#F6F9FA" opacity="1.000000" stroke="none" 
	d="
M282.509766,110.291992 
	C282.429504,118.042976 285.544128,124.086365 293.069427,127.634773 
	C292.264191,130.861969 292.161713,134.439209 287.065857,132.123383 
	C287.711487,130.905029 288.620209,129.864319 290.087280,128.184143 
	C287.026672,127.004509 284.244049,125.932037 280.994659,124.679649 
	C281.362976,120.690437 281.832611,115.603722 282.509766,110.291992 
z"/>
<path fill="#F6F9FA" opacity="1.000000" stroke="none" 
	d="
M214.487762,85.095284 
	C215.406387,86.588615 215.692108,89.324036 216.555862,89.520706 
	C218.156876,89.885223 220.781647,89.331543 221.755661,88.150482 
	C224.003632,85.424652 225.518982,82.094635 227.591492,78.723404 
	C227.601517,81.350983 227.351593,84.264854 227.050827,87.589363 
	C227.000000,88.000000 227.000610,87.999390 227.000610,87.999390 
	C224.008499,90.417992 221.016403,92.836601 217.968658,95.300179 
	C214.887878,92.841774 210.305145,90.686844 214.487762,85.095284 
z"/>
<path fill="#F6F9FA" opacity="1.000000" stroke="none" 
	d="
M228.023071,73.057793 
	C227.188309,71.845856 226.796249,70.614166 226.378922,69.303093 
	C229.363983,66.760155 231.722336,65.870827 234.179840,70.105843 
	C235.416763,72.237457 237.945496,73.619446 240.126953,75.599609 
	C238.198608,75.858803 236.033401,75.858803 233.868210,75.858803 
	C233.945831,75.652855 234.023468,75.446907 234.101089,75.240967 
	C232.222656,74.506653 230.344208,73.772346 228.023071,73.057793 
z"/>
<path fill="#F6F9FA" opacity="1.000000" stroke="none" 
	d="
M254.997681,76.134468 
	C257.191132,73.662827 259.439026,71.538300 262.129486,69.022507 
	C262.688416,68.322044 262.804779,68.012863 262.921173,67.703674 
	C266.549042,67.138046 269.466522,67.338501 267.794922,72.681084 
	C265.890381,72.806953 264.117859,72.597229 262.182312,72.368210 
	C260.462036,74.848488 259.802460,79.410736 254.997681,76.134468 
z"/>
<path fill="#F6F9FA" opacity="1.000000" stroke="none" 
	d="
M262.508850,127.225464 
	C265.074402,131.913391 266.148193,132.092499 270.425537,128.061249 
	C270.401154,130.033142 270.109619,132.201218 269.820831,134.348923 
	C266.303162,133.434906 263.951721,132.823929 260.838348,132.014969 
	C261.262390,130.594131 261.736084,129.006851 262.508850,127.225464 
z"/>
<path fill="#F6F9FA" opacity="1.000000" stroke="none" 
	d="
M276.201050,133.438416 
	C274.508148,136.290024 272.745239,138.758057 270.998657,141.608521 
	C268.353851,140.217590 266.239868,138.525803 270.567688,136.070312 
	C271.716339,135.418594 272.155182,133.591293 273.262451,132.759857 
	C273.826691,132.336212 275.150513,132.924164 276.201050,133.438416 
z"/>
<path fill="#F6F9FA" opacity="1.000000" stroke="none" 
	d="
M286.500000,100.891273 
	C285.752747,102.902023 284.676117,104.863937 283.364929,107.081436 
	C282.396545,104.112976 279.650665,100.638664 284.640808,98.040970 
	C285.000000,98.000000 285.003662,98.002548 285.003662,98.002548 
	C285.392639,98.949173 285.781616,99.895805 286.500000,100.891273 
z"/>
<path fill="#F6F9FA" opacity="1.000000" stroke="none" 
	d="
M272.124847,126.140831 
	C272.724304,123.724419 273.508942,121.572685 274.502441,119.153671 
	C277.728149,122.755623 277.023010,124.963654 272.124847,126.140831 
z"/>
<path fill="#F6F9FA" opacity="1.000000" stroke="none" 
	d="
M229.060883,91.045906 
	C229.231659,92.303780 229.103165,93.699661 229.065628,95.508568 
	C228.325333,96.403091 227.494080,96.884598 226.515823,97.451233 
	C225.682922,95.701630 224.903671,94.064728 224.220856,92.630386 
	C225.978012,92.070641 227.369827,91.627274 229.060883,91.045906 
z"/>
<path fill="#F6F9FA" opacity="1.000000" stroke="none" 
	d="
M267.254944,75.502266 
	C267.982208,77.797379 268.557526,80.396194 269.204865,83.376724 
	C268.187897,82.842964 266.372009,82.057152 266.180145,80.981644 
	C265.891388,79.362801 266.738678,77.541313 267.254944,75.502266 
z"/>
<path fill="#F6F9FA" opacity="1.000000" stroke="none" 
	d="
M245.231415,77.390137 
	C247.049774,77.068634 249.068695,76.988892 251.520660,76.915398 
	C250.240677,81.390488 247.776688,78.963516 245.231415,77.390137 
z"/>
<path fill="#F6F9FA" opacity="1.000000" stroke="none" 
	d="
M288.074158,92.452866 
	C289.777161,91.049026 291.380096,90.566574 292.014465,93.658234 
	C290.736755,93.599281 289.442322,93.201485 288.074158,92.452866 
z"/>
<path fill="#F6F9FA" opacity="1.000000" stroke="none" 
	d="
M220.033203,75.072495 
	C220.090256,76.713402 219.807159,78.578026 219.259232,80.628326 
	C219.227280,78.974739 219.460144,77.135468 220.033203,75.072495 
z"/>
<path fill="#F6F9FA" opacity="1.000000" stroke="none" 
	d="
M251.785889,84.496521 
	C250.808304,84.743057 249.652435,84.710312 248.177948,84.544769 
	C249.108749,84.347061 250.358185,84.282150 251.785889,84.496521 
z"/>
<path fill="#F6F9FA" opacity="1.000000" stroke="none" 
	d="
M240.991302,84.649536 
	C240.618423,85.185417 240.238251,85.359161 239.547852,85.582870 
	C239.437119,84.613579 239.636597,83.594315 239.836075,82.575050 
	C240.218719,83.145836 240.601364,83.716621 240.991302,84.649536 
z"/>
<path fill="#F6F9FA" opacity="1.000000" stroke="none" 
	d="
M292.156952,94.981384 
	C292.174713,95.740250 291.871857,96.653503 291.273621,97.634827 
	C291.264282,96.847183 291.550323,95.991478 292.156952,94.981384 
z"/>
<path fill="#F6F9FA" opacity="1.000000" stroke="none" 
	d="
M260.464844,124.609604 
	C260.348938,125.058411 260.066254,125.333549 259.765594,125.587425 
	C259.757904,125.593933 259.553284,125.367180 259.440491,125.249222 
	C259.725555,124.977188 260.010620,124.705162 260.464844,124.609604 
z"/>
<path fill="#F6F9FA" opacity="1.000000" stroke="none" 
	d="
M275.320984,116.780533 
	C275.116699,115.939697 275.150574,114.898148 275.283600,113.478004 
	C275.441559,114.259544 275.500305,115.419678 275.320984,116.780533 
z"/>
<path fill="#F6F9FA" opacity="1.000000" stroke="none" 
	d="
M278.885162,114.704414 
	C278.593872,114.786964 278.207367,114.696449 278.123901,114.485832 
	C278.056061,114.314636 278.351501,113.999443 278.485840,113.748093 
	C278.630859,113.991875 278.775879,114.235657 278.885162,114.704414 
z"/>
<path fill="#F6F9FA" opacity="1.000000" stroke="none" 
	d="
M257.750488,85.862976 
	C257.028992,85.984764 256.113983,85.788445 254.930023,85.359001 
	C255.626389,85.265541 256.591705,85.405205 257.750488,85.862976 
z"/>
<path fill="#F6F9FA" opacity="1.000000" stroke="none" 
	d="
M264.643341,85.742172 
	C264.628601,85.991341 264.495178,86.127167 264.361816,86.262993 
	C264.416107,86.051605 264.470398,85.840210 264.643341,85.742172 
z"/>
<path fill="#F6F9FA" opacity="1.000000" stroke="none" 
	d="
M259.890076,86.924889 
	C259.455719,87.020386 258.852905,86.824898 258.055725,86.377350 
	C258.481415,86.294823 259.101501,86.464363 259.890076,86.924889 
z"/>
<path fill="#F6F9FA" opacity="1.000000" stroke="none" 
	d="
M252.113586,76.924393 
	C252.026566,76.673317 252.222870,76.494186 252.715302,76.430283 
	C252.765579,76.664276 252.560730,76.814552 252.113586,76.924393 
z"/>
<path fill="#F6F9FA" opacity="1.000000" stroke="none" 
	d="
M261.467773,83.450119 
	C261.523010,83.417213 261.412537,83.483017 261.467773,83.450119 
z"/>
<path fill="#F6F9FA" opacity="1.000000" stroke="none" 
	d="
M237.466217,78.448257 
	C237.523209,78.413918 237.409241,78.482605 237.466217,78.448257 
z"/>
<path fill="#F6F9FA" opacity="1.000000" stroke="none" 
	d="
M246.282074,84.152130 
	C246.241699,84.341553 245.932129,84.520561 245.349487,84.654053 
	C245.388550,84.452919 245.700714,84.297310 246.282074,84.152130 
z"/>
<path fill="#F6F9FA" opacity="1.000000" stroke="none" 
	d="
M264.753662,123.152466 
	C264.852295,123.340950 264.715546,123.678589 264.341370,124.164642 
	C264.242096,123.975899 264.380219,123.638756 264.753662,123.152466 
z"/>
<path fill="#F6F9FA" opacity="1.000000" stroke="none" 
	d="
M226.999695,88.000275 
	C227.121048,88.142311 227.242722,88.284081 227.364380,88.425842 
	C227.278915,88.376213 227.193466,88.326576 227.054306,88.138168 
	C227.000610,87.999390 227.000000,88.000000 226.999695,88.000275 
z"/>
<path fill="#F6F9FA" opacity="1.000000" stroke="none" 
	d="
M284.998718,97.998344 
	C285.091766,97.961983 285.186035,97.927269 285.141998,97.947556 
	C285.003662,98.002548 285.000000,98.000000 284.998718,97.998344 
z"/>
<path fill="#4887F9" opacity="1.000000" stroke="none" 
	d="
M96.216400,131.004791 
	C94.315887,129.649658 92.142540,128.523697 91.011879,126.737663 
	C84.123077,115.855820 85.674706,103.004364 95.288879,92.229202 
	C96.661827,90.938896 97.603600,90.087593 98.801933,89.175095 
	C99.779724,88.644485 100.500954,88.175079 101.222176,87.705673 
	C102.067673,87.346901 102.913177,86.988136 104.264130,86.408371 
	C105.626793,85.833206 106.484001,85.479042 107.341217,85.124886 
	C108.025291,85.080673 108.709366,85.036469 110.150421,84.919769 
	C112.915337,84.766640 114.923256,84.685997 116.931183,84.605354 
	C121.977386,86.619331 127.023590,88.633308 132.448059,91.167641 
	C132.475250,93.427216 132.124191,95.166435 131.773132,96.905655 
	C131.773132,96.905655 131.369980,96.941612 130.932068,97.002205 
	C130.327148,97.104286 130.160110,97.145782 129.993057,97.187286 
	C125.773499,95.394196 121.703392,92.825493 117.301758,91.977325 
	C109.332870,90.441795 102.454498,93.421875 97.696785,100.020035 
	C92.857635,106.731133 92.296638,114.092964 96.347610,122.220047 
	C99.014786,125.472076 100.371513,128.157867 96.869987,130.945358 
	C96.869987,130.945358 96.425461,130.928879 96.216400,131.004791 
z"/>
<path fill="#F6F9FA" opacity="1.000000" stroke="none" 
	d="
M136.950897,85.391983 
	C138.237686,86.301285 139.320480,87.869904 140.814682,88.673141 
	C142.213715,89.425209 144.435074,90.072006 145.573425,89.448532 
	C146.540787,88.918716 146.480347,86.512329 146.754044,84.536987 
	C150.481369,84.859131 148.888763,88.319656 148.700668,89.963333 
	C148.496277,91.749565 146.038116,93.277893 144.043381,95.496117 
	C142.324036,90.985863 135.632538,91.616432 136.950897,85.391983 
z"/>
<path fill="#F6F9FA" opacity="1.000000" stroke="none" 
	d="
M99.826180,68.986267 
	C102.099030,71.088417 104.371887,73.190567 106.849579,75.543671 
	C104.499947,78.604782 102.700966,77.808380 99.745178,72.380058 
	C98.257011,72.580681 96.671364,72.794434 94.721100,73.012100 
	C93.036263,70.189407 93.041183,67.964203 97.431152,67.813248 
	C98.602798,68.429787 99.214485,68.708023 99.826180,68.986267 
z"/>
<path fill="#F6F9FA" opacity="1.000000" stroke="none" 
	d="
M125.234406,73.976929 
	C125.927193,72.609383 127.107208,71.408852 127.988571,70.018944 
	C129.306519,67.940575 130.290222,66.219360 133.427414,67.691254 
	C136.657043,69.206520 134.926575,71.110939 134.333008,73.180397 
	C132.788315,73.237267 131.476852,73.140358 129.784088,73.015274 
	C129.623550,74.354477 129.483688,75.521072 129.343826,76.687668 
	C128.638885,77.321892 127.933945,77.956123 127.229004,78.590355 
	C126.681999,77.079971 126.134995,75.569588 125.234406,73.976929 
z"/>
<path fill="#F6F9FA" opacity="1.000000" stroke="none" 
	d="
M97.206406,131.004517 
	C100.371513,128.157867 99.014786,125.472076 96.571121,122.498993 
	C101.664543,120.861031 103.081139,124.896996 104.991776,128.623901 
	C105.000000,129.000000 104.999100,129.001221 104.999100,129.001221 
	C103.231400,129.958267 101.463707,130.915329 99.279060,132.098129 
	C99.159088,132.026642 98.350960,131.545166 97.206406,131.004517 
z"/>
<path fill="#F6F9FA" opacity="1.000000" stroke="none" 
	d="
M101.096260,87.318481 
	C100.500954,88.175079 99.779724,88.644485 98.466972,88.998245 
	C96.266808,87.272758 94.658165,85.662918 92.959496,83.966141 
	C92.869469,83.879204 92.687866,83.706947 92.687866,83.706947 
	C93.178871,82.034874 93.669876,80.362801 94.305237,78.341476 
	C96.623169,80.971916 98.796761,83.951599 101.096260,87.318481 
z"/>
<path fill="#F6F9FA" opacity="1.000000" stroke="none" 
	d="
M116.754524,84.357491 
	C114.923256,84.685997 112.915337,84.766640 110.477646,84.813400 
	C112.109680,83.436600 114.009422,80.513969 116.754524,84.357491 
z"/>
<path fill="#F6F9FA" opacity="1.000000" stroke="none" 
	d="
M111.042923,77.406113 
	C112.703262,77.090942 114.410706,77.085014 116.543167,77.114700 
	C115.090935,78.193108 113.425232,81.436760 111.042923,77.406113 
z"/>
<path fill="#F6F9FA" opacity="1.000000" stroke="none" 
	d="
M134.553192,80.317245 
	C135.200897,81.058784 135.620941,82.062965 136.094254,83.387138 
	C135.702179,84.283897 135.256821,84.860664 133.888245,86.633049 
	C134.104874,83.634323 134.215195,82.107109 134.553192,80.317245 
z"/>
<path fill="#F6F9FA" opacity="1.000000" stroke="none" 
	d="
M132.149536,96.928268 
	C132.124191,95.166435 132.475250,93.427216 132.739349,91.276772 
	C134.041351,92.923721 136.315338,95.000282 132.149536,96.928268 
z"/>
<path fill="#F6F9FA" opacity="1.000000" stroke="none" 
	d="
M131.011459,81.460175 
	C131.410629,82.045471 131.508774,82.626472 131.606903,83.207474 
	C131.196655,83.202171 130.786423,83.196877 130.376175,83.191574 
	C130.487595,82.613007 130.599014,82.034431 131.011459,81.460175 
z"/>
<path fill="#F6F9FA" opacity="1.000000" stroke="none" 
	d="
M122.032120,75.898605 
	C122.524361,75.256973 123.407768,74.651917 124.600983,73.958748 
	C124.081619,74.558823 123.252449,75.247002 122.032120,75.898605 
z"/>
<path fill="#F6F9FA" opacity="1.000000" stroke="none" 
	d="
M106.953682,85.088043 
	C106.484001,85.479042 105.626793,85.833206 104.419724,86.235199 
	C104.901955,85.872421 105.734047,85.461815 106.953682,85.088043 
z"/>
<path fill="#F6F9FA" opacity="1.000000" stroke="none" 
	d="
M130.015381,97.421066 
	C130.160110,97.145782 130.327148,97.104286 130.750732,97.091995 
	C130.852264,97.530998 130.697266,97.940796 130.542267,98.350601 
	C130.374069,98.118683 130.205887,97.886765 130.015381,97.421066 
z"/>
<path fill="#F6F9FA" opacity="1.000000" stroke="none" 
	d="
M136.600662,92.276047 
	C136.441315,92.149696 136.418350,91.931305 136.395401,91.712906 
	C136.509293,91.869934 136.623169,92.026962 136.600662,92.276047 
z"/>
<path fill="#F6F9FA" opacity="1.000000" stroke="none" 
	d="
M102.450104,84.532440 
	C102.416992,84.476990 102.483215,84.587883 102.450104,84.532440 
z"/>
<path fill="#F6F9FA" opacity="1.000000" stroke="none" 
	d="
M124.551559,78.466522 
	C124.585716,78.523285 124.517395,78.409767 124.551559,78.466522 
z"/>
<path fill="#F6F9FA" opacity="1.000000" stroke="none" 
	d="
M134.096313,76.896606 
	C134.361679,76.875961 134.497620,77.121628 134.443039,77.632736 
	C134.199661,77.617546 134.104462,77.372459 134.096313,76.896606 
z"/>
<path fill="#F6F9FA" opacity="1.000000" stroke="none" 
	d="
M94.695404,75.761436 
	C94.642601,75.847244 94.450783,75.496864 94.526825,75.312347 
	C94.760529,75.285362 94.808975,75.467957 94.695404,75.761436 
z"/>
<path fill="#F6F9FA" opacity="1.000000" stroke="none" 
	d="
M134.532501,88.550545 
	C134.476990,88.583733 134.588028,88.517357 134.532501,88.550545 
z"/>
<path fill="#F6F9FA" opacity="1.000000" stroke="none" 
	d="
M150.467987,88.450157 
	C150.522949,88.417442 150.413010,88.482872 150.467987,88.450157 
z"/>
<path fill="#F6F9FA" opacity="1.000000" stroke="none" 
	d="
M96.550415,137.467224 
	C96.583725,137.523010 96.517113,137.411453 96.550415,137.467224 
z"/>
<path fill="#F6F9FA" opacity="1.000000" stroke="none" 
	d="
M134.385941,110.695732 
	C134.268341,110.926659 134.094681,111.142036 133.921036,111.357407 
	C133.922241,111.169510 133.923431,110.981606 134.112244,110.680725 
	C134.299866,110.567749 134.329895,110.680176 134.385941,110.695732 
z"/>
<path fill="#F6F9FA" opacity="1.000000" stroke="none" 
	d="
M105.000610,128.999573 
	C105.122284,129.141388 105.243347,129.283615 105.364410,129.425842 
	C105.278793,129.376511 105.193161,129.327194 105.053314,129.139542 
	C104.999100,129.001221 105.000000,129.000000 105.000610,128.999573 
z"/>
<path fill="#FDFEFE" opacity="1.000000" stroke="none" 
	d="
M262.718262,67.855484 
	C262.804779,68.012863 262.688416,68.322044 262.374847,68.783394 
	C262.290222,68.626144 262.402802,68.316719 262.718262,67.855484 
z"/>
<path fill="#F6F9FA" opacity="1.000000" stroke="none" 
	d="
M90.477036,87.442490 
	C90.954681,86.203125 91.586792,85.167664 92.453384,83.919571 
	C92.687866,83.706947 92.869469,83.879204 92.941879,84.336037 
	C92.343063,85.862114 91.671837,86.931366 91.000610,88.000610 
	C90.877579,87.882538 90.754539,87.764465 90.477036,87.442490 
z"/>
<path fill="#FDFDFE" opacity="1.000000" stroke="none" 
	d="
M99.812683,68.764496 
	C99.214485,68.708023 98.602798,68.429787 97.786606,67.865440 
	C97.582100,67.579338 97.670044,67.563484 98.066498,67.702896 
	C98.712402,67.865547 98.961853,67.888779 99.211311,67.912003 
	C99.513275,68.023468 99.709236,68.233711 99.812683,68.764496 
z"/>
<path fill="#F6F9FA" opacity="1.000000" stroke="none" 
	d="
M99.118271,67.653641 
	C98.961853,67.888779 98.712402,67.865547 98.111176,67.703308 
	C98.181351,67.507973 98.603287,67.451622 99.118271,67.653641 
z"/>
<path fill="#FDFDFE" opacity="1.000000" stroke="none" 
	d="
M91.001167,88.308014 
	C91.671837,86.931366 92.343063,85.862114 93.031906,84.422974 
	C94.658165,85.662918 96.266808,87.272758 98.210411,89.059448 
	C97.603600,90.087593 96.661827,90.938896 95.434341,91.920280 
	C93.766319,90.905380 92.384026,89.760399 91.001167,88.308014 
z"/>
<path fill="#FDFDFE" opacity="1.000000" stroke="none" 
	d="
M84.988480,90.994339 
	C85.838631,91.148796 86.698936,91.310173 87.559250,91.471550 
	C87.431450,91.835747 87.303658,92.199936 87.175858,92.564133 
	C86.481789,92.259369 85.787712,91.954597 85.041382,91.316109 
	C84.989120,90.982384 84.998634,91.001266 84.988480,90.994339 
z"/>
</svg>