<svg version="1.1" id="Layer_1" xmlns="http://www.w3.org/2000/svg" xmlns:xlink="http://www.w3.org/1999/xlink" x="0px" y="0px"
	 width="100%" viewBox="0 0 225 225" enable-background="new 0 0 225 225" xml:space="preserve">
<path fill="#FFFFFF" opacity="1.000000" stroke="none" 
	d="
M132.000000,226.000000 
	C88.000000,226.000000 44.500004,226.000000 1.000006,226.000000 
	C1.000004,151.000000 1.000004,76.000015 1.000002,1.000016 
	C75.999992,1.000011 150.999985,1.000011 225.999969,1.000005 
	C225.999985,75.999985 225.999985,150.999969 226.000000,225.999969 
	C194.833328,226.000000 163.666672,226.000000 132.000000,226.000000 
M109.514854,218.183075 
	C109.679512,218.144943 109.844170,218.106796 110.943054,218.139084 
	C119.319603,218.107162 127.696144,218.075241 137.000870,218.038940 
	C144.159561,218.033340 151.322861,217.874069 158.474960,218.088348 
	C161.940598,218.192184 163.147476,217.092209 163.046432,213.563004 
	C162.822601,205.744781 162.912582,197.914978 163.002365,190.091385 
	C163.053452,185.639969 161.701294,179.589584 164.016678,177.197296 
	C166.280014,174.858810 172.397934,176.178329 176.828445,176.032990 
	C180.394058,175.916031 183.966599,176.009308 187.879364,176.009308 
	C187.477234,174.716370 187.449829,174.189758 187.186050,173.842850 
	C171.141144,152.740845 155.160355,131.588577 138.878433,110.670761 
	C137.338501,108.692368 133.949066,107.335106 131.327393,107.174591 
	C124.199722,106.738235 117.023232,107.099388 108.953262,107.089729 
	C100.974182,107.152435 92.995110,107.215141 84.460434,107.143288 
	C84.270340,107.156425 84.080238,107.169563 83.527214,106.427322 
	C83.608917,88.444847 83.207436,70.442879 83.931732,52.486328 
	C84.469833,39.145874 97.225151,28.683084 110.562592,29.265932 
	C124.689178,29.883268 135.647385,40.641006 136.071335,54.389736 
	C136.187515,58.157616 136.089005,61.932117 136.089005,65.669113 
	C145.347107,65.669113 153.891739,65.669113 162.972992,65.669113 
	C162.682770,59.953365 162.618439,54.641983 162.110718,49.373337 
	C159.658157,23.923391 137.386932,4.009717 110.717567,3.289203 
	C85.192665,2.599609 60.588329,21.838781 58.278538,46.719765 
	C56.393276,67.027672 57.505428,87.613831 57.104939,108.988930 
	C57.093346,132.100494 57.005554,155.212341 57.095402,178.323517 
	C57.161678,195.370010 68.077301,210.834793 83.544716,215.808456 
	C92.036690,216.562180 100.528671,217.315903 109.514854,218.183075 
z"/>
<path fill="#4978C4" opacity="1.000000" stroke="none" 
	d="
M57.288589,108.076622 
	C57.505428,87.613831 56.393276,67.027672 58.278538,46.719765 
	C60.588329,21.838781 85.192665,2.599609 110.717567,3.289203 
	C137.386932,4.009717 159.658157,23.923391 162.110718,49.373337 
	C162.618439,54.641983 162.682770,59.953365 162.972992,65.669113 
	C153.891739,65.669113 145.347107,65.669113 136.089005,65.669113 
	C136.089005,61.932117 136.187515,58.157616 136.071335,54.389736 
	C135.647385,40.641006 124.689178,29.883268 110.562592,29.265932 
	C97.225151,28.683084 84.469833,39.145874 83.931732,52.486328 
	C83.207436,70.442879 83.608917,88.444847 83.730118,107.088623 
	C84.288521,108.169640 84.644012,108.589340 85.130997,109.319267 
	C102.103973,131.672546 118.945465,153.715622 135.343323,175.843140 
	C126.597443,175.950684 118.295219,175.973785 109.991173,175.995667 
	C109.989357,175.994431 109.978828,175.987656 109.870667,175.759552 
	C109.482536,175.352524 109.202560,175.173599 108.626511,174.841278 
	C102.511002,167.052002 96.710587,159.401535 90.868080,151.783340 
	C79.687553,137.204742 68.483109,122.644485 57.288589,108.076622 
z"/>
<path fill="#D1F0FA" opacity="1.000000" stroke="none" 
	d="
M109.866089,107.144432 
	C117.023232,107.099388 124.199722,106.738235 131.327393,107.174591 
	C133.949066,107.335106 137.338501,108.692368 138.878433,110.670761 
	C155.160355,131.588577 171.141144,152.740845 187.186050,173.842850 
	C187.449829,174.189758 187.477234,174.716370 187.879364,176.009308 
	C183.966599,176.009308 180.394058,175.916031 176.828445,176.032990 
	C172.397934,176.178329 166.280014,174.858810 164.016678,177.197296 
	C161.701294,179.589584 163.053452,185.639969 163.002365,190.091385 
	C162.912582,197.914978 162.822601,205.744781 163.046432,213.563004 
	C163.147476,217.092209 161.940598,218.192184 158.474960,218.088348 
	C151.322861,217.874069 144.159561,218.033340 136.519211,217.568558 
	C136.077148,204.066681 136.116760,191.035202 136.610245,178.002441 
	C143.050720,178.000702 149.040970,178.111191 155.021133,177.914612 
	C156.363113,177.870499 157.669815,176.752319 159.319473,176.091995 
	C163.576233,174.878220 159.993607,173.098038 159.564148,172.510666 
	C153.983810,164.878479 148.168137,157.418686 142.433670,149.898743 
	C131.570328,135.653015 120.721153,121.396477 109.866089,107.144432 
z"/>
<path fill="#3F4AA7" opacity="1.000000" stroke="none" 
	d="
M57.196762,108.532776 
	C68.483109,122.644485 79.687553,137.204742 90.868080,151.783340 
	C96.710587,159.401535 102.511002,167.052002 108.633423,175.090454 
	C108.936409,175.493027 108.838333,175.981537 108.624588,175.988129 
	C108.410835,175.994705 107.984634,176.030426 107.517647,176.021393 
	C99.171410,176.012375 91.292152,176.012375 83.029739,176.012375 
	C83.029739,189.216675 83.029739,201.615646 83.003159,214.358459 
	C82.979774,214.932220 82.982964,215.162109 82.986153,215.392014 
	C68.077301,210.834793 57.161678,195.370010 57.095402,178.323517 
	C57.005554,155.212341 57.093346,132.100494 57.196762,108.532776 
z"/>
<path fill="#7AD3F6" opacity="1.000000" stroke="none" 
	d="
M109.409676,107.117081 
	C120.721153,121.396477 131.570328,135.653015 142.433670,149.898743 
	C148.168137,157.418686 153.983810,164.878479 159.564148,172.510666 
	C159.993607,173.098038 163.576233,174.878220 158.853531,176.047577 
	C150.738876,176.058746 143.416901,176.077713 136.016693,176.013321 
	C135.938461,175.929947 135.786957,175.758682 135.786957,175.758682 
	C118.945465,153.715622 102.103973,131.672546 85.132912,109.029999 
	C85.007576,108.046295 85.011803,107.662071 85.016029,107.277855 
	C92.995110,107.215141 100.974182,107.152435 109.409676,107.117081 
z"/>
<path fill="#7AD4F6" opacity="1.000000" stroke="none" 
	d="
M136.156372,178.003708 
	C136.116760,191.035202 136.077148,204.066681 136.055115,217.570740 
	C127.696144,218.075241 119.319603,218.107162 110.472099,217.628845 
	C109.947182,204.086838 109.893219,191.055054 109.869308,177.685913 
	C109.930565,176.897995 109.961777,176.447433 109.992989,175.996887 
	C118.295219,175.973785 126.597443,175.950684 135.343323,175.843140 
	C135.786957,175.758682 135.938461,175.929947 135.991089,176.330826 
	C136.081268,177.155701 136.118820,177.579712 136.156372,178.003708 
z"/>
<path fill="#4777C4" opacity="1.000000" stroke="none" 
	d="
M109.991173,175.995667 
	C109.961777,176.447433 109.930565,176.897995 109.611771,178.001389 
	C109.223000,191.792694 109.121826,204.931152 109.020645,218.069611 
	C100.528671,217.315903 92.036690,216.562180 83.265434,215.600235 
	C82.982964,215.162109 82.979774,214.932220 83.298187,214.061829 
	C83.748627,205.466751 83.949989,197.512497 83.989639,189.557449 
	C84.052231,176.996994 84.007027,177.072495 96.324409,176.952377 
	C100.213783,176.914444 104.098038,176.352524 107.984634,176.030426 
	C107.984634,176.030426 108.410835,175.994705 108.910385,176.001328 
	C109.599556,176.001190 109.789192,175.994415 109.978828,175.987656 
	C109.978828,175.987656 109.989357,175.994431 109.991173,175.995667 
z"/>
<path fill="#6786C8" opacity="1.000000" stroke="none" 
	d="
M109.267754,218.126343 
	C109.121826,204.931152 109.223000,191.792694 109.581711,178.338760 
	C109.893219,191.055054 109.947182,204.086838 110.004990,217.593628 
	C109.844170,218.106796 109.679512,218.144943 109.267754,218.126343 
z"/>
<path fill="#82D2F4" opacity="1.000000" stroke="none" 
	d="
M84.738235,107.210571 
	C85.011803,107.662071 85.007576,108.046295 85.001427,108.719780 
	C84.644012,108.589340 84.288521,108.169640 83.911575,107.466324 
	C84.080238,107.169563 84.270340,107.156425 84.738235,107.210571 
z"/>
<path fill="#6786C8" opacity="1.000000" stroke="none" 
	d="
M109.870667,175.759552 
	C109.789192,175.994415 109.599556,176.001190 109.124130,175.994751 
	C108.838333,175.981537 108.936409,175.493027 108.929497,175.243851 
	C109.202560,175.173599 109.482536,175.352524 109.870667,175.759552 
z"/>
<path fill="#D0EFFA" opacity="1.000000" stroke="none" 
	d="
M136.610245,178.002441 
	C136.118820,177.579712 136.081268,177.155701 136.069321,176.414200 
	C143.416901,176.077713 150.738876,176.058746 158.526810,176.084183 
	C157.669815,176.752319 156.363113,177.870499 155.021133,177.914612 
	C149.040970,178.111191 143.050720,178.000702 136.610245,178.002441 
z"/>
<path fill="#6786C8" opacity="1.000000" stroke="none" 
	d="
M107.517647,176.021393 
	C104.098038,176.352524 100.213783,176.914444 96.324409,176.952377 
	C84.007027,177.072495 84.052231,176.996994 83.989639,189.557449 
	C83.949989,197.512497 83.748627,205.466751 83.324768,213.717987 
	C83.029739,201.615646 83.029739,189.216675 83.029739,176.012375 
	C91.292152,176.012375 99.171410,176.012375 107.517647,176.021393 
z"/>
</svg>